<svg xmlns="http://www.w3.org/2000/svg" width="98" height="146" viewBox="0 0 98 146">
    <g fill="none" fill-rule="evenodd">
        <path fill="#4A90E2" d="M7.944 73.14a20 20 0 0 0 .716 1.39l40.468 71.541 40.459-70.646a20 20 0 0 0 1.519-3.324 46.744 46.744 0 0 0 6.575-23.957C97.681 21.851 75.979.536 49.207.536 22.436.536.733 21.85.733 48.144A46.76 46.76 0 0 0 7.944 73.14z"/>
        <path stroke="#FFF" stroke-width="4" d="M12.738 71.42a20 20 0 0 0 .728 1.415l35.508 62.773 35.488-61.966a20 20 0 0 0 1.451-3.134 41.247 41.247 0 0 0 5.902-21.306c0-23.2-19.149-42.008-42.77-42.008-23.623 0-42.772 18.808-42.772 42.008a41.262 41.262 0 0 0 6.465 22.218z"/>
    </g>
</svg>
