<svg xmlns="http://www.w3.org/2000/svg" width="18" height="18" viewBox="0 0 18 18">
    <g fill="none" fill-rule="evenodd">
        <path fill="#57BEBB" d="M8.588.668a8.58 8.58 0 1 0 0 17.162 8.58 8.58 0 0 0 0-17.162"/>
        <path fill="#0A99B1" d="M11.512 16.6c-.453-.025-.918.058-1.368-.019-.215-.036-.29-.226-.447-.346a.443.443 0 0 0-.424-.074c-.055.017-.107.05-.156.08a.73.73 0 0 1-.374.097c-.259.009-.508-.014-.767.016-.227.026-.447.096-.671.14-.259.048-.481-.008-.732-.06-.339-.07-.722.078-.804.447-.043.196.075.362.231.49a8.576 8.576 0 0 0 2.588.397 8.547 8.547 0 0 0 3.69-.832c0-.297-.582-.325-.766-.336M5.562 3.375a.167.167 0 0 0 .17-.15c.113-.126.135-.275.134-.45-.002-.228.243-.352.424-.436.208-.096.027-.402-.179-.306a1.527 1.527 0 0 0-.326.199.18.18 0 0 0-.118.042c-.2.162-.404.263-.664.276-.247.012-.465-.137-.693-.21-.256-.081-.552-.04-.804.063a8.619 8.619 0 0 0-2.755 3.16c-.101.327-.133.63-.039.849.086.2.169.353.137.58a1.098 1.098 0 0 0 0 .39c.076.367.57.396.622.758.016.107.101.141.183.124a.308.308 0 0 0-.02.074c-.027.21.093.341.21.5a.18.18 0 0 0 .144.077 1.179 1.179 0 0 0-.032.056c-.112.213-.165.394-.235.608a1.161 1.161 0 0 0-.112.205.184.184 0 0 0-.034.076.193.193 0 0 0-.023.039c-.189.427-.058.84.225 1.214.16.212.356.399.538.592.213.226.301.46.424.732.076.166.302.155.319.357.026.307.02.57.105.874.172.62.502 1.14.53 1.802a.17.17 0 0 0 .053.119c.064.088.225.122.314.006.138-.181.289-.329.346-.555a.56.56 0 0 0-.009-.292c-.03-.08-.183-.313-.147-.342a.468.468 0 0 0 .16-.42.644.644 0 0 0-.077-.2c-.09-.163.154-.366.252-.483.346-.415.599-1.142.621-1.678.008-.185-.022-.328.081-.5.072-.118.142-.222.186-.354.057-.167-.04-.337-.15-.455-.293-.316-.858-.257-1.086-.635-.084-.139-.173-.387-.354-.431-.093-.023-.277.008-.338-.076-.08-.11-.11-.252-.198-.36-.09-.107-.191-.137-.325-.161-.16-.029-.378-.22-.546-.162a.841.841 0 0 0-.31.196.204.204 0 0 0-.016-.027c-.043-.06-.194-.234-.128-.305a.336.336 0 0 0 .093-.197c.012-.086-.008-.209-.084-.268h.001a.293.293 0 0 0 .113-.128c.058-.13-.013-.228-.094-.327-.065-.08-.182-.056-.25 0-.134.109-.218.193-.233-.01-.01-.154.032-.31.082-.454.072-.205.253-.365.433-.475.287-.175.355.401.381.544.036.194.283.142.342 0 .127-.303.096-.557.33-.824.16-.184.332-.347.468-.553.115-.172.178-.252.368-.34.167-.078.33-.166.456-.302.142-.152.145-.295.354-.164.083.053.211.078.3.024.268-.161.313-.542.342-.824.022-.211-.067-.657-.378-.571-.2.055-.675.91-.855.455-.178-.448 1.118-.563 1.371-.566"/>
        <path fill="#0A99B1" d="M6.471 2.7a.9.9 0 0 0-.227.639c.009.228.363.229.354 0v-.01c.273-.209.518-.418.84-.552a.84.84 0 0 0 .413-.364c.186-.304.272-.792-.087-.999-.391-.224-.938.189-.911.603.019.295-.208.476-.382.682M11.452 12.658c.433.204.563-.886.553-1.085v-.001l.046-.067c.123-.184-.175-.356-.297-.173-.091.136-.173.27-.226.425-.04.121.049.29-.047.379-.126.116-.245.42-.029.522M12.022 7.162a.31.31 0 0 0-.291.004c-.082.049-.137.015-.141.015a3.028 3.028 0 0 0-.117-.132c-.264-.28-.487-.535-.903-.555-.53-.025-1.085.214-1.594-.024-.311-.144-.433-.576-.813-.617-.15-.017-.255.093-.391.144-.186.07-.393.07-.555.197-.28.22-.369.628-.607.897-.26.293-.455.56-.503.957-.067.563.53 1.017.978 1.205.232.098.51.095.757.108.382.019.577.24.767.557.201.336.336.718.342 1.112.004.306-.195.545-.143.86.084.51.667 1.127.363 1.629a.179.179 0 0 0-.028.106c-.09.117.012.343.203.303.598-.124 1.21-.812 1.214-1.429.002-.193-.056-.215.095-.374.114-.12.22-.261.28-.416.163-.421.07-.878.273-1.295.098-.199.242-.372.364-.556.125-.192.17-.402.262-.607.076-.168.156-.608-.114-.665-.301-.065.077-.346.176-.431.167-.144.362-.291.42-.514.06-.22-.119-.388-.294-.48"/>
        <path fill="#0A99B1" d="M14.179 7.798c.087-.366.343-.232.511-.029.092.111.232.167.364.21.391.131.53.451.575.802a3.496 3.496 0 0 1 .016.504c-.011.387.088.709.28 1.041.096.17.772.915.84.328a.481.481 0 0 0-.058-.286 1.343 1.343 0 0 0-.118-.16c-.09-.108.1-.187.145-.233.223-.234.26-.548.154-.846-.042-.119-.206-.19-.302-.08-.297.341-.45-.064-.543-.395.067-.2.129-.42.028-.613-.125-.239-.337-.4-.498-.608a.186.186 0 0 0-.022-.063.302.302 0 0 1-.056-.255.614.614 0 0 0 .44-.052c.187-.115.302-.297.265-.524-.053-.33-.25-.564-.47-.806-.06-.067-.139-.15-.216-.241.147.09.33-.11.236-.254-.348-.535-.593-1.14-.964-1.66-.14-.197-.332-.322-.54-.439-.14-.08-.278-.153-.404-.254-.16-.128-.215-.34-.331-.5-.335-.46-.86-.758-1.43-.717-.27.02-.527.137-.78.225-.18.063-.35.1-.54.053-.154-.038-.287-.11-.447-.132-.089-.012-.205.02-.222.126-.062.379-.278.606-.633.74a.187.187 0 0 0-.077.056l-.046.003c-.166.008-.24-.095-.381-.137-.157-.047-.251.006-.37.107a.742.742 0 0 0-.063.073c-.083.135-.093.225-.093.227a3.67 3.67 0 0 0-.05.367s-.038.033-.05.056c-.036.078-.1.101-.189.127-.149.044-.162.232-.04.314.07.048.151.073.235.084l.002.003c.006.006.03.036.01.006.009.014.02.025.03.036l.01.056c.049.242-.287.385-.438.524a.518.518 0 0 0-.164.432c.013.24-.223.221-.312.423-.04.089-.028.195.065.247.251.143.455.032.627-.173.137-.162.222-.4.478-.27.199.1.346.338.484.505.12.146.345-.011.302-.175-.019-.072-.047-.137-.076-.205-.12-.283.177-.04.278.054.1.094.178.223.291.3.17.117.348.162.532.251.135.066.244.2.38.274.119.065.262.078.394.095.4.05.623.402.958.585.134.074.286.083.434.108.233.04.173.188.258.332a.348.348 0 0 0 .468.141c.082-.04.103-.188.104-.058.001.13.011.244.043.372.074.302.258.596.474.816.102.104.256.044.302-.08.11-.29-.153-.49-.09-.758M16.345 11.55c-.257.01-.447.233-.592.423-.26.343-.39-.147-.668.016-.344.201-.36.813-.606 1.098-.183.213-.441.412-.387.723.055.322.502.242.838.129-.04.32-.357.696-.122.985a.296.296 0 0 0 .296.108 8.575 8.575 0 0 0 1.589-2.759.187.187 0 0 0-.031-.02c.013-.313 0-.716-.317-.703"/>
        <path fill="#E0EAEC" d="M11.512 16.78c-.453-.025-.918.059-1.368-.018-.215-.037-.29-.226-.447-.347a.443.443 0 0 0-.424-.074c-.055.018-.107.05-.156.08a.73.73 0 0 1-.374.097c-.259.01-.508-.013-.767.016-.227.026-.447.097-.671.14-.259.05-.481-.008-.732-.06-.339-.069-.722.079-.804.448-.043.196.075.362.231.49a8.577 8.577 0 0 0 2.588.397 8.547 8.547 0 0 0 3.69-.833c0-.296-.582-.325-.766-.335M5.461 3.174a.167.167 0 0 0 .17-.15c.114-.126.135-.274.134-.45-.002-.228.243-.351.424-.436.208-.096.027-.402-.179-.306a1.527 1.527 0 0 0-.325.199.18.18 0 0 0-.118.042c-.2.162-.405.264-.664.276-.248.012-.466-.137-.694-.21-.255-.081-.552-.04-.804.063A8.619 8.619 0 0 0 .65 5.362c-.1.327-.133.63-.039.849.086.201.169.354.138.58a1.097 1.097 0 0 0 0 .39c.075.367.569.396.621.758.016.108.101.141.183.124a.308.308 0 0 0-.02.074c-.027.21.094.342.21.5a.18.18 0 0 0 .144.078 1.19 1.19 0 0 0-.031.055c-.112.213-.166.394-.236.608a1.162 1.162 0 0 0-.112.205.185.185 0 0 0-.034.076.192.192 0 0 0-.023.039c-.189.427-.058.84.225 1.214.16.213.356.399.538.592.213.226.301.46.424.732.076.166.302.155.319.357.026.308.02.57.105.875.172.619.502 1.14.531 1.8a.17.17 0 0 0 .052.12c.064.088.225.122.314.006.138-.181.289-.329.346-.555a.56.56 0 0 0-.009-.291c-.03-.081-.183-.314-.147-.343a.468.468 0 0 0 .16-.42.645.645 0 0 0-.077-.2c-.09-.163.154-.366.252-.483.347-.415.6-1.142.622-1.678.007-.185-.023-.328.08-.5.072-.118.142-.221.186-.354.057-.167-.04-.337-.15-.455-.293-.316-.858-.257-1.086-.635-.084-.139-.173-.386-.354-.431-.093-.023-.277.008-.338-.076-.08-.11-.11-.252-.198-.36-.09-.107-.191-.137-.325-.16-.159-.03-.378-.221-.546-.163a.84.84 0 0 0-.31.197.201.201 0 0 0-.016-.028c-.043-.06-.194-.234-.128-.305a.336.336 0 0 0 .093-.197c.012-.086-.008-.209-.084-.268h.001a.293.293 0 0 0 .113-.127c.058-.131-.013-.228-.094-.328-.065-.08-.182-.056-.25 0-.134.109-.218.193-.233-.01a1.15 1.15 0 0 1 .083-.454c.072-.205.252-.365.432-.475.287-.175.355.402.382.544.035.194.282.143.342 0 .126-.303.096-.557.328-.824.16-.184.334-.347.47-.552.114-.172.177-.253.367-.341.167-.078.33-.165.456-.301.142-.153.145-.296.354-.164.083.052.211.077.3.023.268-.161.313-.542.342-.824.022-.211-.066-.656-.377-.571-.2.055-.675.91-.856.456-.178-.449 1.118-.564 1.371-.567M6.471 2.498a.9.9 0 0 0-.227.64c.009.228.363.229.354 0v-.01c.273-.209.518-.417.84-.552a.84.84 0 0 0 .413-.364c.186-.303.272-.792-.087-.998-.391-.224-.938.188-.911.602.019.295-.208.476-.382.682M11.452 12.457c.433.204.563-.886.553-1.085v-.001l.046-.067c.123-.184-.175-.356-.297-.173-.091.136-.173.27-.226.426-.04.12.049.289-.047.378-.126.116-.245.42-.029.522M12.022 6.96a.31.31 0 0 0-.291.005c-.082.049-.137.015-.141.015a3.028 3.028 0 0 0-.117-.132c-.264-.28-.487-.535-.903-.555-.53-.025-1.085.214-1.594-.024-.311-.144-.433-.576-.813-.617-.15-.017-.255.093-.391.144-.186.07-.393.07-.555.197-.28.22-.369.628-.607.897-.26.293-.455.56-.503.958-.067.562.53 1.016.978 1.204.232.098.51.095.757.108.382.019.577.24.767.557.201.336.336.718.342 1.112.004.306-.195.545-.143.86.084.51.667 1.127.363 1.629a.178.178 0 0 0-.028.106c-.09.117.012.343.203.303.598-.124 1.21-.812 1.214-1.429.002-.193-.056-.215.095-.374.114-.12.22-.261.28-.416.163-.421.07-.878.273-1.294.098-.2.242-.373.364-.557.125-.192.17-.402.262-.607.076-.168.156-.608-.114-.665-.301-.065.077-.346.176-.431.167-.144.362-.291.42-.514.06-.22-.119-.388-.294-.48"/>
        <path fill="#E0EAEC" d="M14.179 7.597c.087-.366.343-.231.511-.029.092.111.232.167.364.21.391.131.53.452.575.803a3.496 3.496 0 0 1 .016.504c-.011.386.088.708.28 1.04.096.17.772.915.84.328a.481.481 0 0 0-.058-.286 1.338 1.338 0 0 0-.118-.16c-.09-.108.1-.187.145-.233.223-.234.26-.548.154-.846-.042-.119-.206-.19-.302-.08-.297.341-.45-.063-.543-.395.067-.2.129-.42.028-.613-.125-.239-.337-.4-.498-.608a.186.186 0 0 0-.022-.063.302.302 0 0 1-.056-.255.614.614 0 0 0 .44-.052c.187-.115.302-.296.265-.524-.053-.33-.25-.564-.47-.806-.06-.067-.139-.15-.216-.241.147.09.33-.11.236-.253-.348-.536-.593-1.141-.964-1.66-.14-.198-.332-.323-.54-.44-.14-.079-.278-.153-.404-.254-.16-.128-.215-.34-.331-.5-.335-.46-.86-.758-1.43-.717-.27.02-.527.137-.78.225-.18.063-.35.1-.54.053-.154-.038-.287-.11-.447-.132-.089-.012-.205.02-.222.126-.062.38-.278.606-.633.741a.187.187 0 0 0-.077.055c-.015.001-.03.003-.046.003-.166.008-.24-.095-.381-.137-.157-.047-.251.006-.37.107a.737.737 0 0 0-.063.073c-.083.135-.093.225-.093.227a3.67 3.67 0 0 0-.05.367s-.038.033-.05.056c-.036.078-.1.101-.189.127-.149.044-.162.232-.04.314.07.048.151.073.235.084l.002.003c.006.006.03.036.01.006.009.014.02.025.03.036l.01.057c.049.24-.287.384-.438.523a.518.518 0 0 0-.164.432c.013.24-.223.221-.312.423-.04.09-.028.195.065.247.251.143.455.032.627-.173.137-.162.222-.4.478-.27.199.101.346.338.484.505.12.146.345-.011.302-.175-.019-.072-.047-.137-.076-.205-.12-.283.177-.04.278.054.1.094.178.223.291.3.17.117.348.162.532.251.135.066.244.2.38.274.119.065.262.078.394.095.4.05.623.402.958.586.134.073.286.082.434.107.233.04.173.188.258.332a.348.348 0 0 0 .468.142c.082-.04.103-.189.104-.059.001.13.011.245.043.372.074.302.258.596.474.816.102.104.256.044.302-.08.11-.29-.153-.49-.09-.758M16.53 11.534c-.257.011-.447.233-.592.424-.26.342-.389-.148-.668.016-.344.2-.36.812-.606 1.097-.183.213-.44.412-.387.723.056.322.503.243.839.13-.04.32-.358.695-.122.984a.296.296 0 0 0 .296.108 8.573 8.573 0 0 0 1.588-2.758.186.186 0 0 0-.03-.02c.013-.314 0-.717-.317-.704"/>
        <path fill="#542A3A" d="M15.495 10.185a.667.667 0 1 0-.846.642l.498.424-.03-.465a.667.667 0 0 0 .378-.601"/>
        <path fill="#FFF" d="M14.882 10.36h-.108v.178h-.196v-.5h.196v.176h.108v-.176h.196v.5h-.196v-.178"/>
        <path fill="#FFF" d="M14.881 10.474h.5v-.34h-.5v.34zm0-.43c0-.009.007-.018.02-.027a.203.203 0 0 1 .054-.022.795.795 0 0 1 .353 0c.023.006.04.014.054.022.013.009.02.018.02.028 0 .01-.007.019-.02.027a.203.203 0 0 1-.054.023.806.806 0 0 1-.353 0 .203.203 0 0 1-.054-.023c-.013-.008-.02-.017-.02-.027z"/>
        <path fill="#FFF" d="M15.075 10.465c0 .01.005.02.016.029.01.01.023.017.04.024a.434.434 0 0 0 .263 0 .123.123 0 0 0 .04-.024.04.04 0 0 0 .015-.03c0-.01-.005-.02-.015-.029a.124.124 0 0 0-.04-.023.41.41 0 0 0-.263 0 .132.132 0 0 0-.04.023c-.01.01-.016.019-.016.03zm.339-.099l-.28-.008-.114-.242a.052.052 0 0 1-.005-.02c0-.008.005-.017.017-.024a.13.13 0 0 1 .045-.017c.02-.004.113-.009.282-.016a.363.363 0 0 1 .107.008c.033.012.049.026.049.042a.063.063 0 0 1-.005.023l-.096.254z"/>
        <path fill="#E0932B" d="M16.686 10.732c.016-.106-.05-.175-.134-.197-.028-.24-.234-.165-.305-.1.004-.113-.05-.169-.112-.186v.82l.292.002s-.023.148.019.19c.128.128.212-.109.187-.14.1-.022.153-.109.162-.2.01-.09-.047-.18-.11-.19"/>
        <path fill="#F3AC1E" d="M15.944 10.358c-.08-.06-.221.006-.224.084-.215.012-.215.218-.168.287-.085.006-.088.193-.028.258.059.066.199.078.199.078l.412.004v-.82c-.085-.023-.189.028-.19.109"/>
        <path fill="#0F4F2C" d="M16.135 12.738v-.642s.48-.034.494.065c.014.1 0 .577 0 .577h-.494"/>
        <path fill="#E5BC9A" d="M16.892 11.595a.25.25 0 1 0-.5 0 .25.25 0 0 0 .5 0"/>
        <path fill="#E5BC9A" d="M16.135 10.85v1.248h.382l.118-1.248h-.5"/>
        <path fill="#0E222B" d="M16.268 11.472a.25.25 0 1 0 .5 0 .25.25 0 0 0-.5 0"/>
        <path fill="#DD4926" d="M16.135 11.355v.5s.362.005.449-.03c.049-.021.06-.071.045-.094-.043-.068-.22-.231-.33-.325-.065-.056-.164-.051-.164-.051"/>
        <path fill="#E0932B" d="M16.135 11.238s.166-.255.44-.005c.02-.264.06-.49.06-.49l-.5-.005v.5"/>
        <path fill="#566B1B" d="M16.635 12.122l-.5.483v-.5h.454c.017.005.032.01.046.017"/>
        <path fill="#B0C9CF" d="M16.135 12.53h.5v-.5h-.5z"/>
        <path fill="#B0C9CF" d="M16.29 12.902h.5v-.5h-.5z"/>
        <path fill="#3E8A3A" d="M16.206 12.738v-.642s-.48-.034-.494.065c-.014.1 0 .577 0 .577h.494"/>
        <path fill="#EFE0CD" d="M15.588 11.595a.25.25 0 1 1 .5 0 .25.25 0 0 1-.5 0"/>
        <path fill="#EFE0CD" d="M16.223 10.85v1.248h-.382l-.118-1.248h.5"/>
        <path fill="#0E222B" d="M16.433 11.472a.25.25 0 1 1-.5 0 .25.25 0 0 1 .5 0"/>
        <path fill="#FC611F" d="M16.547 11.355v.5s-.362.005-.449-.03c-.048-.021-.06-.071-.045-.094.044-.068.22-.231.329-.325.066-.056.165-.051.165-.051"/>
        <path fill="#F3AC1E" d="M16.174 11.238s-.166-.255-.44-.005c-.02-.264-.06-.49-.06-.49l.5-.005v.5"/>
        <path fill="#8BBF37" d="M15.764 12.122l.5.483v-.5h-.454a.333.333 0 0 0-.046.017"/>
        <path fill="#FFF" d="M15.771 12.53h.5v-.5h-.5z"/>
        <path fill="#B22936" d="M16.246 12.177c.137 0 .25-.223.25-.5h-.5c0 .277.111.5.25.5"/>
        <path fill="#EF3133" d="M16.321 11.733c-.123 0-.225.17-.25.396a.384.384 0 0 0 .253.104c.089 0 .173-.037.247-.1-.023-.229-.126-.4-.25-.4"/>
        <path fill="#E0932B" d="M8.779 8.127c0 .285.268.515.598.515h.398c.33 0 .598-.23.598-.515 0-.285-.267-.516-.598-.516h-.398c-.33 0-.598.231-.598.516"/>
        <path fill="#E0932B" d="M9.591 8.485h-.524l.598.5-.074-.5"/>
        <path fill="#FFF" d="M9.47 8.01v.143a1.406 1.406 0 0 0-.177-.013.205.205 0 0 0-.069.008c-.01.004-.016.01-.016.022 0 .02.018.029.053.029h.027c.068 0 .115.006.14.018.038.018.058.056.058.112 0 .06-.02.103-.06.127a.357.357 0 0 1-.176.033c-.066 0-.146-.006-.242-.018v-.12c.052.006.109.01.17.01a.248.248 0 0 0 .071-.006c.01-.004.014-.012.014-.023 0-.01-.004-.017-.012-.021-.007-.005-.021-.007-.043-.007a.57.57 0 0 1-.13-.008A.108.108 0 0 1 9 8.23a.203.203 0 0 1-.014-.08c0-.068.026-.113.077-.135a.493.493 0 0 1 .185-.026c.065 0 .139.007.221.02"/>
        <path fill="#FFF" d="M9.44 8.196c-.04 0-.06.027-.06.08 0 .062.02.093.06.093.019 0 .033-.006.041-.018.011-.014.017-.039.017-.074 0-.032-.006-.053-.016-.065-.01-.01-.023-.016-.042-.016zm.28-.156v.473h-.193c-.012-.024-.025-.029-.037-.016-.02.018-.05.027-.094.027-.062 0-.106-.019-.131-.055a.397.397 0 0 1-.046-.214.44.44 0 0 1 .013-.115.183.183 0 0 1 .039-.075c.025-.028.065-.041.119-.041.05 0 .1.008.147.025.059.014.12.012.182-.009z"/>
        <path fill="#FFF" d="M9.496 8.486h.5v-.5h-.5z"/>
        <path fill="#FFF" d="M10.124 8.031v.286a.515.515 0 0 1-.006.077.136.136 0 0 1-.03.068.17.17 0 0 1-.068.045.385.385 0 0 1-.147.024c-.103 0-.175-.024-.216-.073-.022-.026-.033-.073-.033-.141v-.286h.207l.001.241c0 .017.002.03.005.04.005.015.017.022.037.022.02 0 .033-.007.038-.022a.157.157 0 0 0 .004-.04l-.001-.241h.209"/>
        <path fill="#FFF" d="M10.367 8.074v.138h-.176v.126c0 .012 0 .02.002.024.007.015.03.023.07.023a1.327 1.327 0 0 0 .086-.008l-.007.102c-.072.01-.137.015-.194.015-.081 0-.137-.01-.167-.03a.082.082 0 0 1-.037-.055.257.257 0 0 1-.001-.03v-.167h-.076v-.085c.09 0 .135-.022.136-.066 0-.044.018-.067.052-.067h.136v.08h.176"/>
        <path fill="#FFF" d="M10.134 8.42c0 .011.005.021.015.03a.13.13 0 0 0 .04.024.438.438 0 0 0 .263 0 .122.122 0 0 0 .04-.024c.01-.009.015-.019.015-.03 0-.01-.005-.02-.014-.029a.122.122 0 0 0-.04-.023.415.415 0 0 0-.263 0 .13.13 0 0 0-.041.023c-.01.01-.015.02-.015.03zm.338-.098l-.28-.008-.115-.242a.054.054 0 0 1-.004-.02c0-.008.005-.016.017-.024a.127.127 0 0 1 .045-.016c.02-.004.113-.01.282-.017a.356.356 0 0 1 .108.009c.032.011.048.025.048.041a.068.068 0 0 1-.005.023l-.096.254z"/>
        <path fill="#F3AC1E" d="M9.618 10.436h.388v.617h-.497s-.033-.43.11-.617"/>
        <path fill="#542A3A" d="M9.877 10.278V9.045s-.271.008-.373.101c-.101.093-.187.098-.256.45-.008.046-.048.095-.036.224.02.21.17.198.178.215.009.016-.162.272.487.243"/>
        <path fill="#9B7A64" d="M9.457 9.999a.25.25 0 1 1 .5 0 .25.25 0 0 1-.5 0"/>
        <path fill="#9B7A64" d="M10.024 9.444v.999h-.356l-.144-.999h.5"/>
        <path fill="#0E222B" d="M10.22 10.02a.25.25 0 1 1-.499.001.25.25 0 0 1 .5 0"/>
        <path fill="#FC611F" d="M10.316 9.913v.5s-.361.005-.448-.031c-.05-.02-.06-.07-.046-.093.043-.068.22-.231.33-.325.065-.057.164-.051.164-.051"/>
        <path fill="#F3AC1E" d="M9.78 8.95s-.478.284-.044.5c.246-.077.55-.267.044-.5"/>
        <path fill="#F3AC1E" d="M9.317 9.304s.349-.363.5.238c-.174.221-.325.253-.5-.238"/>
        <path fill="#542A3A" d="M9.992 10.49l-.057.406s-.443-.058-.443-.246c0-.189.121-.254.121-.254l.379.094"/>
        <path fill="#E0932B" d="M10.265 10.436h-.388v.617h.497s.033-.43-.11-.617"/>
        <path fill="#331829" d="M9.877 10.278V9.045s.272.008.374.101c.101.093.186.098.255.45.01.046.05.095.037.224-.02.21-.17.198-.179.215-.008.016.163.272-.487.243"/>
        <path fill="#684D3A" d="M10.566 9.999a.25.25 0 1 0-.5 0 .25.25 0 0 0 .5 0"/>
        <path fill="#684D3A" d="M9.877 9.444v.999h.356l.144-.999h-.5"/>
        <path fill="#0E222B" d="M9.979 10.02a.25.25 0 1 0 .5.001.25.25 0 0 0-.5 0"/>
        <path fill="#DD4926" d="M9.877 9.913v.5s.362.005.449-.031c.049-.02.06-.07.045-.093-.043-.068-.22-.231-.329-.325-.066-.057-.165-.051-.165-.051"/>
        <path fill="#331829" d="M9.877 10.49l.058.406s.442-.058.442-.246c0-.189-.12-.254-.12-.254l-.38.094"/>
        <path fill="#331829" d="M10.377 10.93c0 .137-.223.249-.5.25v-.5c.277 0 .5.112.5.25"/>
        <path fill="#542A3A" d="M9.84 10.93c0-.14.222-.25.495-.25h.004v.498a.006.006 0 0 0-.002.001c-.275 0-.498-.112-.498-.25"/>
        <path fill="#331829" d="M10.377 11.032c0 .137-.223.249-.5.25v-.5c.277.002.5.113.5.25"/>
        <path fill="#542A3A" d="M9.84 11.032c0-.138.222-.25.495-.25h.004v.5h-.002c-.275 0-.498-.112-.498-.25"/>
        <path fill="#331829" d="M10.377 11.135c0 .137-.223.249-.5.25v-.5c.277.001.5.113.5.25"/>
        <path fill="#542A3A" d="M9.84 11.135c0-.138.222-.25.495-.25h.004v.5h-.002c-.275 0-.498-.112-.498-.25"/>
        <path fill="#331829" d="M10.348 9.436c-.043-.054-.263-.091-.47-.101v.345c.1.008.227.01.388 0-.008.056.052.155.052.155s.11-.296.03-.4"/>
        <path fill="#542A3A" d="M9.512 9.407c-.048.136.032.265.032.265s.055.125.452.16v-.496c-.237-.013-.461.006-.484.071"/>
        <path fill="#F3AC1E" d="M9.884 9.202h-.005c-.326 0-.481.42-.488.436-.011.025-.01.05.012.062.007.004.026.004.042-.027.001-.003.165-.324.434-.324h.005v-.147"/>
        <path fill="#E0932B" d="M9.878 9.202h.005c.325 0 .48.42.488.436.01.025.01.05-.013.062-.006.004-.026.004-.041-.027-.002-.003-.165-.324-.434-.324h-.005v-.147"/>
        <path fill="#B22936" d="M10.026 10.671c.139 0 .25-.224.25-.5h-.5c0 .276.112.5.25.5"/>
        <path fill="#EF3133" d="M10.081 10.211c-.123 0-.225.17-.25.396a.387.387 0 0 0 .252.104.38.38 0 0 0 .248-.1c-.023-.228-.126-.4-.25-.4"/>
        <path fill="#E0932B" d="M8.503.74c0-.376-.28-.68-.626-.68h-.654c-.346 0-.626.304-.626.68 0 .377.28.681.626.681h.515l.506.304-.13-.354a.683.683 0 0 0 .39-.63"/>
        <path fill="#FFF" d="M7.017 1.048h.06c.022 0 .037-.004.045-.01.01-.008.015-.022.015-.043 0-.032-.013-.047-.04-.047h-.08v.1zm0-.181h.064c.022 0 .036-.004.043-.01.008-.01.012-.023.012-.042 0-.032-.016-.048-.046-.048h-.073v.1zM6.826.64h.348a.306.306 0 0 1 .097.017c.033.018.05.053.05.105 0 .045-.013.078-.039.099a.164.164 0 0 1-.078.026v.004c.031.002.054.007.069.014.035.016.053.049.053.098 0 .04-.011.073-.034.1-.02.024-.055.037-.104.037h-.362v-.5z"/>
        <path fill="#FFF" d="M7.305.834c-.02 0-.036.004-.045.013-.013.013-.02.035-.02.067a.2.2 0 0 0 .012.078.05.05 0 0 0 .021.023c.01.006.02.008.032.008.043 0 .064-.031.064-.095 0-.035-.005-.06-.016-.075C7.345.841 7.33.834 7.305.834zm.007-.166c.057 0 .101.007.134.021.046.021.078.055.094.101.01.028.015.066.015.113 0 .07-.01.123-.03.16a.18.18 0 0 1-.097.089.36.36 0 0 1-.119.016.286.286 0 0 1-.171-.043c-.055-.04-.083-.112-.083-.214s.028-.171.083-.207a.214.214 0 0 1 .08-.03.64.64 0 0 1 .094-.006z"/>
        <path fill="#FFF" d="M7.339.684a.834.834 0 0 0 .226-.007c.078-.02.14-.006.188.041.02.02.03.055.03.106v.344h-.199l.001-.23a.544.544 0 0 0-.002-.035.042.042 0 0 0-.02-.035.057.057 0 0 0-.027-.005c-.02 0-.035.006-.044.018a.073.073 0 0 0-.014.045l-.001.242h-.194V.677l.056.007"/>
        <path fill="#FFF" d="M7.602.65c0-.008.005-.016.015-.023a.145.145 0 0 1 .042-.02.57.57 0 0 1 .277 0 .148.148 0 0 1 .042.02c.01.007.015.015.015.024 0 .008-.005.016-.015.023a.15.15 0 0 1-.042.02.563.563 0 0 1-.277 0 .146.146 0 0 1-.042-.02C7.607.667 7.602.66 7.602.651zm.391.077v.255c0 .028-.007.048-.02.062-.024.024-.086.039-.187.043a3.83 3.83 0 0 1-.293.001v-.07h.036c.032 0 .054-.003.063-.009C7.597 1.007 7.6 1 7.6.99V.728h.393z"/>
        <path fill="#FFF" d="M7.866.834c-.02 0-.035.004-.044.013-.013.013-.02.035-.02.067 0 .036.004.061.011.078a.05.05 0 0 0 .021.023c.01.006.021.008.032.008.043 0 .064-.031.064-.095 0-.035-.005-.06-.015-.075C7.906.841 7.89.834 7.866.834zm.007-.166c.057 0 .102.007.134.021.046.021.078.055.094.101a.35.35 0 0 1 .015.113c0 .07-.01.123-.03.16a.18.18 0 0 1-.097.089.36.36 0 0 1-.119.016.286.286 0 0 1-.171-.043c-.055-.04-.083-.112-.083-.214S7.644.74 7.7.704a.215.215 0 0 1 .08-.03.641.641 0 0 1 .094-.006z"/>
        <path fill="#FFF" d="M8.344.672v.286a.5.5 0 0 1-.006.077.135.135 0 0 1-.03.068.17.17 0 0 1-.068.045.387.387 0 0 1-.146.024c-.104 0-.176-.025-.217-.073-.022-.026-.033-.073-.033-.141V.672h.208v.24c0 .017.002.03.006.04.005.016.017.023.036.023.02 0 .033-.007.038-.022a.151.151 0 0 0 .004-.04V.672h.208"/>
        <path fill="#FFF" d="M8.12.688c.088.011.16.009.214-.007a.562.562 0 0 1 .232 0v.224a.65.65 0 0 0-.065-.004c-.06 0-.1.012-.124.036-.008.008-.014.025-.018.05a.342.342 0 0 0-.003.038v.144h-.29V.683l.053.005"/>
        <path fill="#FFF" d="M8.275 1.066c0 .01.005.02.016.03.01.009.023.017.04.023a.435.435 0 0 0 .263 0 .12.12 0 0 0 .04-.023.04.04 0 0 0 .015-.03.04.04 0 0 0-.015-.03.122.122 0 0 0-.04-.023.41.41 0 0 0-.263 0 .135.135 0 0 0-.04.024c-.01.009-.016.019-.016.03zm.339-.098L8.333.96 8.219.718a.058.058 0 0 1-.004-.02c0-.009.005-.017.017-.024a.129.129 0 0 1 .045-.017c.02-.004.113-.01.282-.016a.359.359 0 0 1 .107.008c.032.012.049.026.049.042a.07.07 0 0 1-.005.022l-.096.255z"/>
        <path fill="#0E222B" d="M9.234 2.074a.25.25 0 1 1-.5 0 .25.25 0 0 1 .5 0"/>
        <path fill="#F3AC1E" d="M8.505 1.943h.413v-.824s-.117 0-.144.036c-.087.003-.242-.018-.284.188-.066-.003-.144.066-.084.324.03.134.099.276.099.276"/>
        <path fill="#EFE0CD" d="M8.434 2.166a.25.25 0 1 1 .5 0 .25.25 0 0 1-.5 0"/>
        <path fill="#EFE0CD" d="M9.022 1.425v1.2H8.64l-.118-1.2h.5"/>
        <path fill="#FC611F" d="M9.35 2.013v.5s-.36.006-.448-.03c-.049-.021-.06-.07-.045-.094.043-.068.22-.23.329-.324.065-.057.165-.052.165-.052"/>
        <path fill="#542A3A" d="M8.503 3.435h.493v-.794h-.419s-.11.641-.074.794"/>
        <path fill="#FFF" d="M8.535 3.282h.5v-.5h-.486c-.005.153-.01.321-.014.5"/>
        <path fill="#FFF" d="M8.516 3.45h.5v-.5h-.488l-.012.5"/>
        <path fill="#FFF" d="M8.501 3.618h.5v-.5H8.51l-.009.5"/>
        <path fill="#FFF" d="M8.496 3.785h.5v-.5h-.499c-.001.185-.002.354-.001.5"/>
        <path fill="#0E222B" d="M9.036 2.074a.25.25 0 1 0 .5 0 .25.25 0 0 0-.5 0"/>
        <path fill="#E0932B" d="M9.332 1.943h-.414v-.824s.117 0 .144.036c.087.003.243-.018.285.188.066-.003.144.066.084.324-.031.134-.1.276-.1.276"/>
        <path fill="#E5BC9A" d="M9.623 2.166a.25.25 0 1 0-.5 0 .25.25 0 0 0 .5 0"/>
        <path fill="#E5BC9A" d="M8.918 1.425v1.2H9.3l.118-1.2h-.5"/>
        <path fill="#DD4926" d="M8.918 2.013v.5s.362.006.449-.03c.049-.021.06-.07.045-.094-.043-.068-.22-.23-.329-.324-.065-.057-.165-.052-.165-.052"/>
        <path fill="#331829" d="M9.411 3.435h-.493v-.794h.419s.11.641.074.794"/>
        <path fill="#B0C9CF" d="M9.418 3.282h-.5v-.5h.486c.005.153.01.321.014.5"/>
        <path fill="#B0C9CF" d="M9.418 3.45h-.5v-.5h.489l.011.5"/>
        <path fill="#B0C9CF" d="M9.418 3.618h-.5v-.5h.492l.008.5"/>
        <path fill="#B0C9CF" d="M9.418 3.785h-.5v-.5h.499c.001.185.002.354 0 .5"/>
        <path fill="#FC611F" d="M8.833 2.596s-.562.285-.49.5c.198-.051.534-.274.49-.5"/>
        <path fill="#FC611F" d="M8.77 2.605s-.561.334-.12.5c.267-.076.526-.32.12-.5"/>
        <path fill="#0E222B" d="M9.05 2.074a.25.25 0 1 0 .501 0 .25.25 0 0 0-.5 0"/>
        <path fill="#FC611F" d="M8.532 2.596c.057.33.272.452.5.5v-.5h-.5"/>
        <path fill="#F3AC1E" d="M8.49 1.4l.085.514s.068-.08.09-.074c.026.008-.02.089.039.095.063.006.047-.094.1-.093.035.001-.007.095.06.104.048.006.09-.016.126-.051v-.493l-.5-.002"/>
        <path fill="#DD4926" d="M9.283 2.596h-.365v.453c.194.04.398.021.5.047-.01-.405-.135-.5-.135-.5"/>
        <path fill="#E0932B" d="M9.041 1.631c.053.003.3-.009.3-.009l.02.29.057-.509-.5-.001v.493a.481.481 0 0 0 .123-.264"/>
        <path fill="#B22936" d="M9.062 2.82c.138 0 .25-.224.25-.5h-.5c0 .276.112.5.25.5"/>
        <path fill="#EF3133" d="M9.12 2.362c-.124 0-.226.17-.25.396a.385.385 0 0 0 .252.104c.09 0 .173-.037.248-.1-.024-.229-.127-.4-.25-.4"/>
        <path fill="#F2622F" d="M4.661 1.24h-.398a.598.598 0 0 0-.337 1.092l-.06.374.357-.271.04.001h.398a.598.598 0 1 0 0-1.196"/>
        <path fill="#FFF" d="M4.36 1.72v.142a1.444 1.444 0 0 0-.176-.013.205.205 0 0 0-.069.009c-.01.003-.015.01-.015.022 0 .019.017.028.053.028h.026a.35.35 0 0 1 .14.019c.039.018.058.055.058.112 0 .06-.02.102-.06.127a.357.357 0 0 1-.176.033A2.02 2.02 0 0 1 3.9 2.18V2.06c.052.007.109.01.17.01a.25.25 0 0 0 .072-.005c.009-.005.014-.012.014-.023 0-.01-.005-.017-.013-.021-.007-.005-.02-.008-.042-.007a.57.57 0 0 1-.131-.008.107.107 0 0 1-.078-.066.2.2 0 0 1-.014-.08c0-.068.026-.113.078-.135a.493.493 0 0 1 .184-.026c.065 0 .139.007.221.02"/>
        <path fill="#FFF" d="M4.331 1.906c-.04 0-.06.027-.06.08 0 .062.02.093.06.093.019 0 .033-.006.042-.018.01-.014.016-.039.016-.075 0-.031-.005-.053-.016-.064-.009-.01-.023-.016-.042-.016zm.28-.156v.472h-.192c-.013-.023-.026-.028-.038-.016-.02.018-.05.027-.094.027-.062 0-.106-.018-.131-.054a.397.397 0 0 1-.045-.215c0-.045.004-.084.012-.114a.184.184 0 0 1 .04-.076c.024-.027.064-.04.118-.04.05 0 .1.008.147.024.059.015.12.012.183-.008z"/>
        <path fill="#FFF" d="M4.387 2.196h.5v-.5h-.5z"/>
        <path fill="#FFF" d="M5.015 1.74v.287a.507.507 0 0 1-.006.077.135.135 0 0 1-.03.068.17.17 0 0 1-.068.045.386.386 0 0 1-.147.024c-.103 0-.175-.024-.216-.073-.022-.026-.033-.073-.033-.141V1.74h.208v.24c0 .017.002.03.006.04.004.016.017.023.036.023.02 0 .033-.007.038-.022a.158.158 0 0 0 .004-.04V1.74h.208"/>
        <path fill="#FFF" d="M5.258 1.784v.138h-.176v.125c0 .013 0 .021.002.025.007.015.03.023.07.023a1.133 1.133 0 0 0 .086-.008l-.006.102a1.48 1.48 0 0 1-.195.015c-.081 0-.137-.01-.167-.03a.082.082 0 0 1-.037-.056.256.256 0 0 1 0-.029v-.167h-.077v-.085c.09 0 .135-.022.136-.067 0-.044.018-.066.053-.066h.135v.08h.176"/>
        <path fill="#FFF" d="M5.025 2.13c0 .011.005.02.015.03.01.009.024.017.041.023a.438.438 0 0 0 .263 0 .123.123 0 0 0 .04-.023c.01-.01.014-.019.014-.03 0-.01-.004-.02-.014-.029a.122.122 0 0 0-.04-.023.41.41 0 0 0-.263 0 .133.133 0 0 0-.04.023c-.011.01-.016.019-.016.03zm.338-.098l-.28-.008-.114-.242a.052.052 0 0 1-.005-.02c0-.009.006-.017.018-.024a.129.129 0 0 1 .044-.017c.02-.004.114-.01.283-.016a.359.359 0 0 1 .107.008c.032.012.048.026.048.042a.066.066 0 0 1-.005.022l-.096.255z"/>
        <path fill="#542A3A" d="M3.212 4.093V2.505s-.55-.012-.557.136c-.006.148.132.744.116.834-.016.09-.106.412-.113.476-.006.065.065.145.148.135.084-.01.406.007.406.007"/>
        <path fill="#542A3A" d="M2.852 4.747h.497v-.66h-.36s-.163.225-.137.66"/>
        <path fill="#FC611F" d="M3.07 4.747h.5v-.66h-.5z"/>
        <path fill="#FFF" d="M3.07 4.809h.5v-.5h-.5z"/>
        <path fill="#FFF" d="M3.07 4.95h.5v-.5h-.5z"/>
        <path fill="#FFF" d="M3.07 5.092h.5v-.5h-.5z"/>
        <path fill="#EFE0CD" d="M2.773 3.596a.25.25 0 1 1 .5 0 .25.25 0 0 1-.5 0"/>
        <path fill="#EFE0CD" d="M3.374 3.012v1.025h-.382l-.118-1.025h.5"/>
        <path fill="#0E222B" d="M3.523 3.592a.25.25 0 1 1-.5.001.25.25 0 0 1 .5 0"/>
        <path fill="#FC611F" d="M3.657 3.545v.5s-.362.006-.45-.03c-.048-.021-.06-.07-.045-.094.044-.068.22-.23.33-.325.065-.056.165-.05.165-.05"/>
        <path fill="#331829" d="M3.212 4.093V2.505s.55-.012.557.136c.007.148-.132.744-.116.834.016.09.107.412.113.476.006.065-.064.145-.148.135-.084-.01-.406.007-.406.007"/>
        <path fill="#331829" d="M3.71 4.747h-.498v-.66h.36s.164.225.137.66"/>
        <path fill="#DD4926" d="M3.212 4.747h.5v-.66h-.5z"/>
        <path fill="#B0C9CF" d="M3.212 4.809h.5v-.5h-.5z"/>
        <path fill="#B0C9CF" d="M3.212 4.95h.5v-.5h-.5z"/>
        <path fill="#B0C9CF" d="M3.212 5.092h.5v-.5h-.5z"/>
        <path fill="#E5BC9A" d="M3.94 3.596a.25.25 0 1 0-.5 0 .25.25 0 0 0 .5 0"/>
        <path fill="#E5BC9A" d="M3.212 3.012v1.025h.382l.118-1.025h-.5"/>
        <path fill="#0E222B" d="M3.344 3.592a.25.25 0 1 0 .5 0 .25.25 0 0 0-.5 0"/>
        <path fill="#DD4926" d="M3.212 3.545v.5s.362.006.449-.03c.049-.021.06-.07.045-.094-.043-.068-.22-.23-.33-.325-.065-.056-.164-.05-.164-.05"/>
        <path fill="#8BBF37" d="M3.039 4.032s-.231.252-.111.374c.12.121.253.145.382.113.135-.033.144-.386-.271-.487"/>
        <path fill="#8BBF37" d="M3.243 4.039s-.398.152-.446.292c-.047.14.025.185.133.207.108.022.472-.291.313-.499"/>
        <path fill="#542A3A" d="M2.838 2.761l-.065.543s.107.11.19.12c.104.01.208-.03.31-.108v-.483l-.435-.072"/>
        <path fill="#331829" d="M3.54 3.024c.014.057.067.19.129.19.061 0 .04-.31.04-.31l-.497-.07v.5a1.54 1.54 0 0 0 .329-.31"/>
        <path fill="#8BBF37" d="M3.046 4.043c-.182.085-.132.175.015.283.046.032.197.099.368.169v-.5a4.724 4.724 0 0 0-.383.048"/>
        <path fill="#566B1B" d="M3.659 4.052c-.04-.066-.256-.067-.447-.054v.332c.226.077.497.162.497.162s.022-.32-.05-.44"/>
        <path fill="#E0932B" d="M3.898 4.55a.25.25 0 1 1-.5 0 .25.25 0 0 1 .5 0"/>
        <path fill="#E0932B" d="M3.898 4.69a.25.25 0 1 1-.5 0 .25.25 0 0 1 .5 0"/>
        <path fill="#E0932B" d="M3.898 4.83a.25.25 0 1 1-.5 0 .25.25 0 0 1 .5 0"/>
        <path fill="#B22936" d="M3.356 4.28c.138 0 .25-.223.25-.5h-.5c0 .277.112.5.25.5"/>
        <path fill="#EF3133" d="M3.413 3.823c-.123 0-.225.17-.25.396a.385.385 0 0 0 .253.104.38.38 0 0 0 .248-.1c-.024-.228-.127-.4-.25-.4"/>
        <path fill="#E0932B" d="M4.135 7.3h-.43a.645.645 0 0 0-.255 1.237l-.105.426.616-.374h.174a.645.645 0 0 0 0-1.29"/>
        <path fill="#FFF" d="M3.655 8.117h-.108v.178H3.35v-.5h.196v.177h.108v-.177h.196v.5h-.196v-.178"/>
        <path fill="#FFF" d="M3.91 7.999c-.02 0-.035.004-.044.012-.014.013-.02.036-.02.068a.2.2 0 0 0 .01.077.05.05 0 0 0 .022.023c.01.006.02.009.032.009.043 0 .064-.032.064-.095 0-.035-.005-.06-.015-.075-.009-.013-.025-.02-.049-.02zm.007-.166c.057 0 .102.007.134.021.046.02.078.054.094.1.01.029.015.067.015.114 0 .07-.01.122-.03.16a.179.179 0 0 1-.097.088.357.357 0 0 1-.119.017.286.286 0 0 1-.171-.043c-.055-.04-.083-.112-.083-.214 0-.103.028-.172.083-.207a.212.212 0 0 1 .08-.03.645.645 0 0 1 .094-.006z"/>
        <path fill="#FFF" d="M3.963 8.286h.5v-.5h-.5z"/>
        <path fill="#FFF" d="M4.322 8.001c-.04 0-.06.027-.06.08 0 .062.02.093.06.093.02 0 .033-.006.042-.018.01-.014.016-.038.016-.074 0-.032-.005-.053-.015-.065-.01-.01-.024-.016-.043-.016zm.28-.156v.473H4.41c-.013-.023-.025-.029-.038-.016-.02.018-.05.027-.093.027-.063 0-.107-.018-.132-.055a.397.397 0 0 1-.045-.214c0-.046.004-.084.013-.115a.185.185 0 0 1 .038-.075c.026-.028.065-.041.12-.041.05 0 .099.008.146.025.06.015.12.012.183-.009z"/>
        <path fill="#FFF" d="M4.477 8.222c0 .01.005.02.015.03.01.008.023.016.04.023a.443.443 0 0 0 .263 0 .123.123 0 0 0 .04-.024.04.04 0 0 0 .015-.03.04.04 0 0 0-.015-.029.122.122 0 0 0-.04-.023.415.415 0 0 0-.263 0 .132.132 0 0 0-.04.023c-.01.01-.015.02-.015.03zm.338-.099l-.28-.008-.114-.242a.055.055 0 0 1-.005-.02c0-.008.005-.016.017-.024a.126.126 0 0 1 .045-.016c.02-.004.113-.01.282-.017a.359.359 0 0 1 .107.009c.033.011.049.025.049.041a.068.068 0 0 1-.005.023l-.096.254z"/>
        <path fill="#FC611F" d="M2.504 9.607V8.48s-.514-.05-.55.158c-.036.21.069.591.069.591s.006.368.072.37c.065.004.409.007.409.007"/>
        <path fill="#E0CDB8" d="M2.004 9.459a.25.25 0 1 1 .5 0 .25.25 0 0 1-.5 0"/>
        <path fill="#E0CDB8" d="M2.61 8.834v1.276h-.338L2.11 8.834h.5"/>
        <path fill="#FC611F" d="M2.942 9.227v.5s-.362.005-.449-.031c-.049-.02-.06-.07-.045-.093.043-.068.22-.23.33-.325.065-.056.164-.05.164-.05"/>
        <path fill="#23373F" d="M2.171 9.072h.5s.008.486-.23.5c-.238.014-.27-.5-.27-.5"/>
        <path fill="#FC611F" d="M2.759 9.839v-.397s-.112.117-.209.147c-.097.029-.203-.058-.157-.117.045-.06-.211-.001-.11.314.044.138.252.244.476.053"/>
        <path fill="#23373F" d="M2.442 9.573h.5v-.5h-.5z"/>
        <path fill="#FC611F" d="M2.1 9.078c.05-.12.358-.062.423.073v-.5l-.5.063.077.364"/>
        <path fill="#195886" d="M2.02 10.623h.5v-.532h-.343s-.151.204-.157.532"/>
        <path fill="#8BBF37" d="M2.4 10.581h.5v-.5h-.5z"/>
        <path fill="#8BBF37" d="M2.854 10.734h-.5l.15-.5h.35v.5"/>
        <path fill="#DD4926" d="M2.503 9.607V8.48s.514-.05.55.158c.036.21-.069.591-.069.591s-.006.368-.071.37c-.066.004-.41.007-.41.007"/>
        <path fill="#C99C7B" d="M3.294 9.459a.25.25 0 1 0-.5 0 .25.25 0 0 0 .5 0"/>
        <path fill="#C99C7B" d="M2.503 8.834v1.276h.337l.163-1.276h-.5"/>
        <path fill="#DD4926" d="M2.503 9.227v.5s.362.005.45-.031c.048-.02.06-.07.044-.093-.043-.068-.22-.23-.329-.325-.065-.056-.165-.05-.165-.05"/>
        <path fill="#0E222B" d="M3.054 9.072h-.5s-.008.486.23.5c.238.014.27-.5.27-.5"/>
        <path fill="#DD4926" d="M2.518 9.839v-.397s.111.117.208.147c.098.029.203-.058.158-.117-.045-.06.21-.001.11.314-.044.138-.253.244-.476.053"/>
        <path fill="#0E222B" d="M2.503 9.573h.5v-.5h-.5z"/>
        <path fill="#DD4926" d="M2.926 9.078c-.05-.12-.357-.062-.423.073v-.5l.5.063-.077.364"/>
        <path fill="#072230" d="M3.003 10.623h-.5v-.532h.343s.151.204.157.532"/>
        <path fill="#566B1B" d="M2.503 10.581h.5v-.5h-.5z"/>
        <path fill="#566B1B" d="M2.503 10.734h.5l-.15-.5h-.35v.5"/>
        <path fill="#B22936" d="M2.647 10.114c.138 0 .25-.224.25-.5h-.5c0 .276.112.5.25.5"/>
        <path fill="#EF3133" d="M2.705 9.656c-.123 0-.226.17-.25.396a.384.384 0 0 0 .253.104.38.38 0 0 0 .247-.1c-.023-.228-.127-.4-.25-.4"/>
        <path fill="#542A3A" d="M5.531 9.612c-.388 0-.703.256-.703.572 0 .066.014.13.039.189l-.126.493.444-.183c.102.047.22.074.346.074.389 0 .703-.256.703-.573 0-.316-.314-.572-.703-.572"/>
        <path fill="#FFF" d="M5.34 10.19a.076.076 0 0 0-.044.013c-.018.012-.027.036-.027.073 0 .046.008.077.024.094.01.012.027.018.049.018.029 0 .049-.01.06-.033a.168.168 0 0 0 .011-.07c0-.04-.008-.068-.024-.08-.01-.01-.026-.014-.048-.014zm.008-.16c.086 0 .149.019.187.057.038.037.056.097.056.179a.366.366 0 0 1-.021.13.208.208 0 0 1-.061.09c-.036.029-.093.043-.172.043-.07 0-.124-.014-.16-.042a.194.194 0 0 1-.065-.097.395.395 0 0 1-.02-.128c0-.087.021-.148.065-.183.041-.033.105-.05.19-.05z"/>
        <path fill="#FFF" d="M5.42 10.528h.5v-.5h-.5z"/>
        <path fill="#FFF" d="M5.778 10.244c-.04 0-.06.027-.06.08 0 .062.02.092.06.092.019 0 .033-.006.042-.018.01-.013.016-.038.016-.074 0-.031-.005-.053-.015-.064-.01-.011-.024-.016-.043-.016zm.28-.156v.472h-.192c-.013-.023-.026-.028-.038-.016-.02.018-.05.027-.094.027-.062 0-.106-.018-.13-.054a.397.397 0 0 1-.046-.215c0-.046.004-.084.013-.115a.185.185 0 0 1 .038-.075c.025-.027.065-.041.12-.041.05 0 .098.008.146.025.059.015.12.012.183-.008z"/>
        <path fill="#FFF" d="M5.932 10.464c0 .01.005.02.016.03.01.008.023.016.04.023a.432.432 0 0 0 .263 0 .122.122 0 0 0 .04-.024.04.04 0 0 0 .015-.029.04.04 0 0 0-.015-.03.122.122 0 0 0-.04-.023.418.418 0 0 0-.263 0 .133.133 0 0 0-.04.024c-.01.009-.016.018-.016.029zm.338-.099l-.28-.007-.114-.242a.055.055 0 0 1-.005-.02c0-.009.006-.017.018-.025a.127.127 0 0 1 .045-.016c.02-.004.113-.01.282-.017a.359.359 0 0 1 .107.009c.032.011.048.025.048.042a.069.069 0 0 1-.004.022l-.097.254z"/>
        <path fill="#FFF" d="M5.82 10.399a.183.183 0 0 1-.082-.019c-.074-.037-.097-.115-.052-.175l.187-.246c.046-.06.142-.078.216-.041.073.036.096.115.05.174l-.186.246a.168.168 0 0 1-.134.06"/>
        <path fill="#331829" d="M4.493 10.707c-.13-.194-.364-.222-.502-.2v2.022a6.6 6.6 0 0 0 .322-.007c.261-.01.404-1.482.18-1.815"/>
        <path fill="#542A3A" d="M3.991 10.506a.36.36 0 0 0-.19.08c-.114-.027-.321-.031-.434.19-.113.221.01 1.218.072 1.3-.013.194.027.275.113.374.086.1.397.077.397.077l.042.002v-2.023"/>
        <path fill="#EFE0CD" d="M3.51 11.684a.25.25 0 1 1 .5 0 .25.25 0 0 1-.5 0"/>
        <path fill="#EFE0CD" d="M4.126 11.12v1.025h-.29l-.21-1.025h.5"/>
        <path fill="#0E222B" d="M4.32 11.572a.25.25 0 1 1-.5 0 .25.25 0 0 1 .5 0"/>
        <path fill="#FC611F" d="M4.43 11.524v.5s-.362.005-.449-.031c-.049-.02-.06-.07-.045-.094.044-.067.22-.23.33-.324.065-.057.164-.051.164-.051"/>
        <path fill="#195886" d="M3.713 12.147c-.016.143-.03.31-.04.5h.5v-.5h-.46"/>
        <path fill="#F4B651" d="M3.634 12.802h.498v-.569h-.479c-.031.157-.019.569-.019.569"/>
        <path fill="#FFF" d="M3.649 12.599l-.002.071h.5v-.5h-.463c-.018.117-.03.257-.035.429"/>
        <path fill="#E5BC9A" d="M4.735 11.684a.25.25 0 1 0-.5 0 .25.25 0 0 0 .5 0"/>
        <path fill="#E5BC9A" d="M3.991 11.12v1.025h.29l.21-1.025h-.5"/>
        <path fill="#0E222B" d="M4.106 11.572a.25.25 0 1 0 .5 0 .25.25 0 0 0-.5 0"/>
        <path fill="#DD4926" d="M3.991 11.524v.5s.362.005.45-.031c.048-.02.06-.07.044-.094-.043-.067-.22-.23-.328-.324-.067-.057-.166-.051-.166-.051"/>
        <path fill="#E0932B" d="M4.49 12.802H3.99v-.569h.48c.03.157.018.569.018.569"/>
        <path fill="#195886" d="M4.45 12.147c.016.143.03.31.041.5h-.5v-.5h.46"/>
        <path fill="#B0C9CF" d="M4.49 12.599l.001.071h-.5v-.5h.464c.017.117.03.257.034.429"/>
        <path fill="#331829" d="M4.33 10.776c-.073-.062-.204-.092-.339-.098v.73c.151-.123.191-.375.187-.406.09.056.306.246.312.312.005-.248.004-.4-.16-.538"/>
        <path fill="#542A3A" d="M3.67 10.749c-.104.09-.262.19-.122.596 0 0 .408.102.444.063v-.73c-.13-.008-.264.02-.322.071"/>
        <path fill="#B0C9CF" d="M4.491 12.664l-.345-.026-.155-.164v.414l.31.086-.06-.181.25-.129"/>
        <path fill="#FFF" d="M4.234 12.638l-.345.026.25.129-.06.18.31-.085v-.414l-.155.164"/>
        <path fill="#FC611F" d="M3.846 12.094s-.208.07-.357.215c-.149.144-.143.296-.143.296s.221-.064.348-.189a.615.615 0 0 0 .152-.322"/>
        <path fill="#FC611F" d="M3.963 12.095s-.272.1-.378.247c-.106.148.046.27.046.27s.298-.098.387-.225c.09-.127-.055-.292-.055-.292"/>
        <path fill="#FC611F" d="M3.656 12.077a.065.065 0 0 0-.066.065v.37c0 .036.03.065.066.065h.434v-.5h-.434"/>
        <path fill="#DD4926" d="M4.426 12.077c.036 0 .066.03.066.065v.37c0 .036-.03.065-.066.065h-.434v-.5h.434"/>
        <path fill="#B22936" d="M4.136 12.29c.138 0 .25-.224.25-.5h-.5c0 .276.112.5.25.5"/>
        <path fill="#EF3133" d="M4.193 11.832c-.123 0-.225.17-.25.396a.386.386 0 0 0 .253.104.38.38 0 0 0 .247-.1c-.023-.228-.126-.4-.25-.4"/>
        <path fill="#542A3A" d="M1.132 2.374a.78.78 0 1 1 .989.75l-.582.496.035-.544a.78.78 0 0 1-.442-.702"/>
        <path fill="#FFF" d="M1.609 2.54H1.5v.177h-.195v-.5H1.5v.177h.109v-.177h.196v.5h-.196V2.54"/>
        <path fill="#FFF" d="M1.936 2.49a.228.228 0 0 0-.004-.052c-.008-.032-.03-.047-.067-.047-.031 0-.052.013-.063.039a.185.185 0 0 0-.01.06h.144zm.15.115l-.026.124a1.003 1.003 0 0 1-.215.029c-.094 0-.16-.025-.198-.074-.032-.041-.048-.104-.048-.188 0-.093.022-.157.066-.193a.191.191 0 0 1 .09-.039.616.616 0 0 1 .233.012.15.15 0 0 1 .097.097.59.59 0 0 1 .01.193H1.8c0 .019.004.033.013.041.017.017.05.025.097.025a.723.723 0 0 0 .174-.027z"/>
        <path fill="#FFF" d="M1.874 2.709h.5v-.5h-.5z"/>
        <path fill="#FFF" d="M2.013 2.709h.5v-.5h-.5z"/>
        <path fill="#FFF" d="M2.394 2.42c-.02 0-.036.004-.045.012-.013.013-.02.035-.02.068 0 .035.004.06.012.077a.05.05 0 0 0 .02.023c.01.006.022.009.033.009.043 0 .064-.032.064-.095 0-.036-.005-.06-.016-.075-.008-.013-.024-.02-.048-.02zm.007-.166c.057 0 .101.007.133.02.047.021.079.055.095.101.01.029.015.067.015.113 0 .07-.01.123-.03.16a.178.178 0 0 1-.097.089.357.357 0 0 1-.119.017.286.286 0 0 1-.171-.043c-.056-.04-.083-.112-.083-.215 0-.102.027-.17.083-.206a.21.21 0 0 1 .08-.03.641.641 0 0 1 .094-.006z"/>
        <path fill="#FFF" d="M2.49 2.644c0 .011.004.02.014.03.01.009.024.017.041.023a.44.44 0 0 0 .263 0 .121.121 0 0 0 .04-.023c.01-.01.015-.019.015-.03 0-.01-.005-.02-.015-.029a.122.122 0 0 0-.04-.023.414.414 0 0 0-.263 0 .133.133 0 0 0-.04.023c-.01.009-.016.019-.016.03zm.337-.098l-.28-.008-.114-.242a.053.053 0 0 1-.005-.02c0-.009.006-.017.018-.024a.13.13 0 0 1 .045-.017c.02-.004.113-.01.282-.016a.362.362 0 0 1 .107.008c.032.012.048.026.048.042a.067.067 0 0 1-.005.022l-.096.255z"/>
        <path fill="#E0932B" d="M1.905 4.151c0-.313-.26-.408-.514-.411v1.426h.366s.049-.142.069-.167c.02-.025.051-.18.051-.335 0 0 .035-.007.035-.232 0-.126-.007-.079-.007-.281"/>
        <path fill="#072230" d="M1.891 5.892h-.5v-.685h.4s.088.012.1.685"/>
        <path fill="#E5BC9A" d="M2.14 4.57a.25.25 0 1 0-.5 0 .25.25 0 0 0 .5 0"/>
        <path fill="#E5BC9A" d="M1.391 4.007V5.21h.383l.117-1.203h-.5"/>
        <path fill="#0E222B" d="M1.52 4.615a.25.25 0 1 0 .5 0 .25.25 0 0 0-.5 0"/>
        <path fill="#DD4926" d="M1.391 4.493v.5s.362.006.449-.03c.049-.021.06-.07.045-.094-.043-.068-.22-.23-.329-.324-.066-.057-.165-.052-.165-.052"/>
        <path fill="#B0C9CF" d="M1.391 5.7h.5v-.5h-.5z"/>
        <path fill="#E0932B" d="M1.83 3.939l-.439.014v.485c.015.066.037.118.07.13.107.037.312-.003.312-.003l.066-.185.052.035-.06-.476"/>
        <path fill="#F3AC1E" d="M.95 3.83c-.18.112-.115.649-.088.89.027.242.05.27.05.27l.041.019c-.007.054.057.157.057.157h.381V3.74c-.184-.002-.365.044-.44.09"/>
        <path fill="#0C567A" d="M.977 5.892h.5v-.685h-.399s-.089.012-.1.685"/>
        <path fill="#EFE0CD" d="M.863 4.57a.25.25 0 1 1 .5 0 .25.25 0 0 1-.5 0"/>
        <path fill="#EFE0CD" d="M1.494 4.007V5.21h-.382L.994 4.007h.5"/>
        <path fill="#0E222B" d="M1.696 4.615a.25.25 0 1 1-.5 0 .25.25 0 0 1 .5 0"/>
        <path fill="#FC611F" d="M1.823 4.493v.5s-.361.006-.449-.03c-.048-.021-.06-.07-.045-.094.043-.068.22-.23.329-.324.065-.057.165-.052.165-.052"/>
        <path fill="#FFF" d="M1.024 5.7h.5v-.5h-.5z"/>
        <path fill="#F3AC1E" d="M.936 3.97l.074.362.029-.228.08-.036.287-.012s-.003.239.03.397v-.5l-.5.016"/>
        <path fill="#FFF" d="M1.512 5.507H1.13l.31.118-.119.191.31-.118v-.382l-.119.191"/>
        <path fill="#B0C9CF" d="M1.7 5.816l-.118-.191.31-.118h-.383l-.118-.191v.382l.31.118"/>
        <path fill="#B22936" d="M1.535 5.382c.138 0 .25-.224.25-.5h-.5c0 .276.112.5.25.5"/>
        <path fill="#EF3133" d="M1.592 4.925c-.123 0-.225.17-.25.396a.385.385 0 0 0 .253.104c.09 0 .173-.037.248-.1-.024-.229-.127-.4-.25-.4"/>
        <path fill="#542A3A" d="M6.822 5.863a.53.53 0 0 0-.53-.53H5.94a.53.53 0 0 0 0 1.059h.352l.036-.001.316.24-.053-.331a.529.529 0 0 0 .23-.437"/>
        <path fill="#FFF" d="M6.1 6.034h-.108v.178h-.196v-.5h.196v.177H6.1v-.177h.196v.5H6.1v-.178"/>
        <path fill="#FFF" d="M6.144 6.14h.5v-.342h-.5v.341zm0-.43c0-.01.007-.02.02-.028a.199.199 0 0 1 .054-.022.802.802 0 0 1 .353 0c.023.006.04.014.054.022.013.009.02.018.02.028 0 .01-.007.019-.02.027a.195.195 0 0 1-.054.023.807.807 0 0 1-.353 0 .197.197 0 0 1-.054-.023c-.013-.008-.02-.018-.02-.027z"/>
        <path fill="#FFF" d="M6.358 6.139c0 .01.005.02.015.03.01.008.024.016.04.023a.439.439 0 0 0 .263 0 .122.122 0 0 0 .04-.024c.01-.009.015-.019.015-.03 0-.01-.005-.02-.014-.029a.122.122 0 0 0-.04-.023.413.413 0 0 0-.263 0 .135.135 0 0 0-.041.023c-.01.01-.015.02-.015.03zm.338-.099l-.28-.008-.114-.241a.056.056 0 0 1-.005-.02c0-.01.006-.017.017-.025a.13.13 0 0 1 .045-.016c.02-.004.114-.01.282-.017a.362.362 0 0 1 .108.009c.032.011.048.025.048.041a.067.067 0 0 1-.005.023l-.096.254z"/>
        <path fill="#23373F" d="M7.37 5.916c-.098-.005-.31.005-.348.212-.065.011-.25.07-.125.288-.076.044-.13.136-.049.256-.06.076 0 .256.147.245-.01.078.212.173.596.169V5.869c-.056-.03-.186-.057-.22.047"/>
        <path fill="#0E222B" d="M8.11 6.977c.13.005.228-.044.182-.204.038-.036.114-.09.104-.18-.011-.09-.066-.147-.142-.144.057-.022.083-.084.065-.16-.027-.12-.122-.117-.13-.12-.008-.003-.027-.006-.008-.003.035-.103-.128-.253-.264-.223-.025-.114-.133-.12-.193-.12s-.12.055-.12.055a.124.124 0 0 0-.013-.009v1.217c.044 0 .09-.003.138-.006.136-.01.338-.049.381-.103"/>
        <path fill="#9B7A64" d="M7.13 6.96a.25.25 0 1 1 .5 0 .25.25 0 0 1-.5 0"/>
        <path fill="#9B7A64" d="M7.731 6.313v1.09h-.36l-.14-1.09h.5"/>
        <path fill="#0E222B" d="M7.914 6.888a.25.25 0 1 1-.5 0 .25.25 0 0 1 .5 0"/>
        <path fill="#FC611F" d="M8.016 6.814v.5s-.362.005-.449-.031c-.049-.02-.06-.07-.045-.094.043-.067.22-.23.329-.324.065-.057.165-.051.165-.051"/>
        <path fill="#8BBF37" d="M7.14 8.041h.5v-.644h-.38s-.12.1-.12.644"/>
        <path fill="#23373F" d="M7.77 7.897v-.5h-.5s.089.492.5.5"/>
        <path fill="#23373F" d="M7.474 8.027h.5v-.5h-.5z"/>
        <path fill="#23373F" d="M7.433 7.99a.25.25 0 1 1 .5 0 .25.25 0 0 1-.5 0"/>
        <path fill="#684D3A" d="M8.333 6.96a.25.25 0 1 0-.5 0 .25.25 0 0 0 .5 0"/>
        <path fill="#684D3A" d="M7.59 6.313v1.09h.36l.14-1.09h-.5"/>
        <path fill="#0E222B" d="M7.707 6.888a.25.25 0 1 0 .5 0 .25.25 0 0 0-.5 0"/>
        <path fill="#DD4926" d="M7.59 6.814v.5s.362.005.45-.031c.048-.02.06-.07.045-.094-.044-.067-.22-.23-.33-.324-.065-.057-.164-.051-.164-.051"/>
        <path fill="#566B1B" d="M8.09 8.041h-.5v-.644h.38s.12.1.12.644"/>
        <path fill="#0E222B" d="M7.59 7.897v-.5h.5s-.088.492-.5.5"/>
        <path fill="#0E222B" d="M7.67 8.027h.5v-.5h-.5z"/>
        <path fill="#0E222B" d="M8.129 8.041a.25.25 0 1 0-.5 0 .25.25 0 0 0 .5 0"/>
        <path fill="#23373F" d="M7.202 6.163c-.256.166-.259.534-.022.539l.01-.185a.367.367 0 0 0 .4.033V6.1a.567.567 0 0 0-.388.063"/>
        <path fill="#0E222B" d="M7.702 6.452c.025-.022.18-.017.204.043.025.06.033.127.027.17-.005.044.097.082.135.008.038-.073.053-.287-.067-.404-.068-.066-.233-.144-.41-.17v.45a.327.327 0 0 0 .111-.097"/>
        <path fill="#B22936" d="M7.723 7.58c.138 0 .25-.223.25-.5h-.5c0 .277.112.5.25.5"/>
        <path fill="#EF3133" d="M7.786 7.128c-.123 0-.225.17-.25.396a.384.384 0 0 0 .253.104c.09 0 .173-.037.248-.1-.024-.229-.127-.4-.25-.4"/>
        <path fill="#EE3824" d="M7.182 2.773a.53.53 0 0 0-.529-.529h-.352a.53.53 0 0 0 0 1.059h.352c.012 0 .024 0 .036-.002l.316.24-.053-.33a.528.528 0 0 0 .23-.438"/>
        <path fill="#FFF" d="M6.298 2.973H6.19v.178h-.196v-.5h.196v.176h.108v-.176h.196v.5h-.196v-.178"/>
        <path fill="#FFF" d="M6.448 2.849c-.04 0-.06.027-.06.08 0 .062.02.093.059.093.02 0 .033-.006.042-.019.01-.013.016-.038.016-.074 0-.031-.005-.053-.015-.064-.01-.01-.023-.016-.042-.016zm.28-.156v.472h-.193c-.013-.023-.025-.028-.037-.016-.02.018-.051.027-.094.027-.063 0-.106-.018-.131-.054a.397.397 0 0 1-.046-.215.44.44 0 0 1 .013-.114.184.184 0 0 1 .039-.076c.025-.027.064-.04.119-.04.05 0 .099.008.146.024.06.015.12.012.183-.008z"/>
        <path fill="#FFF" d="M6.466 3.144h.5v-.5h-.5z"/>
        <path fill="#FFF" d="M6.576 3.144h.5v-.5h-.5z"/>
        <path fill="#FFF" d="M6.93 2.845c-.021 0-.036.004-.045.013-.013.013-.02.035-.02.067a.2.2 0 0 0 .011.078.05.05 0 0 0 .021.023c.01.005.021.008.032.008.043 0 .064-.031.064-.095 0-.035-.005-.06-.015-.075-.009-.012-.025-.019-.049-.019zm.006-.166c.057 0 .102.007.134.021.046.021.078.055.094.1.01.03.015.067.015.114 0 .07-.01.123-.03.16a.179.179 0 0 1-.097.088.359.359 0 0 1-.119.017.287.287 0 0 1-.171-.043c-.055-.04-.083-.112-.083-.214s.028-.171.083-.207a.213.213 0 0 1 .08-.03.64.64 0 0 1 .094-.006z"/>
        <path fill="#FFF" d="M6.964 3.077c0 .01.006.02.016.03.01.009.024.017.04.023a.44.44 0 0 0 .263 0 .123.123 0 0 0 .04-.023.04.04 0 0 0 .015-.03.04.04 0 0 0-.014-.03.123.123 0 0 0-.04-.023.409.409 0 0 0-.263 0 .131.131 0 0 0-.041.024c-.01.009-.016.019-.016.03zm.339-.098l-.28-.008-.114-.242a.055.055 0 0 1-.005-.02c0-.009.006-.017.017-.024a.13.13 0 0 1 .045-.017c.02-.004.113-.01.282-.016a.361.361 0 0 1 .108.008c.032.012.048.026.048.042a.068.068 0 0 1-.005.022l-.096.255z"/>
        <path fill="#EFE0CD" d="M7.389 4.136a.25.25 0 1 1 .5 0 .25.25 0 0 1-.5 0"/>
        <path fill="#EFE0CD" d="M8.022 3.573v1.114h-.346l-.154-1.114h.5"/>
        <path fill="#0E222B" d="M8.209 4.155a.25.25 0 1 1-.5 0 .25.25 0 0 1 .5 0"/>
        <path fill="#FC611F" d="M8.334 4.068v.5s-.361.006-.448-.03c-.05-.02-.06-.07-.046-.094.043-.068.22-.23.33-.324.065-.057.164-.052.164-.052"/>
        <path fill="#8BBF37" d="M7.46 5.229h.491v-.543h-.458s-.064.39-.033.543"/>
        <path fill="#FFF" d="M8.026 5.186v-.5h-.5l.5.5"/>
        <path fill="#542A3A" d="M7.505 5.226h.5V4.68h-.5z"/>
        <path fill="#F4B651" d="M8.202 5.06l-.5.077v-.5l.5.076v.347"/>
        <path fill="#E5BC9A" d="M8.63 4.136a.25.25 0 1 0-.5 0 .25.25 0 0 0 .5 0"/>
        <path fill="#E5BC9A" d="M7.89 3.573v1.114h.346l.153-1.114h-.5"/>
        <path fill="#0E222B" d="M8.008 4.155a.25.25 0 1 0 .5 0 .25.25 0 0 0-.5 0"/>
        <path fill="#DD4926" d="M7.89 4.068v.5s.361.006.448-.03c.049-.02.06-.07.045-.094-.043-.068-.22-.23-.329-.324-.066-.057-.165-.052-.165-.052"/>
        <path fill="#566B1B" d="M8.381 5.229H7.89v-.543h.459s.063.39.033.543"/>
        <path fill="#B0C9CF" d="M7.89 5.186v-.5h.5l-.5.5"/>
        <path fill="#331829" d="M8.174 5.226h.5V4.68h-.5z"/>
        <path fill="#E0932B" d="M7.89 5.06l.5.077v-.5l-.5.076v.347"/>
        <path fill="#542A3A" d="M7.538 2.966c-.097-.132-.074.182-.074.182s-.102.073-.181.04c0 0 .05.481.146.605.088.112.32.148.46.06v-.768c-.143-.032-.284-.027-.351-.119"/>
        <path fill="#331829" d="M8.173 3.649s.065-.018.065.064-.007.132-.007.132h.1s.094-.274.044-.422c-.03-.085-.059-.14-.277-.266a.66.66 0 0 0-.209-.072v.769a.287.287 0 0 0 .045-.03c.157-.125.239-.175.239-.175"/>
        <path fill="#B22936" d="M8.027 4.834c.138 0 .25-.224.25-.5h-.5c0 .276.112.5.25.5"/>
        <path fill="#EF3133" d="M8.088 4.379c-.123 0-.226.17-.25.396a.386.386 0 0 0 .252.104.38.38 0 0 0 .248-.1c-.023-.229-.127-.4-.25-.4"/>
        <path fill="#542A3A" d="M11.37 1.66a.75.75 0 0 0-.52 1.288l-.038.326.294-.163a.75.75 0 1 0 .263-1.45"/>
        <path fill="#FFF" d="M11.307 2.288v.163a.605.605 0 0 0-.14-.016.212.212 0 0 0-.095.016c-.022.011-.032.034-.032.067 0 .028.008.049.023.062.02.016.054.025.102.025a.937.937 0 0 0 .142-.015v.14a.432.432 0 0 1-.084.02.953.953 0 0 1-.117.007.51.51 0 0 1-.163-.02c-.09-.033-.136-.11-.136-.233 0-.09.023-.155.069-.191.045-.038.118-.056.216-.056a.753.753 0 0 1 .215.031"/>
        <path fill="#FFF" d="M11.087 2.69h.5v-.34h-.5v.34zm0-.43c0-.01.006-.018.02-.027a.203.203 0 0 1 .053-.022.81.81 0 0 1 .353 0c.023.006.041.014.054.022.013.009.02.018.02.028 0 .01-.007.018-.02.027a.202.202 0 0 1-.053.022.79.79 0 0 1-.353 0 .2.2 0 0 1-.055-.022c-.013-.009-.02-.018-.02-.027z"/>
        <path fill="#FFF" d="M11.444 2.463c-.04 0-.06.027-.06.08 0 .062.02.093.059.093.02 0 .034-.006.042-.018.011-.014.016-.038.016-.074 0-.032-.005-.053-.015-.065-.01-.01-.023-.016-.042-.016zm.28-.156v.473h-.193c-.012-.024-.025-.029-.037-.016-.02.018-.051.027-.094.027-.062 0-.106-.019-.131-.055a.397.397 0 0 1-.046-.214c0-.046.005-.084.013-.115a.184.184 0 0 1 .039-.075c.025-.028.065-.041.119-.041.05 0 .099.008.147.025.058.015.12.012.182-.009z"/>
        <path fill="#FFF" d="M11.783 2.46c-.021 0-.036.005-.045.013-.013.013-.02.035-.02.068 0 .035.004.06.011.077a.05.05 0 0 0 .021.023c.01.006.021.009.033.009.042 0 .063-.032.063-.095 0-.036-.005-.06-.015-.075-.009-.013-.025-.02-.048-.02zm.006-.166c.057 0 .102.008.134.022.046.02.078.054.094.1a.35.35 0 0 1 .015.113c0 .07-.01.123-.03.16a.179.179 0 0 1-.097.089.358.358 0 0 1-.118.016.286.286 0 0 1-.172-.042c-.055-.04-.083-.112-.083-.215 0-.102.028-.17.083-.206a.214.214 0 0 1 .081-.03.646.646 0 0 1 .093-.007z"/>
        <path fill="#FFF" d="M11.892 2.684c0 .01.005.02.015.029.01.009.024.017.041.023a.441.441 0 0 0 .263 0 .122.122 0 0 0 .04-.023.04.04 0 0 0 .015-.03.04.04 0 0 0-.015-.029.121.121 0 0 0-.04-.023.419.419 0 0 0-.263 0 .132.132 0 0 0-.04.023c-.01.01-.016.019-.016.03zm.338-.099l-.28-.008-.114-.242a.054.054 0 0 1-.005-.02c0-.008.006-.017.018-.024a.128.128 0 0 1 .045-.017c.019-.004.113-.009.282-.016a.36.36 0 0 1 .107.009c.032.011.048.025.048.041a.07.07 0 0 1-.005.023l-.096.254z"/>
        <path fill="#F5F5F5" d="M10.006 4.823c.07.054.081.151.024.217l-.169.192a.175.175 0 0 1-.233.022.147.147 0 0 1-.024-.218l.168-.19a.174.174 0 0 1 .234-.023"/>
        <path fill="#23373F" d="M9.59 3.308c-.114.016-.203.13-.122.275-.08.072-.073.298.024.387.093.085.14.176.6.178V3.046c-.13-.087-.503-.024-.503.262"/>
        <path fill="#0E222B" d="M10.638 4.026c.056-.088.04-.177.04-.177.08-.04.121-.097.113-.186-.008-.088-.048-.145-.113-.161.024-.08-.06-.266-.173-.315-.12-.051-.15-.024-.15-.024.046-.145-.228-.188-.258-.113a.23.23 0 0 0-.005-.004v1.102h.07s.42-.033.476-.122"/>
        <path fill="#3E8A3A" d="M9.743 5.129h.494v-.56h-.409s-.12.338-.085.56"/>
        <path fill="#EFE0CD" d="M9.62 3.993a.25.25 0 1 1 .5 0 .25.25 0 0 1-.5 0"/>
        <path fill="#EFE0CD" d="M10.237 3.464v1.077h-.383l-.117-1.077h.5"/>
        <path fill="#0E222B" d="M10.385 3.943a.25.25 0 1 1-.5 0 .25.25 0 0 1 .5 0"/>
        <path fill="#FC611F" d="M10.534 3.875v.5s-.361.005-.448-.031c-.049-.02-.06-.07-.045-.093.043-.068.22-.231.329-.325.065-.056.164-.051.164-.051"/>
        <path fill="#23373F" d="M10.092 3.692v-.325h-.531l.016.5.135-.005s-.07-.135-.066-.223c.004-.087.052-.107.12-.105.067.002.279-.063.326.158"/>
        <path fill="#FC611F" d="M9.985 4.521s-.208.068-.357.21c-.15.142-.143.29-.143.29s.22-.063.348-.185c.127-.122.152-.315.152-.315"/>
        <path fill="#FC611F" d="M10.09 4.521s-.272.097-.378.24c-.106.143.045.26.045.26s.299-.094.388-.217c.09-.123-.055-.283-.055-.283"/>
        <path fill="#FC611F" d="M9.78 4.505a.065.065 0 0 0-.066.065v.37c0 .036.03.065.066.065h.434v-.5H9.78"/>
        <path fill="#F5F5F5" d="M10.377 4.793c0 .138-.062.25-.14.25h-.221c-.077 0-.14-.112-.14-.25s.063-.25.14-.25h.222c.077 0 .139.112.139.25"/>
        <path fill="#F5F5F5" d="M10.472 4.908c0 .138-.062.25-.138.25h-.223c-.076 0-.139-.112-.139-.25s.063-.25.14-.25h.222c.076 0 .138.112.138.25"/>
        <path fill="#F5F5F5" d="M10.327 4.967c0 .137-.062.25-.139.25h-.222c-.077 0-.139-.113-.139-.25 0-.139.062-.25.139-.25h.222c.077 0 .14.111.14.25"/>
        <path fill="#F5F5F5" d="M10.146 4.845c.07.054.081.15.023.217l-.168.191a.174.174 0 0 1-.233.022.147.147 0 0 1-.024-.217l.168-.192a.175.175 0 0 1 .234-.021"/>
        <path fill="#F5F5F5" d="M10.113 4.69a.147.147 0 0 1 .023.217l-.168.192a.175.175 0 0 1-.234.022.147.147 0 0 1-.023-.218l.168-.191a.174.174 0 0 1 .234-.022"/>
        <path fill="#0F4F2C" d="M10.586 5.129h-.494v-.56h.409s.119.338.085.56"/>
        <path fill="#E5BC9A" d="M10.814 3.993a.25.25 0 1 0-.5 0 .25.25 0 0 0 .5 0"/>
        <path fill="#E5BC9A" d="M10.092 3.464v1.077h.382l.118-1.077h-.5"/>
        <path fill="#0E222B" d="M10.24 3.943a.25.25 0 1 0 .5 0 .25.25 0 0 0-.5 0"/>
        <path fill="#DD4926" d="M10.092 3.875v.5s.362.005.449-.031c.049-.02.06-.07.045-.093-.043-.068-.22-.231-.33-.325-.065-.056-.164-.051-.164-.051"/>
        <path fill="#0E222B" d="M10.092 3.692v-.325h.531l-.016.5-.134-.005s.07-.135.066-.223c-.005-.087-.053-.107-.12-.105-.067.002-.28-.063-.327.158"/>
        <path fill="#DD4926" d="M10.526 4.505c.037 0 .066.029.066.065v.37c0 .036-.03.065-.066.065h-.434v-.5h.434"/>
        <path fill="#B0C9CF" d="M10.235 4.793c0 .138.062.25.139.25h.222c.077 0 .139-.112.139-.25s-.062-.25-.14-.25h-.221c-.077 0-.14.112-.14.25"/>
        <path fill="#B0C9CF" d="M10.14 4.908c0 .138.062.25.138.25h.223c.076 0 .138-.112.138-.25s-.062-.25-.138-.25h-.223c-.076 0-.139.112-.139.25"/>
        <path fill="#B0C9CF" d="M10.285 4.967c0 .137.061.25.138.25h.222c.077 0 .14-.113.14-.25 0-.139-.063-.25-.14-.25h-.222c-.077 0-.138.111-.138.25"/>
        <path fill="#23373F" d="M10.551 4.863c-.275 0-.499.112-.499.25 0 .139.224.25.499.25h.001v-.5h-.001"/>
        <path fill="#0E222B" d="M10.592 5.114c0-.139-.224-.25-.5-.25v.5c.276 0 .5-.113.5-.25"/>
        <path fill="#23373F" d="M10.551 4.986c-.275 0-.499.112-.499.25s.224.25.499.25h.001v-.5h-.001"/>
        <path fill="#0E222B" d="M10.592 5.236c0-.137-.224-.25-.5-.25v.5c.276 0 .5-.112.5-.25"/>
        <path fill="#B22936" d="M10.236 4.669c.138 0 .25-.224.25-.5h-.5c0 .276.112.5.25.5"/>
        <path fill="#EF3133" d="M10.293 4.211c-.123 0-.225.17-.25.396a.384.384 0 0 0 .253.104c.09 0 .173-.036.247-.1-.023-.228-.126-.4-.25-.4"/>
        <path fill="#E0932B" d="M12.762 3.373h-.394a.592.592 0 0 0-.334 1.08l-.06.37.355-.268.04.001h.393a.592.592 0 0 0 0-1.183"/>
        <path fill="#FFF" d="M11.958 3.762l.054-.075s0 .41.038.42c.039.01.197 0 .197 0s.003-.107-.022-.113c-.026-.007-.032-.058.001-.071.034-.013.057.063.052.188h.232s-.066-.115-.156-.107c-.04.003-.008-.081.033-.075.041.007.2.182.2.182h.035v.076h-.572s-.035-.013-.05-.074c-.016-.061-.016-.329-.016-.329l-.026-.022"/>
        <path fill="#FFF" d="M12.161 4.395a.25.25 0 1 1 .5 0 .25.25 0 0 1-.5 0"/>
        <path fill="#FFF" d="M13.188 4.082c-.05-.01-.077-.028-.095-.062-.019-.035.023-.049.063-.032s.032.094.032.094zm-.043-.173c-.021-.017-.061.003-.078.076-.018.074-.096.123-.12.094-.022-.028-.001-.125-.037-.159-.037-.034-.043.017-.039.065.004.049.033.097.046.16.014.062-.101.176-.165.181-.063.006-.107-.02-.107-.02.014.04.052.103.142.097.09-.006.157-.196.167-.233.036.026.097-.048.116-.068.02-.02.08.08.115.051.035-.028-.019-.227-.04-.244z"/>
        <path fill="#542A3A" d="M11.315 5.329V4.063s-.27.034-.407.168c-.068.066-.106.147-.102.393.005.246.026.613.026.613l.483.092"/>
        <path fill="#E0CDB8" d="M10.827 4.957a.25.25 0 1 1 .5 0 .25.25 0 0 1-.5 0"/>
        <path fill="#E0CDB8" d="M11.431 4.42v1.206h-.382l-.118-1.205h.5"/>
        <path fill="#0E222B" d="M11.618 4.87a.25.25 0 1 1-.5.002.25.25 0 0 1 .5-.001"/>
        <path fill="#FC611F" d="M11.726 4.804v.5s-.361.005-.448-.031c-.05-.02-.06-.07-.046-.094.044-.067.22-.23.33-.324.065-.057.164-.051.164-.051"/>
        <path fill="#542A3A" d="M11.602 5.516v-.593s-.475-.026-.486.11c-.01.134-.06.354.113.415.173.06.373.068.373.068"/>
        <path fill="#2EAEB7" d="M11.398 6.108l-.177-.012.177.012"/>
        <path fill="#8BBF37" d="M11.236 6.097h-.007.007M11.338 5.705l-.014-.003a8.635 8.635 0 0 1-.46-.103c-.007.068-.02.27-.026.4.124.054.26.088.402.099h.008l.09-.006v-.387"/>
        <path fill="#542A3A" d="M11.424 6.01v-.275a4.948 4.948 0 0 1-.115-.05c-.22-.098-.346-.173-.349-.174l-.035.26c.002.001-.014-.002.03.021a8.861 8.861 0 0 0 .469.219"/>
        <path fill="#542A3A" d="M11.448 6.12a9.65 9.65 0 0 1-.478-.476c.115.125.295.314.478.476"/>
        <path fill="#EFE0CD" d="M11.337 5.11c-.064 0-.116.112-.116.25s.052.25.116.25h.384v-.5h-.384"/>
        <path fill="#542A3A" d="M11.363 4.444l-.31.423-.19-.5.5.077"/>
        <path fill="#331829" d="M11.315 5.329V4.063s.27.034.406.168c.068.066.106.147.102.393-.004.246-.026.613-.026.613l-.482.092"/>
        <path fill="#C99C7B" d="M12.106 4.957a.25.25 0 1 0-.5 0 .25.25 0 0 0 .5 0"/>
        <path fill="#C99C7B" d="M11.315 4.42v1.206h.382l.118-1.205h-.5"/>
        <path fill="#0E222B" d="M11.447 4.87a.25.25 0 1 0 .5.001.25.25 0 0 0-.5 0"/>
        <path fill="#DD4926" d="M11.315 4.804v.5s.361.005.448-.031c.05-.02.06-.07.045-.094-.043-.067-.22-.23-.329-.324-.065-.057-.164-.051-.164-.051"/>
        <path fill="#331829" d="M11.313 5.516v-.593s.475-.026.486.11c.01.134.06.354-.113.415-.173.06-.373.068-.373.068"/>
        <path fill="#2EAEB7" d="M11.577 6.096c-.058.003-.121.01-.177.012l.177-.012"/>
        <path fill="#7DAF2E" d="M11.4 6.097h.006-.006"/>
        <path fill="#566B1B" d="M11.67 5.627a8.898 8.898 0 0 1-.355.078v.387l.089.007.009-.001c.142-.01.277-.045.402-.099a8.408 8.408 0 0 0-.027-.4l-.119.028"/>
        <path fill="#331829" d="M11.762 5.803c.068-.035.049-.03.05-.031l-.035-.261c-.003.001-.128.076-.348.174a4.947 4.947 0 0 1-.116.05v.276l.094-.04c.108-.048.237-.11.34-.16l.015-.008M11.387 6.127"/>
        <path fill="#E5BC9A" d="M11.697 5.11c.064 0 .116.112.116.25s-.052.25-.116.25h-.384v-.5h.384"/>
        <path fill="#331829" d="M11.551 4.444l.31.423.19-.5-.5.077"/>
        <path fill="#542A3A" d="M11.147 5.834v.478c.163.014.33.022.5.022v-.5h-.5"/>
        <path fill="#331829" d="M11.315 5.834v.5c.17 0 .336-.008.5-.022v-.478h-.5"/>
        <path fill="#B22936" d="M11.46 5.609c.139 0 .25-.224.25-.5h-.5c0 .276.113.5.25.5"/>
        <path fill="#EF3133" d="M11.516 5.15c-.123 0-.225.17-.25.395a.383.383 0 0 0 .253.105c.09 0 .173-.037.247-.1-.023-.229-.126-.4-.25-.4"/>
        <path fill="#F2622F" d="M13.1.562c0-.302-.272-.547-.608-.547h-.631c-.336 0-.608.245-.608.547 0 .302.272.546.608.546h.208l.574.306-.105-.307c.314-.021.562-.257.562-.545"/>
        <path fill="#FFF" d="M11.97.948h-.08V.5h-.34v.447h-.08v-.5h.5v.5"/>
        <path stroke="#FFF" stroke-width=".75" d="M11.97.948h-.08V.5h-.34v.447h-.08v-.5h.5z"/>
        <path fill="#FFF" d="M11.815.5v.207h.094c.078 0 .132-.01.165-.03.032-.02.048-.045.048-.078 0-.032-.016-.057-.047-.074a.337.337 0 0 0-.15-.025h-.11zm0 .259v.189h-.095v-.5h.211c.099 0 .172.013.219.04.047.027.07.064.07.11 0 .047-.025.086-.077.116a.432.432 0 0 1-.216.045h-.112z"/>
        <path stroke="#FFF" stroke-width=".75" d="M11.815.5v.207h.094c.078 0 .132-.01.165-.03.032-.02.048-.045.048-.078 0-.032-.016-.057-.047-.074a.337.337 0 0 0-.15-.025h-.11zm0 .259v.189h-.095v-.5h.211c.099 0 .172.013.219.04.047.027.07.064.07.11 0 .047-.025.086-.077.116a.432.432 0 0 1-.216.045h-.112z"/>
        <path fill="#FFF" d="M12.421.948h-.081V.535l-.336.413h-.083v-.5h.082V.85l.327-.402h.091v.5"/>
        <path stroke="#FFF" stroke-width=".75" d="M12.421.948h-.081V.535l-.336.413h-.083v-.5h.082V.85l.327-.402h.091z"/>
        <path fill="#FFF" d="M12.252.703v.192h.12c.086 0 .142-.009.17-.026a.08.08 0 0 0 .04-.071.083.083 0 0 0-.015-.05.1.1 0 0 0-.047-.033.428.428 0 0 0-.125-.012h-.143zm0-.203v.152h.12a.254.254 0 0 0 .121-.02.07.07 0 0 0 .035-.065c0-.02-.01-.036-.028-.049C12.482.506 12.435.5 12.361.5h-.11zm-.083.448v-.5h.198l.077.001c.021 0 .043.004.065.009a.184.184 0 0 1 .058.022c.016.01.028.021.036.034a.089.089 0 0 1 .011.046c0 .044-.03.078-.09.102v.003c.046.007.081.022.107.044.025.023.038.051.038.085 0 .047-.023.085-.069.112a.384.384 0 0 1-.196.042h-.235z"/>
        <path stroke="#FFF" stroke-width=".75" d="M12.252.703v.192h.12c.086 0 .142-.009.17-.026a.08.08 0 0 0 .04-.071.083.083 0 0 0-.015-.05.1.1 0 0 0-.047-.033.428.428 0 0 0-.125-.012h-.143zm0-.203v.152h.12a.254.254 0 0 0 .121-.02.07.07 0 0 0 .035-.065c0-.02-.01-.036-.028-.049C12.482.506 12.435.5 12.361.5h-.11zm-.083.448v-.5h.198l.077.001c.021 0 .043.004.065.009a.184.184 0 0 1 .058.022c.016.01.028.021.036.034a.089.089 0 0 1 .011.046c0 .044-.03.078-.09.102v.003c.046.007.081.022.107.044.025.023.038.051.038.085 0 .047-.023.085-.069.112a.384.384 0 0 1-.196.042h-.235z"/>
        <path fill="#FFF" d="M12.896.948h-.5v-.5h.5V.5h-.406v.146h.395v.054h-.395v.193h.406v.054"/>
        <path stroke="#FFF" stroke-width=".75" d="M12.896.948h-.5v-.5h.5V.5h-.406v.146h.395v.054h-.395v.193h.406z"/>
        <path fill="#FFF" d="M12.815.948V.5h-.213V.448h.5V.5h-.213v.447h-.074"/>
        <path stroke="#FFF" stroke-width=".75" d="M12.815.948V.5h-.213V.448h.5V.5h-.213v.447z"/>
        <path fill="#FFF" d="M12.869.978h.48v-.1h-.48v.1zm.49-.53l-.064.364h-.367L12.86.448h.5z"/>
        <path stroke="#FFF" stroke-width=".75" d="M12.869.978h.48v-.1h-.48v.1zm.49-.53l-.064.364h-.367L12.86.448h.5z"/>
        <path fill="#195886" d="M13.06 2.723h.333v.59h-.5c0-.128.068-.545.166-.59"/>
        <path fill="#F3AC1E" d="M13.318 2.708V1.13s-.215-.04-.273.092c-.081 0-.28.045-.294.26-.063.026-.089.144-.06.204-.053.042-.105.194.034.297.139.102.105.06.105.06.005.05.02.102.06.126.01.058-.14.443-.036.524.105.082.464.014.464.014"/>
        <path fill="#EFE0CD" d="M12.912 2.238a.25.25 0 1 1 .5 0 .25.25 0 0 1-.5 0"/>
        <path fill="#EFE0CD" d="M13.456 1.583v1.05h-.225l-.275-1.05h.5"/>
        <path fill="#0E222B" d="M13.638 2.15a.25.25 0 1 1-.5 0 .25.25 0 0 1 .5 0"/>
        <path fill="#FC611F" d="M13.764 2.05v.499s-.361.005-.449-.03c-.048-.021-.06-.071-.044-.094.042-.068.22-.23.329-.324.065-.057.164-.052.164-.052"/>
        <path fill="#072230" d="M13.651 2.723h-.333v.59h.5c0-.128-.068-.545-.167-.59"/>
        <path fill="#E0932B" d="M13.318 2.708V1.13s.215-.04.272.092c.082 0 .281.045.294.26.063.026.09.144.06.204.053.042.106.194-.034.297-.139.102-.104.06-.104.06-.006.05-.021.102-.06.126-.011.058.14.443.035.524-.104.082-.463.014-.463.014"/>
        <path fill="#E5BC9A" d="M14.035 2.238a.25.25 0 1 0-.5 0 .25.25 0 0 0 .5 0"/>
        <path fill="#E5BC9A" d="M13.318 1.583v1.05h.224l.276-1.05h-.5"/>
        <path fill="#0E222B" d="M13.44 2.15a.25.25 0 1 0 .5 0 .25.25 0 0 0-.5 0"/>
        <path fill="#DD4926" d="M13.318 2.05v.499s.361.005.448-.03c.05-.021.06-.071.046-.094-.044-.068-.22-.23-.33-.324-.065-.057-.164-.052-.164-.052"/>
        <path fill="#B0C9CF" d="M13.818 3.123s-.051-.323-.12-.434c-.03-.05-.2-.064-.38-.066v.479c.247.026.5.02.5.02"/>
        <path fill="#FFF" d="M12.982 2.643s-.079.116.018.318c.044.093.246.14.452.162v-.5c-.227-.001-.47.02-.47.02"/>
        <path fill="#E0932B" d="M13.318 1.44v.376c.083-.05.153-.095.189-.126.04-.008.091.024.1.063.01.04.018.139.105.186.032-.075.106-.233.106-.233s.023-.213-.5-.267"/>
        <path fill="#F3AC1E" d="M13.295 1.437c-.068-.007-.642-.112-.481.47.008.03.317.036.504-.093V1.44l-.023-.002"/>
        <path fill="#072230" d="M13.817 1.757a.638.638 0 0 0-.09-.222.463.463 0 0 0-.41-.218v.096h.006c.357 0 .42.35.423.365.003.023.018.038.035.038h.008c.02-.007.032-.032.028-.059"/>
        <path fill="#195886" d="M13.4 1.317h-.004a.463.463 0 0 0-.404.218.642.642 0 0 0-.09.222c-.005.027.008.052.027.058l.008.001c.017 0 .032-.015.036-.038.003-.015.066-.364.423-.364h.005v-.097"/>
        <path fill="#B22936" d="M13.476 2.797c.138 0 .25-.223.25-.5h-.5c0 .277.112.5.25.5"/>
        <path fill="#EF3133" d="M13.526 2.334c-.123 0-.226.17-.25.396a.385.385 0 0 0 .252.104.38.38 0 0 0 .248-.1c-.023-.229-.127-.4-.25-.4"/>
        <path fill="#EE3824" d="M14.572 3.766h-.536a.516.516 0 0 0-.283.949L13.708 5l.327-.2h.537a.516.516 0 1 0 0-1.034"/>
        <path fill="#FFF" d="M14.26 4.339h-.121l.001-.115.12-.001v.116zm-.11.065c0 .013-.003.053-.016.066-.002.001-.008.006-.024.005-.038-.002-.059-.042-.059-.07 0-.016.025-.026.034-.03h.066v.03zm-.311.02c-.002.016-.025.026-.047.027-.01 0-.043 0-.05-.029-.013-.056.03-.069.043-.07h.041c.012.015.016.04.013.072zm1.072-.208V4.18h-.067l-.106-.134-.024.025.087.11-1.082.01v.037l.208-.002v.089h-.162a.07.07 0 0 0-.043.033.114.114 0 0 0-.011.079c.006.04.035.058.061.058h.004a.064.064 0 0 0 .06-.06.222.222 0 0 0-.005-.074h.096v.173h.032v-.298l.15-.002-.002.115H14.063c-.016.006-.043.023-.043.055 0 .037.024.077.062.08h.004a.042.042 0 0 0 .031-.013c.016-.015.019-.042.02-.066v-.02h.122v.15h.032v-.303l.154-.001v.136l-.035.036a.478.478 0 0 1-.028-.042l.001.003-.03.006c0 .006.002.017.127.186l.024-.023a7.011 7.011 0 0 1-.074-.102l.04-.042-.002-.004h.123V4.34h-.115V4.22l.344-.003v.108h-.137a.093.093 0 0 0-.06.115c.018.082.08.101.083.102l.008-.035c-.002 0-.047-.015-.06-.076a.057.057 0 0 1 .036-.07h.124l.006.164h.032v-.308l.06-.001z"/>
        <path fill="#23373F" d="M13.23 4.96v1.896s-.416.023-.416-.03c0-.055.014-.043.026-.07.012-.026-.05-.065-.053-.125-.003-.06.092-.122.092-.122-.036-.03-.197-.349-.122-.45.074-.101-.093-.468-.099-.578-.005-.11-.104-.385.051-.427.155-.041.52-.094.52-.094"/>
        <path fill="#D3BDA9" d="M12.76 6.044a.25.25 0 1 1 .5 0 .25.25 0 0 1-.5 0"/>
        <path fill="#D3BDA9" d="M13.38 5.4V6.46h-.317L12.88 5.4h.5"/>
        <path fill="#0E222B" d="M13.568 5.875a.25.25 0 1 1-.5 0 .25.25 0 0 1 .5 0"/>
        <path fill="#FC611F" d="M13.679 5.85v.5s-.362.005-.45-.031c-.048-.02-.059-.07-.044-.093.043-.068.22-.231.329-.325.066-.057.165-.051.165-.051"/>
        <path fill="#23373F" d="M12.883 5.82l.417-.3v-.2h-.5l.083.5"/>
        <path fill="#0E222B" d="M13.23 4.96v1.896s.415.023.415-.03c0-.055-.015-.043-.027-.07-.012-.026.051-.065.054-.125.003-.06-.092-.122-.092-.122.035-.03.196-.349.122-.45-.075-.101.092-.468.098-.578.006-.11.105-.385-.05-.427-.155-.041-.52-.094-.52-.094"/>
        <path fill="#BC9173" d="M13.971 6.044a.25.25 0 1 0-.5 0 .25.25 0 0 0 .5 0"/>
        <path fill="#BC9173" d="M13.23 5.4V6.46h.317l.182-1.058h-.5"/>
        <path fill="#0E222B" d="M13.332 5.875a.25.25 0 1 0 .5 0 .25.25 0 0 0-.5 0"/>
        <path fill="#DD4926" d="M13.23 5.85v.5s.36.005.449-.031c.048-.02.059-.07.045-.093-.044-.068-.22-.231-.33-.325-.065-.057-.165-.051-.165-.051"/>
        <path fill="#0E222B" d="M13.646 5.82l-.007-.3h-.41v-.2h.5l-.083.5"/>
        <path fill="#FFF" d="M13.405 6.445H13c-.032.08-.065.264-.095.5h.5v-.5"/>
        <path fill="#B0C9CF" d="M13.634 6.445h-.405v.5h.5a2.617 2.617 0 0 0-.095-.5"/>
        <path fill="#331829" d="M13.695 6.853a1.957 1.957 0 0 0-.074-.266h-.392v.5h.5a1.63 1.63 0 0 0-.034-.234"/>
        <path fill="#542A3A" d="M12.908 6.708l-.025.101v.002a2.28 2.28 0 0 0-.01.04v.003a1.49 1.49 0 0 0-.034.233h.5v-.5h-.392a1.561 1.561 0 0 0-.039.12v.001"/>
        <path fill="#FC611F" d="M13.28 6.948a.25.25 0 1 1 .5 0 .25.25 0 0 1-.5 0"/>
        <path fill="#FC611F" d="M13.28 7.074a.25.25 0 1 1 .5 0 .25.25 0 0 1-.5 0"/>
        <path fill="#B22936" d="M13.365 6.604c.138 0 .25-.224.25-.5h-.5c0 .276.112.5.25.5"/>
        <path fill="#EF3133" d="M13.427 6.15c-.123 0-.226.169-.25.395a.385.385 0 0 0 .252.104.38.38 0 0 0 .248-.1c-.023-.228-.127-.4-.25-.4"/>
        <path fill="#542A3A" d="M15.129 3.885a.667.667 0 1 1 .846.642l-.42.24-.048-.281a.667.667 0 0 1-.378-.601"/>
        <path fill="#FFF" d="M15.778 4.1a.678.678 0 0 0-.081-.097l.035-.025a.917.917 0 0 1 .094.093l-.048.029zm-.009-.16a.376.376 0 0 0-.076-.083l.034-.027c.035.03.05.045.083.078l-.04.033zm-.099-.138v.131c0 .023-.01.034-.075.039a.1.1 0 0 0-.016-.047c.04.001.047-.003.047-.013v-.068c0-.036 0-.054-.003-.068a.383.383 0 0 0 .053.003c.01 0 .012.004.005.009-.008.004-.011.009-.011.014zm-.072.28a.305.305 0 0 0-.042-.08l.053-.02c.017.03.036.06.047.077l-.058.023zm-.035-.2a.674.674 0 0 1-.042.06.14.14 0 0 0-.042-.02.278.278 0 0 0 .067-.098.209.209 0 0 0 .04.02c.013.003.013.006.002.01-.008.003-.014.01-.025.028zm-.048-.059a.115.115 0 0 0-.04-.027.308.308 0 0 0 .108-.141c.019.009.036.016.054.02.012.002.012.005 0 .008a.15.15 0 0 0-.043.043h.12a.557.557 0 0 0 .094-.005l-.037.092-.043-.016.017-.036h-.176a.868.868 0 0 1-.054.062zm.144.33a1.071 1.071 0 0 1-.161-.003c-.026-.005-.036-.014-.036-.048v-.053A.25.25 0 0 0 15.458 4c.02.004.039.006.053.005.01 0 .012.002.004.01-.006.005-.007.008-.007.016v.057c0 .012.004.021.019.023.022.004.09.004.122-.002.018-.003.02-.008.026-.057.02.017.033.024.052.027-.016.061-.025.069-.068.074zm-.303-.295a.098.098 0 0 0-.025-.045.435.435 0 0 0 .105-.154c.02.01.036.016.055.02.01.002.01.006 0 .009-.006 0-.022.016-.04.043v.237h-.048a.64.64 0 0 0 .003-.079v-.097a1.984 1.984 0 0 1-.05.066zm.026.273l-.056-.02a.335.335 0 0 0 .048-.117l.052.016a1.01 1.01 0 0 0-.044.12z"/>
        <path fill="#FFF" d="M16.31 3.878v.05a1.171 1.171 0 0 0-.114-.005v.171c0 .042-.021.052-.093.06 0-.015-.009-.04-.025-.06.063.008.073.003.073-.02v-.15c-.048 0-.082.002-.108.005v-.051c.027.003.06.005.108.005v-.075a.564.564 0 0 0 .072-.07h-.116a.84.84 0 0 0-.056.002v-.046c.034.003.058.004.121.004.078 0 .106-.002.122-.004v.046c-.024.01-.043.021-.098.077v.066c.05 0 .086-.002.115-.005zm-.314-.066h-.065l-.035.145c.021.01.042.02.062.032a.492.492 0 0 0 .038-.177zm-.166.004V3.77c.014.002.03.003.063.004a.919.919 0 0 0 .01-.116.23.23 0 0 0 .06.012c.012 0 .011.004 0 .012-.006.006-.014.032-.027.092.06 0 .086-.002.102-.004a.705.705 0 0 1-.05.24l.057.04a.179.179 0 0 0-.039.043.284.284 0 0 0-.041-.044.429.429 0 0 1-.109.109.111.111 0 0 0-.045-.042.276.276 0 0 0 .121-.093.77.77 0 0 0-.086-.051 1.03 1.03 0 0 0 .041-.161.474.474 0 0 0-.057.004z"/>
        <path fill="#23373F" d="M14.771 5.093s.063.439.084.462c.02.023-.08.413.043.444h.465v-1.18c-.143.003-.592.274-.592.274"/>
        <path fill="#EDD5A9" d="M14.891 5.743a.25.25 0 1 1 .5 0 .25.25 0 0 1-.5 0"/>
        <path fill="#EDD5A9" d="M15.508 5.142v1.075h-.382l-.118-1.075h.5"/>
        <path fill="#FC611F" d="M15.805 5.634v.5s-.361.005-.448-.03c-.05-.021-.06-.071-.046-.094.044-.068.22-.231.33-.325.065-.056.164-.051.164-.051"/>
        <path fill="#23373F" d="M15 5.524l.43-.333v-.167l-.5.057.07.443"/>
        <path fill="#8BBF37" d="M15.541 6.208h-.393c-.06 0-.107.145-.107.324 0 .065.007.125.017.176h.483v-.5"/>
        <path fill="#195886" d="M15.401 6.37v-.038h-.357c-.08 0-.143.056-.143.125v.375h.5V6.37"/>
        <path fill="#8BBF37" d="M15.137 6.966h.5v-.5h-.5z"/>
        <path fill="#0E222B" d="M15.955 5.093s-.064.439-.084.462c-.02.023.079.413-.043.444h-.465v-1.18c.143.003.592.274.592.274"/>
        <path fill="#D8AE80" d="M16.084 5.743a.25.25 0 1 0-.5 0 .25.25 0 0 0 .5 0"/>
        <path fill="#D8AE80" d="M15.363 5.142v1.075h.382l.118-1.075h-.5"/>
        <path fill="#0E222B" d="M15.5 5.891c.02.114.146.144.283.066.136-.078.232-.234.211-.348-.02-.114-.146-.143-.283-.065-.137.078-.231.234-.211.347"/>
        <path fill="#DD4926" d="M15.363 5.634v.5s.361.005.448-.03c.05-.021.06-.071.046-.094-.044-.068-.22-.231-.33-.325-.065-.056-.164-.051-.164-.051"/>
        <path fill="#0E222B" d="M15.793 5.524l-.43-.333v-.167l.5.057-.07.443"/>
        <path fill="#566B1B" d="M15.363 6.208h.393c.06 0 .107.145.107.324a.86.86 0 0 1-.017.176h-.483v-.5"/>
        <path fill="#072230" d="M15.363 6.37v-.038h.357c.079 0 .143.056.143.125v.375h-.5V6.37"/>
        <path fill="#566B1B" d="M15.363 6.966h.5v-.5h-.5z"/>
        <path fill="#8BBF37" d="M15.137 7.09h.5v-.5h-.5z"/>
        <path fill="#566B1B" d="M15.363 7.09h.5v-.5h-.5z"/>
        <path fill="#0E222B" d="M15.66 5.891c-.02.114-.147.144-.284.066-.136-.078-.23-.234-.211-.348.02-.114.147-.143.283-.065.137.078.232.234.212.347"/>
        <path fill="#B22936" d="M15.507 6.407c.138 0 .25-.223.25-.5h-.5c0 .277.111.5.25.5"/>
        <path fill="#EF3133" d="M15.564 5.95c-.123 0-.226.17-.25.396a.383.383 0 0 0 .253.104.38.38 0 0 0 .247-.1c-.023-.229-.126-.4-.25-.4"/>
        <path fill="#542A3A" d="M14.828 11.844V12.9s-.338.035-.434-.03c-.096-.067-.165-.089-.148-.597.046-.069.066-.321.365-.412.088-.027.217-.017.217-.017"/>
        <path fill="#542A3A" d="M14.277 12.253s-.107-.064-.115-.162c-.016-.182.159-.323.293-.327a.204.204 0 0 1 .205.138c.017.045-.202.432-.383.35"/>
        <path fill="#FC611F" d="M14.648 11.801c-.2.09-.39.355-.446.445.03.031.06.051.067.055.044-.071.24-.358.433-.431a.24.24 0 0 0-.054-.069"/>
        <path fill="#9B7A64" d="M14.336 12.688a.25.25 0 1 1 .5 0 .25.25 0 0 1-.5 0"/>
        <path fill="#9B7A64" d="M14.962 12.27v.891h-.371l-.129-.891h.5"/>
        <path fill="#331829" d="M15.105 12.654a.25.25 0 1 1-.501 0 .25.25 0 0 1 .5 0"/>
        <path fill="#FC611F" d="M15.27 12.573v.498s-.36.007-.448-.038c-.049-.026-.06-.089-.046-.118.044-.085.042-.17.152-.287.066-.071.342-.055.342-.055"/>
        <path fill="#8BBF37" d="M14.519 13.113c-.056 0-.1.037-.1.082v.428c.154.05.322.079.499.079v-.54l-.4-.05"/>
        <path fill="#227C4A" d="M14.473 13.1c-.101-.02-.109.225-.09.291.025.094.403.2.487.207h.005v-.403l-.402-.095"/>
        <path fill="#FFF" d="M14.967 13.559a.25.25 0 1 1-.5 0 .25.25 0 0 1 .5 0"/>
        <path fill="#FFF" d="M14.967 13.807a.25.25 0 1 1-.5 0 .25.25 0 0 1 .5 0"/>
        <path fill="#FFF" d="M15.11 13.682a.25.25 0 1 1-.5 0 .25.25 0 0 1 .5 0"/>
        <path fill="#331829" d="M14.829 11.844V12.9s.338.035.434-.03c.096-.067.165-.089.149-.597-.047-.069-.067-.321-.366-.412-.088-.027-.217-.017-.217-.017"/>
        <path fill="#331829" d="M15.406 12.253s.107-.064.115-.162c.016-.182-.159-.323-.293-.327a.204.204 0 0 0-.205.138c-.017.045.202.432.383.35"/>
        <path fill="#DD4926" d="M15.08 11.801c.2.09.39.355.446.445a.351.351 0 0 1-.067.055c-.044-.071-.24-.358-.433-.431a.24.24 0 0 1 .054-.069"/>
        <path fill="#684D3A" d="M15.564 12.688a.25.25 0 1 0-.5 0 .25.25 0 0 0 .5 0"/>
        <path fill="#684D3A" d="M14.829 12.27v.891h.371l.129-.891h-.5"/>
        <path fill="#331829" d="M14.992 12.654a.25.25 0 1 0 .5 0 .25.25 0 0 0-.5 0"/>
        <path fill="#DD4926" d="M14.829 12.573v.498s.361.007.448-.038c.049-.026.06-.089.046-.118-.044-.085-.042-.17-.152-.287-.065-.071-.342-.055-.342-.055"/>
        <path fill="#566B1B" d="M15.228 13.113l-.4.048v.54c.177 0 .346-.028.5-.079v-.427c0-.045-.044-.082-.1-.082"/>
        <path fill="#0F4F2C" d="M15.23 13.1c.101-.02.11.225.09.291-.025.094-.403.2-.487.207h-.004v-.403l.4-.095"/>
        <path fill="#B0C9CF" d="M15.107 13.559a.25.25 0 1 0 .5 0 .25.25 0 0 0-.5 0"/>
        <path fill="#B0C9CF" d="M15.107 13.807a.25.25 0 1 0 .5 0 .25.25 0 0 0-.5 0"/>
        <path fill="#B0C9CF" d="M14.964 13.682a.25.25 0 1 0 .5 0 .25.25 0 0 0-.5 0"/>
        <path fill="#FFF" d="M14.787 13.578c0 .138.224.25.5.25v-.5c-.276 0-.5.112-.5.25"/>
        <path fill="#B0C9CF" d="M15.328 13.578c0-.138-.223-.25-.5-.25v.5c.277 0 .5-.112.5-.25"/>
        <path fill="#FFF" d="M14.787 13.824c0 .138.224.25.5.25v-.5c-.276 0-.5.112-.5.25"/>
        <path fill="#B0C9CF" d="M15.328 13.824c0-.138-.223-.25-.5-.25v.5c.277 0 .5-.112.5-.25"/>
        <path fill="#B22936" d="M14.968 13.344c.138 0 .25-.223.25-.5h-.5c0 .277.112.5.25.5"/>
        <path fill="#EF3133" d="M15.028 12.888c-.123 0-.226.17-.25.396a.386.386 0 0 0 .252.104c.09 0 .173-.036.248-.1-.023-.228-.127-.4-.25-.4"/>
    </g>
</svg>
