<!-- Generated by IcoMoon.io -->
<svg version="1.1" xmlns="http://www.w3.org/2000/svg" width="32" height="32" viewBox="0 0 32 32">
<title>no-data-available</title>
<path fill="#cea16e" d="M18.714 1.035c-6.78 0-12.295 5.516-12.295 12.295 0 2.969 1.058 5.696 2.816 7.823l-8.211 8.211 1.656 1.656 8.211-8.211c2.127 1.759 4.854 2.817 7.823 2.817 6.78 0 12.295-5.516 12.295-12.295s-5.516-12.295-12.295-12.295zM18.714 23.283c-5.488 0-9.953-4.465-9.953-9.953s4.465-9.953 9.953-9.953c5.488 0 9.953 4.465 9.953 9.953s-4.465 9.953-9.953 9.953zM22.906 10.428c0.196 1.781-0.849 3.058-1.651 3.865-0.207 0.207-0.397 0.389-0.565 0.55-0.765 0.73-0.863 0.852-0.863 1.357v0.059h-2.342v-0.059c0-1.537 0.736-2.239 1.588-3.052 0.166-0.158 0.337-0.321 0.522-0.507 0.756-0.76 1.050-1.345 0.983-1.957-0.096-0.872-0.805-1.575-1.685-1.673-0.571-0.063-1.117 0.109-1.537 0.485-0.408 0.365-0.633 0.866-0.633 1.41h-2.342c0-1.201 0.515-2.351 1.413-3.155 0.91-0.814 2.133-1.203 3.357-1.068 1.961 0.218 3.54 1.793 3.755 3.745zM17.485 18.014h2.342v2.342h-2.342v-2.342z"></path>
</svg>
