<?xml version="1.0" encoding="UTF-8"?>
<svg width="35px" height="25px" viewBox="0 0 35 25" version="1.1" xmlns="http://www.w3.org/2000/svg" xmlns:xlink="http://www.w3.org/1999/xlink">
    <!-- Generator: Sketch 51.3 (57544) - http://www.bohemiancoding.com/sketch -->
    <title>Combined Shape</title>
    <desc>Created with Sketch.</desc>
    <defs></defs>
    <g id="StudentFlow24Sep" stroke="none" stroke-width="1" fill="none" fill-rule="evenodd">
        <g id="M1.02.S7-Student-Growth-Plan" transform="translate(-791.000000, -928.000000)" fill="#36639e ">
            <path d="M813.567006,934.065228 L813.567006,929.854236 C813.567006,929.576355 813.682632,929.311004 813.88616,929.121809 C814.290668,928.745789 814.923412,928.768882 815.299432,929.17339 L825.542567,940.192544 C825.909194,940.586947 825.897681,941.200841 825.516524,941.581219 L815.273389,951.803437 C815.085912,951.990531 814.831868,952.095607 814.567006,952.095607 C814.014721,952.095607 813.567006,951.647892 813.567006,951.095607 L813.567006,947.065228 L792.139698,947.065228 C791.587414,947.065228 791.139698,946.617513 791.139698,946.065228 L791.139698,935.065228 C791.139698,934.512943 791.587414,934.065228 792.139698,934.065228 L813.567006,934.065228 Z" id="Combined-Shape"></path>
        </g>
    </g>
</svg>