<svg xmlns="http://www.w3.org/2000/svg" width="22" height="18" viewBox="0 0 22 18">
    <g fill="none" fill-rule="evenodd">
        <path fill="#EDF1F1" stroke="#4A4A4A" stroke-width=".5" d="M21.511 5.042v11.106c0 .832-.674 1.506-1.503 1.506H1.95a1.506 1.506 0 0 1-1.506-1.506V5.042c0-.832.674-1.506 1.506-1.506h18.058c.83 0 1.503.674 1.503 1.506"/>
        <path fill="#3397C7" d="M1.937 10.727h5.745V4.984H1.937z"/>
        <path fill="#384D5B" d="M4.827 10.723v.037l-.018.018v-.037l.018-.018"/>
        <path fill="#384D5B" d="M4.827 10.723v.037l-.018-.019.018-.018"/>
        <path fill="#D1D2D1" d="M9.485 6.591h10.534V5.83H9.485zM9.485 10.438h10.534v-.762H9.485zM1.937 16.207h18.082v-.76H1.937zM1.937 12.36h18.082v-.76H1.937zM9.485 8.513h10.534v-.759H9.485zM1.937 14.285h18.082v-.762H1.937z"/>
        <path fill="#F7CF64" d="M8.799 4.653h4.357v-.777H8.8z"/>
        <path fill="#D65D50" d="M9.156 4.653H12.8V.3H9.156z"/>
        <path fill="#EDF1F1" d="M6.693 10.727v-1.47a.846.846 0 0 0-.846-.847H3.772a.846.846 0 0 0-.847.847v1.47h3.768"/>
        <path fill="#2C404B" d="M6.693 10.727v-1.47a.846.846 0 0 0-.846-.847h-.678l-.33 2.317h1.854M4.78 10.727L4.45 8.41h-.678a.846.846 0 0 0-.847.847v1.47H4.78"/>
        <path fill="#384D5B" d="M4.024 9.281l.688 1.446h.07L4.448 8.41s-.438.157-.454.382l.314.122-.285.367M4.906 10.727l.69-1.446-.286-.367.313-.122c-.015-.225-.454-.382-.454-.382l-.33 2.317h.067"/>
        <path fill="#F7CF64" d="M4.437 8.1v.318c0 .338.133.662.371.9h.002c.238-.238.372-.562.372-.9V8.1h-.745"/>
        <path fill="#EFB858" d="M5.181 8.6l.001-.018V8.1h-.745v.5h.744"/>
        <path fill="#F7CF64" d="M5.929 6.923c0 .054-.002.11-.01.165-.07.646-.54 1.273-1.11 1.273-.561 0-1.027-.608-1.105-1.246a1.19 1.19 0 0 1-.014-.192c0-.698.502-1.093 1.118-1.093.62 0 1.12.395 1.12 1.093"/>
        <path fill="#2C404B" d="M5.929 6.923c0 .054-.002.11-.01.165a1.185 1.185 0 0 1-1.046-.665 1.187 1.187 0 0 1-1.169.692 1.19 1.19 0 0 1-.014-.192c0-.698.502-1.093 1.118-1.093.62 0 1.12.395 1.12 1.093"/>
    </g>
</svg>
