<?xml version="1.0" standalone="no"?>
<!DOCTYPE svg PUBLIC "-//W3C//DTD SVG 1.1//EN" "http://www.w3.org/Graphics/SVG/1.1/DTD/svg11.dtd" >
<svg xmlns="http://www.w3.org/2000/svg">
<metadata>Generated by IcoMoon</metadata>
<defs>
<font id="icomoon" horiz-adv-x="1024">
<font-face units-per-em="1024" ascent="960" descent="-64" />
<missing-glyph horiz-adv-x="1024" />
<glyph unicode="&#x20;" horiz-adv-x="512" d="" />
<glyph unicode="&#xe90;" d="M1024 267.852v-265.481c0-36.67-28.64-66.37-64-66.37h-896c-35.36 0-64 29.701-64 66.37v265.481c0 36.67 28.64 66.37 64 66.37h896c35.36 0 64-29.701 64-66.37z" />
<glyph unicode="&#xe91;" d="M796.444 490.667v-213.333h-625.778v213.333c0 39.289 28.004 71.111 62.578 71.111h500.622c34.574 0 62.578-31.822 62.578-71.111z" />
<glyph unicode="&#xe92;" d="M796.444 504.889v-56.889c0 0 0-56.889-62.578-56.889s-46.933 99.556-109.511 99.556c-62.578 0-62.578-99.556-140.8-99.556s-78.222 99.556-140.8 99.556c-62.578 0-46.933-99.556-109.511-99.556s-62.578 56.889-62.578 56.889v56.889c0 31.431 28.004 56.889 62.578 56.889h500.622c34.574 0 62.578-25.458 62.578-56.889z" />
<glyph unicode="&#xe93;" d="M1024 277.333v-56.889h-1024v56.889c0 31.431 28.64 56.889 64 56.889h896c35.36 0 64-25.458 64-56.889z" />
<glyph unicode="&#xe94;" d="M0-7.111v56.889h1024v-56.889c0-31.431-28.64-56.889-64-56.889h-896c-35.36 0-64 25.458-64 56.889z" />
<glyph unicode="&#xe95;" d="M316.444 775.462c-12.352 0-23.488 5.342-32 13.872v-227.556h64v227.556c-8.512-8.53-19.648-13.872-32-13.872z" />
<glyph unicode="&#xe96;" d="M380.444 832c0-23.566-21.488-42.667-48-42.667s-48 19.1-48 42.667c0 42.667 48 42.667 48 128 0 0 48-56.889 48-128z" />
<glyph unicode="&#xe97;" d="M430.222 775.462c-12.352 0-23.488 5.342-32 13.872v-227.556h64v227.556c-8.512-8.53-19.648-13.872-32-13.872z" />
<glyph unicode="&#xe98;" d="M494.222 832c0-23.566-21.488-42.667-48-42.667s-48 19.1-48 42.667c0 42.667 48 42.667 48 128 0 0 48-56.889 48-128z" />
<glyph unicode="&#xe99;" d="M600.889 775.462c-12.352 0-23.488 5.342-32 13.872v-227.556h64v227.556c-8.512-8.53-19.648-13.872-32-13.872z" />
<glyph unicode="&#xe9a;" d="M608 832c0-23.566-21.488-42.667-48-42.667s-48 19.1-48 42.667c0 42.667 48 42.667 48 128 0 0 48-56.889 48-128z" />
<glyph unicode="&#xe9b;" d="M714.667 775.462c-12.352 0-23.488 5.342-32 13.872v-227.556h64v227.556c-8.512-8.53-19.648-13.872-32-13.872z" />
<glyph unicode="&#xe9c;" d="M778.667 832c0-23.566-21.488-42.667-48-42.667s-48 19.1-48 42.667c0 42.667 48 42.667 48 128 0 0 48-56.889 48-128z" />
<glyph unicode="&#xe900;" glyph-name="admin" horiz-adv-x="1164" d="M696.695 70.831l5.818 8.155-10.439 1.762c-27.435 3.355-47.932 26.647-47.932 54.768v54.849c0 28.023 20.685 51.382 48.353 54.86l9.972 1.661-6.127 8.567c-17.076 21.873-15.048 52.896 4.855 72.641l1.272 1.278c-31.724 10.246-66.462 26.37-103.701 55.146-0.799-30.16-65.908-54.529-146.198-54.529-80.287 0-145.396 24.368-146.181 54.529-183.472-141.776-306.387 23.313-306.387-312.303 0-91.958 245.454-136.215 451.662-136.215 0.309 0 0.62 0.012 0.906 0.012 0.312 0 0.623-0.012 0.912-0.012 94.649 0 197.499 9.354 281.156 28.337l-33.498 33.495c-19.822 19.909-21.628 51.036-4.442 72.998zM254.895 576.995c16.116-43.911 40.654-86.622 70.869-120.145 7.857-8.711 16.188-16.58 24.761-23.91 2.342-2.008 4.604-4.177 6.995-6.063 29.009-22.88 61.529-37.043 95.959-37.043 34.216 0 66.548 13.984 95.414 36.613 1.95 1.526 3.793 3.311 5.711 4.918 8.959 7.505 17.636 15.663 25.825 24.677 30.636 33.746 55.501 76.93 71.767 121.319 13.629 4.044 27.922 29.892 33.752 62.902 6.314 35.889 0.332 67.206-13.387 72.323-0.643 11.656-1.728 23.434-3.346 35.214-5.518 101.474-36.521 146.824-82.327 167.071-32.445 26.050-75.837 42.304-133.408 42.304-57.419 0-100.655-15.845-132.967-41.306-50.459-21.187-83.481-71.645-85.361-191.361-0.312-3.81-0.557-7.589-0.779-11.371-14.959-2.922-21.761-35.422-15.155-72.874 6.092-34.579 21.495-61.241 35.678-63.269zM905.106 72.18c-50.049 0-90.781 40.689-90.781 90.773 0 50.061 40.732 90.77 90.781 90.77 50.064 0 90.796-40.709 90.796-90.77 0-50.084-40.732-90.773-90.796-90.773zM1113.454 211.43l-34.228 5.717c-3.268 10.58-7.537 20.832-12.689 30.605l19.9 27.844c6.903 8.498 6.271 20.722-1.431 28.421l-38.834 38.771c-3.989 4.033-9.308 6.205-14.982 6.205-4.898 0-9.672-1.661-13.029-4.474l-28.234-20.168c-9.796 5.163-20.056 9.429-30.628 12.721l-5.616 33.705c-1.099 10.872-10.171 19.081-21.143 19.081h-54.86c-10.924 0-20.021-8.209-21.040-18.591l-5.671-34.196c-10.618-3.291-20.878-7.557-30.674-12.721l-27.812 19.903c-3.776 3.078-8.555 4.595-13.329 4.595-5.541 0-11.079-2.039-15.1-6.060l-38.794-38.771c-7.791-7.722-8.379-19.975-1.751-28.043l20.2-28.222c-5.152-9.773-9.421-20.024-12.709-30.605l-33.731-5.639c-10.88-1.111-19.090-10.174-19.090-21.143v-54.849c0-11.002 8.209-20.056 18.614-21.051l34.207-5.74c3.257-10.502 7.557-20.789 12.709-30.605l-19.845-27.812c-6.983-8.463-6.326-20.696 1.396-28.453l38.771-38.782c4.012-3.989 9.328-6.248 15.025-6.248 4.895 0 9.652 1.725 13.009 4.532l28.231 20.154c9.839-5.163 20.056-9.429 30.674-12.698l5.57-33.729c1.119-10.872 10.217-19.084 21.141-19.084h54.86c10.973 0 20.044 8.212 21.042 18.596l5.717 34.216c10.572 3.268 20.832 7.534 30.628 12.698l27.812-19.834c3.79-3.115 8.576-4.633 13.352-4.633 5.538 0 11.079 2.051 15.080 6.052l38.791 38.779c7.745 7.736 8.377 19.969 1.751 28.035l-20.177 28.21c5.152 9.776 9.421 20.056 12.689 30.651l33.682 5.694c10.935 0.995 19.159 10.050 19.159 21.051v54.849c0 10.97-8.224 20.033-18.614 21.066z" />
<glyph unicode="&#xe901;" glyph-name="dashboard" horiz-adv-x="1303" d="M576.003 778.887h-84.229c-7.735 0-14.021-6.277-14.021-14.042 0-7.746 6.285-14.022 14.021-14.022h52.367l-118.971-135.088-112.371 89.889c-5.464 4.377-13.297 4.074-18.389-0.734l-149.149-140.376c-5.64-5.317-5.914-14.198-0.597-19.848 2.76-2.937 6.491-4.416 10.232-4.416 3.447 0 6.903 1.273 9.616 3.829l140.279 132.013 113.291-90.653c5.855-4.681 14.365-3.936 19.309 1.684l124.572 141.453v-47.941c0-7.755 6.286-14.042 14.061-14.042 7.735 0 14.022 6.287 14.022 14.042v84.21c0 7.765-6.296 14.042-14.043 14.042zM505.816 596.396c0 7.726 6.306 14.042 14.032 14.042h56.156c7.716 0 14.033-6.315 14.033-14.042v-224.616c0-7.724-6.316-14.011-14.033-14.011h-56.156c-7.725 0-14.032 6.306-14.032 14.011v224.616zM384.162 512.176c0 7.716 6.306 14.032 14.031 14.032h56.157c7.716 0 14.032-6.326 14.032-14.032v-140.396c0-7.724-6.315-14.011-14.032-14.011h-56.157c-7.724 0-14.031 6.306-14.031 14.011v140.396zM262.489 554.281c0 7.724 6.325 14.041 14.051 14.041h56.138c7.735 0 14.051-6.316 14.051-14.041v-182.502c0-7.735-6.316-14.022-14.051-14.022h-56.138c-7.726 0-14.051 6.306-14.051 14.022v182.502zM140.834 470.051c0 7.735 6.316 14.042 14.041 14.042h56.147c7.736 0 14.042-6.306 14.042-14.042v-98.272c0-7.724-6.326-14.022-14.042-14.022h-56.147c-7.724 0-14.041 6.306-14.041 14.022v98.272zM1243.789 959.37c22.060 0 40.107-18.047 40.107-40.107v-721.935c0-22.071-18.047-40.107-40.107-40.107h-481.289l7.167-100.386c1.587-22.013 18.35-49.273 37.248-60.631l57.303-34.37c4.7-2.84 8.577-9.655 8.577-15.178s-4.513-10.027-10.026-10.027h-441.182c-5.513 0-10.027 4.505-10.027 10.027s3.858 12.338 8.578 15.178c0.019 0 0.019 0.019 0.019 0.019l57.283 34.35c18.908 11.358 35.661 38.619 37.248 60.631l7.167 100.386h-481.289c-22.061 0-40.107 18.036-40.107 40.107v721.935c0 22.060 18.046 40.107 40.107 40.107h1203.223zM60.62 237.436h1163.115v661.773h-1163.115v-661.773zM910.317 762.925c-106.104-6.56-190.138-94.609-190.138-202.358 0-112.039 90.8-202.81 202.829-202.81 35.945 0 69.747 9.4 99.025 25.87l-111.725 173.18 0.009 206.117zM1143.52 559.803c0 40.5-11.006 78.413-30.12 110.961l-164.964-123.514 105.861-164.111c54.109 39.971 89.223 104.234 89.223 176.664zM1098.046 693.551c-37.561 48.792-95.078 81.301-160.351 85.336v-205.394l160.351 120.058z" />
<glyph unicode="&#xe902;" glyph-name="home" horiz-adv-x="1071" d="M51.461 473.746l430.891 458.926c17.596 18.741 47.052 19.669 65.793 2.073 0.2-0.188 0.398-0.377 0.595-0.569l471.789-458.925c18.427-17.925 18.834-47.393 0.91-65.819-8.763-9.009-20.797-14.091-33.364-14.091h-62.883v-459.341h-270.981v288.343h-233.443v-288.343h-277.62v459.341h-57.754c-25.706 0-46.545 20.839-46.545 46.545 0 11.837 4.51 23.23 12.613 31.86z" />
<glyph unicode="&#xe903;" glyph-name="programs" horiz-adv-x="931" d="M618.492 774.961l82.785-47.659c-76.245-116.748-170.102-215.074-274.869-294.697-118.016-89.767-260.526-164.063-426.408-213.598 161.193 23.013 319.393 72.837 465.753 153.081 137.686 75.433 253.72 170.993 354.745 286.589l86.185-49.62c8.238-4.743 14.918-0.899 14.918 8.586v331.737c0 9.485-6.682 13.331-14.921 8.588l-288.186-165.832c-8.24-4.741-8.242-12.431-0.002-17.176zM209.050 50.733h118.996c9.516 0 17.231 7.69 17.231 17.176v112.505c0 9.484-7.714 17.174-17.231 17.174h-118.996c-9.515 0-17.229-7.69-17.229-17.174v-112.505c0-9.485 7.714-17.176 17.229-17.176zM592.689 50.733h118.999c9.513 0 17.229 7.69 17.229 17.176v302.196c0 9.485-7.716 17.176-17.229 17.176h-118.999c-9.515 0-17.229-7.69-17.229-17.176v-302.196c0-9.485 7.714-17.176 17.229-17.176zM400.871 50.733h118.992c9.516 0 17.231 7.69 17.231 17.176v198.171c0 9.486-7.714 17.176-17.231 17.176h-118.992c-9.518 0-17.231-7.69-17.231-17.176v-198.171c0-9.485 7.712-17.176 17.231-17.176zM17.231 50.733h118.996c9.516 0 17.231 7.69 17.231 17.176v42.136c0 9.486-7.714 17.178-17.231 17.178h-118.996c-9.516 0-17.231-7.692-17.231-17.178v-42.136c0-9.485 7.714-17.176 17.231-17.176zM784.51 50.733h118.997c9.516 0 17.229 7.69 17.229 17.176v424.578c0 9.485-7.712 17.176-17.229 17.176h-118.997c-9.513 0-17.231-7.69-17.231-17.176v-424.578c0-9.485 7.718-17.176 17.231-17.176zM903.507-64h-886.276c-9.516 0-17.231 7.69-17.231 17.174v42.138c0 9.484 7.714 17.176 17.231 17.176h886.276c9.516 0 17.229-7.692 17.229-17.176v-42.138c0-9.484-7.712-17.174-17.229-17.174z" />
<glyph unicode="&#xe904;" glyph-name="providers" horiz-adv-x="1350" d="M1277.23 307.493c-15.14 1.954-32.233-1.342-46.831-6.64-87.965-31.951-171.691-69.199-259.303-102.068-4.309-1.648-9.324-3.461-12.149-6.781-22.815-26.865-52.882-37.743-86.552-38.143-54.507-0.636-108.991-2.449-163.498-3.767-36.942-0.871-73.908-1.813-110.874-2.496-9.347-0.165-21.096 10.242-21.709 21.144-0.636 10.948 6.852 14.669 16.317 15.61 3.767 0.377 7.558 0.659 11.349 0.753 45.96 1.154 91.92 2.284 137.88 3.438 48.338 1.201 96.7 1.554 144.967 3.908 33.764 1.648 56.697 26.771 57.262 59.098 0.589 34.706-26.323 60.982-62.936 60.276-54.224-1.012-122.835 6.381-178.449 14.998-66.162 10.266-98.348 44.124-162.532 64.749-98.913 31.809-200.157 20.272-302.273 18.177-0.165 7.087-0.33 14.221-0.518 21.332-0.565 22.462-11.49 32.233-34.235 31.715-59.64-1.366-119.303-2.849-178.99-4.309-3.649-0.094-7.299-0.542-13.939-1.083 3.32-31.786 5.58-62.795 9.936-93.498 16.317-114.429 56.179-220.241 118.738-317.412 2.873-4.426 10.030-8.429 15.328-8.594 20.319-0.542 40.686 0.377 61.076 1.107 20.155 0.706 31.244 12.149 30.774 32.681-0.141 5.839-0.283 11.655-0.4 17.494 0.071-0.047 0.141-0.047 0.235-0.094 45.937-13.044 91.614-26.865 137.457-40.121 85.351-24.628 170.231-51.234 256.36-72.896 71.412-17.965 143.437-20.084 211.341 17.306 143.837 79.206 287.816 158.176 431.536 237.594 7.158 3.979 13.656 10.478 18.436 17.235 16.246 22.98 4.026 55.684-23.804 59.287zM1007.824 743.333c-20.894-20.963-47.519-19.97-47.747-19.97l-0.376 0.023c-30.612 0.491-52.475 19.616-64.962 56.851-8.294 24.763-9.661 49.89-9.889 57.661 26.431 6.858 74.703 23.336 74.703 52.116 0-28.836 48.431-45.314 74.839-52.15 1.732-43.306-7.2-75.109-26.568-94.532zM1102.612 792.561c0 47.243-29.587 56.178-47.576 57.216 13.284 71.948-49.49 103.295-66.876 103.295-18.604 0-28.607-5.74-28.607-5.74s-10.014 5.74-28.619 5.74c-17.385 0-80.171-31.347-66.887-103.295-17.966-1.038-47.565-9.974-47.565-57.216 0-50.872-11.45-61.61-11.45-61.61s57.226-46.958 57.226 21.499c0 31.176 2.734 49.674 5.537 60.434 1.527-11.195 4.147-24.694 8.681-38.296 15.061-45.349 43.691-69.666 82.769-70.351 0.319-0.023 0.854-0.034 1.618-0.034 7.565 0 36.389 1.655 60.188 25.288 18.023 17.893 28.642 43.671 31.729 76.844 2.21-11.24 4.056-28.289 4.056-53.884 0-68.457 57.226-21.499 57.226-21.499s-11.45 10.738-11.45 61.61zM1031.111 694.721c-3.133 4.69-9.638 5.58-13.922 1.917l-51.53-44.253c-3.52-3.024-8.704-3.024-12.224 0l-51.541 44.253c-4.284 3.663-10.789 2.773-13.922-1.917l-12.885-19.376 32.094-56.258c2.86-5.010 9.513-6.288 14.002-2.67l21.35 17.106c3.076 2.442 7.622 0.262 7.622-3.686v-142.185h18.775v142.185c0 3.948 4.546 6.139 7.622 3.686l21.35-17.106c4.5-3.617 11.142-2.339 14.002 2.67l32.105 56.258-12.897 19.376zM929.122 596.583c-5.958-3.035-12.806-4.040-19.493-2.773-8.75 1.677-16.303 7.075-20.724 14.823l-34.839 61.073-36.742-15.337c-10.493-4.382-17.317-14.641-17.317-26.029v-121.885c0-10.373 8.397-18.806 18.764-18.806h110.351v108.933zM1101.757 654.37l-36.742 15.337-34.839-61.073c-4.42-7.748-11.974-13.146-20.724-14.823-6.688-1.278-13.535-0.262-19.482 2.773v-108.933h110.339c10.367 0 18.775 8.433 18.775 18.806v121.885c0 11.389-6.836 21.647-17.328 26.029zM476.084 654.712c0.096-0.194 0.096-0.411 0.205-0.605 48.59-74.197 95.89-136.012 101.133-136.879l4.134-0.685c0.374-0.068 0.735-0.103 1.109-0.103 0.386 0 0.747 0.034 1.109 0.103l4.146 0.685c5.23 0.867 52.531 62.682 101.12 136.879 0.108 0.183 0.108 0.399 0.205 0.571l-30.055 4.804-76.524-30.263-76.874 30.263-29.706-4.77zM397.318 593.559v-91.222c0-8.787 8.58-15.907 19.173-15.907h31.959v92.477c0 11.309-4.652 21.944-13.1 29.955l-23.716 22.446c0 0-14.317-15.029-14.317-37.749zM748.836 486.429c10.581 0 19.173 7.121 19.173 15.907v91.222c0 29.030-14.317 37.76-14.317 37.76l-23.716-22.458c-8.448-8.011-13.1-18.646-13.1-29.955v-92.477h31.959zM704.837 652.191l-0.145 0.023-1.579-2.967c-0.289-0.765-0.723-1.666-1.35-2.613-22.355-34.143-46.264-68.468-67.317-96.654-9.255-12.393-17.426-22.846-23.62-30.24-9.569-11.423-13.847-15.405-20.318-16.478l-4.061-0.685c-1.241-0.217-2.507-0.32-3.784-0.32s-2.555 0.103-3.784 0.32l-4.073 0.685c-6.447 1.073-10.737 5.055-20.306 16.478-6.194 7.383-14.365 17.847-23.62 30.24-21.053 28.186-44.95 62.511-67.305 96.654-0.675 1.027-1.133 1.997-1.434 2.773l-1.446 2.841-0.265-0.046c-13.798-2.214-27.139-6.39-39.6-12.404l-0.048-0.023 23.608-22.355c10.858-10.293 16.835-23.964 16.835-38.513v-92.477h242.877v92.477c0 14.549 5.977 28.22 16.847 38.513l23.608 22.355c-12.497 6.025-25.886 10.213-39.72 12.416zM687.604 773.493c-2.314-8.547-8.388-14.629-16.462-18.030-9.219-3.903-13.702-10.419-18.016-18.692-13.473-25.892-36.852-40.419-65.895-47.003-4.567-1.027-10.123-0.16-14.714 1.232-29.549 8.992-51.976 25.596-63.545 53.85-1.193 2.921-4.724 5.557-7.845 7.143-7.701 3.971-15.124 8.068-19.848 15.36-5.037 7.783-4.302 16.649 1.928 22.572h21.752c0-18.612 15.98-33.743 35.623-33.743s35.623 15.131 35.623 33.743c0 3.72 3.206 6.744 7.134 6.744s7.122-3.024 7.122-6.744c0-18.612 15.98-33.743 35.623-33.743 19.655 0 35.635 15.131 35.635 33.743h21.752l0.024-0.023c4.724-5.272 5.688-10.613 4.109-16.41zM561.96 789.925c0-11.172-9.581-20.255-21.379-20.255-11.774 0-21.367 9.083-21.367 20.255 0 11.149 9.593 20.232 21.367 20.232 11.798 0 21.379-9.083 21.379-20.232zM647.462 789.925c0-11.172-9.593-20.255-21.379-20.255s-21.367 9.083-21.367 20.255c0 11.149 9.581 20.232 21.367 20.232s21.379-9.083 21.379-20.232zM536.737 865.309l-12.593-22.994c0 0 17.474-0.776 40.636 22.891 4.616 4.713 9.46 10.407 14.425 17.265l-2.76-17.3-2.314-14.321c0 0 9.93-0.491 24.102 14.241 5.459 5.649 11.521 13.545 17.908 24.58l-7.809-36.927c0 0 10.979 4.496 21.957 12.222 29.706-11.366 38.274-35.056 40.347-52.31 0.386-3.207 1.229-6.31 2.47-9.255h-14.377c-5.507 11.902-18.065 20.255-32.646 20.255-13.184 0-24.705-6.824-30.863-16.934-3.398 2.168-7.496 3.435-11.882 3.435-4.399 0-8.484-1.267-11.882-3.435-6.17 10.11-17.691 16.934-30.875 16.934-14.582 0-27.139-8.353-32.646-20.255h-15.148c1.603 3.252 2.663 6.71 3.121 10.293 2.097 16.227 10.195 51.728 40.829 51.613zM707.898 786.844v0.023c-2.157 8.056-6.267 14.983-13.533 19.81-2.94 1.951-3.435 3.777-2.567 7.052 5.688 21.351 6.387 42.804-1.314 63.812-13.461 36.676-41.407 59.213-79.573 71.287-5.17 1.632-10.436 3.013-15.763 4.074-21.511 4.256-36.382-2.602-36.382-2.602 8.833-5.158 20.415-6.71 23.897-18.247-23.259 10.053-46.818 12.187-72.451 4.119 13.232-1.449 25.307-1.986 36.418-10.761-16.715 0.274-31.477-2.077-45.191-9.392 2.892 0 5.881 0.445 8.641-0.126 2.362-0.491 4.471-2.134 6.676-3.264-0.048-0.571-0.048-0.639-0.096-1.21-3.856-1.335-8.002-2.134-11.605-3.926-17.932-8.844-27.645-23.724-32.514-41.64-4.772-17.573-2.868-35.044 2.748-52.207 0.928-2.841 0.711-4.416-2.121-6.151-8.050-4.975-12.714-12.267-14.871-21.088 0 0 0-0.011-0.012-0.023-0.663-2.625-1.157-5.306-1.157-8.011v-0.981c0-3.070 0.482-6.105 1.446-9.015 2.254-6.756 5.073-13.283 10.786-18.212 5.363-4.644 11.581-8.387 17.197-12.792 2.422-1.894 4.977-4.062 6.327-6.653 17.715-33.88 46.855-53.314 85.442-60.412 11.135-2.043 21.812 1.894 31.935 5.968 28.597 11.457 51.313 29.019 63.991 56.68 0.554 1.198 1.579 2.556 2.772 3.127 14.835 7.052 25.657 17.185 30.67 31.86 0.988 2.898 1.446 5.934 1.446 8.992v0.468c0 3.184-0.422 6.356-1.241 9.437z" />
<glyph unicode="&#xe905;" horiz-adv-x="811" d="M749.885 924.369c-224.749-122.605-449.505 122.608-674.257 0 0-145.96 0-291.918 0-437.88 224.752 122.608 449.508-122.603 674.257 0 0 145.962 0 291.92 0 437.88z" />
<glyph unicode="&#xe906;" glyph-name="student" horiz-adv-x="838" d="M179.419 242.057c107.989-174.142 213.112-263.874 224.762-265.91l9.187-1.607c0.83-0.161 1.634-0.241 2.464-0.241 0.857 0 1.661 0.080 2.464 0.241l9.213 1.607c11.624 2.035 116.747 91.767 224.735 265.91 0.241 0.429 0.241 0.937 0.455 1.339l-66.797 11.276-170.071-71.028-170.848 71.028-66.020-11.195c0.214-0.455 0.214-0.964 0.455-1.419zM3.91-3.453c0-20.623 19.069-37.335 42.612-37.335h71.028v106.346c0 26.542-10.338 51.504-29.113 70.305l-52.709 52.682c0 0-31.818-35.273-31.818-88.598v-103.4zM827.753-3.453v103.4c0 68.136-31.818 88.625-31.818 88.625l-52.709-52.709c-18.775-18.802-29.113-43.763-29.113-70.305v-106.346h71.028c23.515 0 42.612 16.713 42.612 37.335zM683.527 230.648c-0.643-1.794-1.607-3.91-3-6.133-49.682-80.134-102.82-49.995-149.609-116.149-20.569-29.086-38.728-53.619-52.495-70.975-21.266-26.81-30.774 74.546-45.156 72.028l-9.026-1.607c-2.759-0.509-5.571-0.75-8.41-0.75s-5.678 0.241-8.41 0.75l-9.053 1.607c-14.329 2.518-23.864-98.838-45.129-72.028-13.766 17.329-31.925 41.888-52.495 70.975-46.79 66.154-99.9 36.014-149.583 116.149-1.5 2.41-2.518 4.687-3.187 6.508l-3.214 6.669c-31.256-5.303-60.904-15.106-88.598-29.22l52.361-52.521c24.131-24.158 37.416-56.244 37.416-90.392v-106.346c89.766 0 179.663 0 269.693 0s180.060 0 270.090 0v106.346c0 34.148 13.284 66.234 37.443 90.392l52.468 52.468c-27.774 14.141-57.53 23.971-88.276 29.14l-3.83-6.91zM649.057 522.26c-5.142-20.060-18.641-34.336-36.585-42.317-20.489-9.16-30.452-24.453-40.040-43.87-29.943-60.77-81.902-94.865-146.449-110.319-10.151-2.41-22.498-0.375-32.702 2.893-65.672 21.105-115.515 60.074-141.226 126.389-2.652 6.856-10.499 13.043-17.436 16.766-17.114 9.32-33.613 18.936-44.111 36.050-11.195 18.266-9.561 39.076 4.285 52.977h48.343c0-43.683 35.514-79.197 79.17-79.197s79.17 35.514 79.17 79.197c0 8.731 7.124 15.829 15.855 15.829s15.829-7.097 15.829-15.829c0-43.683 35.514-79.197 79.17-79.197 43.683 0 79.197 35.514 79.197 79.197h48.343l0.054-0.054c10.499-12.374 12.642-24.908 9.133-38.514zM369.818 560.827c0-26.22-21.292-47.54-47.513-47.54-26.167 0-47.486 21.319-47.486 47.54 0 26.167 21.319 47.486 47.486 47.486 26.22 0 47.513-21.319 47.513-47.486zM559.843 560.827c0-26.22-21.319-47.54-47.513-47.54s-47.486 21.319-47.486 47.54c0 26.167 21.292 47.486 47.486 47.486s47.513-21.319 47.513-47.486zM313.762 737.755l-27.988-53.968c0 0 38.835-1.821 90.312 53.727 10.258 11.061 21.025 24.426 32.059 40.523l-6.133-40.603-5.142-33.613c0 0 22.069-1.152 53.566 33.425 12.133 13.258 25.604 31.791 39.799 57.69l-17.355-86.67c0 0 24.399 10.552 48.798 28.684 66.020-26.676 85.063-82.277 89.669-122.773 0.857-7.526 2.732-14.811 5.49-21.721h-31.952c-12.24 27.935-40.148 47.54-72.555 47.54-29.301 0-54.905-16.016-68.591-39.746-7.553 5.089-16.659 8.062-26.408 8.062-9.776 0-18.855-2.973-26.408-8.062-13.713 23.73-39.317 39.746-68.618 39.746-32.407 0-60.315-19.605-72.555-47.54h-33.666c3.562 7.633 5.919 15.748 6.937 24.158 4.66 38.085 22.658 121.407 90.741 121.139zM694.16 553.596v0.054c-4.794 18.909-13.927 35.166-30.077 46.495-6.535 4.58-7.633 8.865-5.705 16.552 12.642 50.111 14.195 100.463-2.919 149.77-29.917 86.080-92.026 138.977-176.848 167.313-11.49 3.83-23.194 7.071-35.032 9.561-47.807 9.99-80.858-6.107-80.858-6.107 19.632-12.106 45.37-15.748 53.111-42.826-51.691 23.596-104.052 28.604-161.019 9.669 29.408-3.401 56.244-4.66 80.938-25.256-37.148 0.643-69.957-4.874-100.436-22.042 6.428 0 13.070 1.045 19.203-0.295 5.249-1.152 9.936-5.008 14.838-7.66-0.107-1.339-0.107-1.5-0.214-2.839-8.571-3.134-17.784-5.008-25.792-9.213-39.853-20.757-61.44-55.682-72.26-97.731-10.606-41.246-6.374-82.25 6.107-122.532 2.062-6.669 1.58-10.365-4.714-14.436-17.891-11.677-28.256-28.792-33.050-49.495 0 0 0-0.027-0.027-0.054-1.473-6.16-2.571-12.454-2.571-18.802v-2.303c0-7.205 1.071-14.329 3.214-21.159 5.008-15.855 11.276-31.175 23.971-42.746 11.918-10.901 25.738-19.685 38.219-30.024 5.383-4.446 11.061-9.535 14.061-15.614 39.371-79.518 104.132-125.13 189.891-141.789 24.747-4.794 48.477 4.446 70.975 14.007 63.556 26.89 114.042 68.109 142.217 133.031 1.232 2.812 3.509 5.999 6.16 7.339 32.97 16.552 57.021 40.335 68.163 74.778 2.196 6.803 3.214 13.927 3.214 21.105v1.098c0 7.472-0.937 14.918-2.759 22.149z" />
<glyph unicode="&#xe907;" glyph-name="cell" horiz-adv-x="576" d="M286.103-28.093c-18.569 0-33.763 14.966-33.763 33.585 0 18.698 15.244 33.763 33.763 33.763 18.569 0 33.714-15.065 33.763-33.763 0-18.618-15.194-33.684-33.763-33.585zM471.086 75.261c-1.479-0.248-365.43-0.377-365.43-0.377-7.185 0-14.033 2.789-19.115 7.999-5.131 5.111-7.95 11.83-7.95 18.995l0.099 752.347c0 13.11 9.369 24.384 22.4 26.578 1.449 0.318 365.4 0.427 365.4 0.427 7.096 0 13.994-2.819 19.035-7.93 5.111-5.111 7.89-11.979 7.89-19.194v-752.327c0-13.001-9.408-24.226-22.33-26.518zM500.86 959.901l-429.423 0.099c-39.281-0.099-71.337-32.175-71.337-71.377l-0.099-881.216c0-39.301 32.155-71.308 71.298-71.308l429.403-0.099c39.311 0 71.506 32.007 71.506 71.248v881.147c0 39.291-32.096 71.506-71.347 71.506z" />
<glyph unicode="&#xe908;" glyph-name="fax" horiz-adv-x="1152" d="M817.953 318.146v83.597h83.533v-83.597h-83.533zM817.953 173.407v83.457h83.533v-83.457h-83.533zM817.953 28.655v83.47h83.533v-83.47h-83.533zM673.151 318.146v83.597h83.584v-83.597h-83.584zM673.151 173.407v83.457h83.584v-83.457h-83.584zM673.151 28.655v83.47h83.584v-83.47h-83.584zM528.462 318.146v83.597h83.406v-83.597h-83.406zM528.462 173.407v83.457h83.406v-83.457h-83.406zM528.462 28.655v83.47h83.406v-83.47h-83.406zM274.39 764.016h-48.229v126.483h477.358v-196.798h197.141v-199.342h-534.607v177.893c0 50.481-41.283 91.764-91.663 91.764zM296.577 81.388c0-12.099-10.19-22.251-22.187-22.251h-182.664c-12.010 0-22.315 10.152-22.315 22.251v590.864c0 12.073 10.305 22.264 22.315 22.264h182.664c11.997 0 22.187-10.19 22.187-22.264v-590.864zM773.057 841.456l78.254-78.279h-78.254v78.279zM1035.132 494.359h-65.099v248.5l-217.42 217.14h-595.94v-195.984h-64.946c-50.379 0-91.726-41.283-91.726-91.764v-644.526c0-50.443 41.347-91.726 91.726-91.726h943.406c50.558 0 91.853 41.283 91.853 91.726v374.945c0 50.418-41.296 91.688-91.853 91.688z" />
<glyph unicode="&#xe909;" glyph-name="phone" horiz-adv-x="640" d="M81.010 925.98c-102.647-88.955-96.341-340.537 21.428-591.616 117.438-251.127 305.114-414.189 437.362-388.997l-135.471 289.631c-14.421-12.62-26.34-27.98-34.854-45.672-61.867 28.103-126.711 97.83-170.951 191.782-43.918 94.303-56.386 189.724-38.827 256.303 18.991-4.115 38.116-4.475 56.728-0.967l-135.415 289.536zM459.226 261.746l135.566-289.517c20.29 17.655 36.39 41.927 48.071 71.253l-126.872 217.211c-19.029 4.399-38.021 4.399-56.766 1.052zM271.36 663.192l-135.604 289.593c26.34 4.978 54.936 2.399 84.708-6.466l85.751-237.255c-8.647-17.986-20.518-33.252-34.854-45.871z" />
<glyph unicode="&#xe90a;" horiz-adv-x="1260" d="M929.186 34.607c0-2.094-1.699-3.793-3.793-3.793h-826.794c-2.089 0-3.788 1.699-3.788 3.793v826.794c0 2.086 1.699 3.786 3.788 3.786h633.834v94.814h-633.834c-54.366 0-98.599-44.228-98.599-98.599v-826.794c0-54.379 44.233-98.607 98.599-98.607h826.794c54.371 0 98.607 44.228 98.607 98.607v368.122l-94.814-72.436v-295.686z" />
<glyph unicode="&#xe90b;" horiz-adv-x="1260" d="M236.308 127.478c0-11.377 0.286-22.698 0.823-33.939 68.485 270.395 314.695 435.686 624.903 478.632v-185.458l398.274 286.646-398.274 286.641v-163.151c-347.714-13.036-625.726-307.704-625.726-669.372z" />
<glyph unicode="&#xe90c;" glyph-name="location" horiz-adv-x="640" d="M538.924 371.996l-213.849-435.996-219.829 431.655c-64.645 77.7-105.246 182.508-105.246 275.591 0 174.938 143.405 316.754 320.303 316.754s320.303-141.816 320.303-316.754c0-91.361-39.113-194.016-101.682-271.25zM321.989 487.974c83.794 0 151.722 67.928 151.722 151.722s-67.928 151.723-151.722 151.723c-83.794 0-151.723-67.928-151.723-151.723s67.928-151.722 151.723-151.722z" />
<glyph unicode="&#xe90d;" horiz-adv-x="1092" d="M4.048 187.374c0-33.828 27.696-61.524 61.536-61.524h928.961c33.852 0 61.548 27.696 61.548 61.524v455.511c0 33.828-27.696 61.536-61.548 61.536h-928.961c-33.84 0-61.536-27.708-61.536-61.536v-455.511z" />
<glyph unicode="&#xe90e;" horiz-adv-x="1092" d="M141.673 125.85h776.794v165.527h-776.794z" />
<glyph unicode="&#xe90f;" horiz-adv-x="1092" d="M766.325 914.149l-36.744 36.731h-470.052v-246.459h543.551v172.972l-36.756 36.756z" />
<glyph unicode="&#xe910;" horiz-adv-x="1092" d="M259.53-61.048h543.551v268.939h-543.551z" />
<glyph unicode="&#xe911;" horiz-adv-x="1092" d="M141.673 704.422v-110.773c0-67.97 55.103-123.073 123.061-123.073h530.673c67.957 0 123.061 55.103 123.061 123.073v110.773h-776.794z" />
<glyph unicode="&#xe912;" horiz-adv-x="1092" d="M616.773 585.096c0-17.010-13.758-30.78-30.744-30.78-16.998 0-30.78 13.77-30.78 30.78 0 16.986 13.782 30.78 30.78 30.78 16.986 0 30.744-13.794 30.744-30.78z" />
<glyph unicode="&#xe913;" horiz-adv-x="1092" d="M719.342 585.096c0-17.010-13.794-30.78-30.78-30.78s-30.744 13.77-30.744 30.78c0 16.986 13.758 30.78 30.744 30.78s30.78-13.794 30.78-30.78z" />
<glyph unicode="&#xe914;" horiz-adv-x="1092" d="M821.911 585.096c0-17.010-13.794-30.78-30.78-30.78s-30.756 13.77-30.756 30.78c0 16.986 13.77 30.78 30.756 30.78s30.78-13.794 30.78-30.78z" />
<glyph unicode="&#xe915;" horiz-adv-x="811" d="M77.92-25.013c0-21.405-17.349-38.75-38.75-38.75s-38.748 17.345-38.748 38.75v937.759c0 21.401 17.347 38.75 38.748 38.75s38.75-17.349 38.75-38.75v-937.759z" />
<glyph unicode="&#xe916;" d="M331.242 378.936c66.071-89.041-33.573-188.684-122.614-122.614-0.886 0.657-1.691 1.46-2.349 2.346-66.068 89.044 33.576 188.684 122.617 122.617 0.886-0.657 1.691-1.463 2.346-2.349z" />
<glyph unicode="&#xe917;" d="M268.76-12.767c77.825 0 146.964 36.629 191.557 93.442-29.267 77.434-103.873 132.606-191.557 132.606-87.682 0-162.287-55.172-191.557-132.606 44.599-56.813 113.732-93.442 191.557-93.442z" />
<glyph unicode="&#xe918;" d="M268.766 449.375c-120.511 0-218.558-98.035-218.558-218.54s98.047-218.543 218.558-218.543c120.511 0 218.537 98.038 218.537 218.543s-98.026 218.54-218.537 218.54zM268.766-37.823c-148.137 0-268.672 120.517-268.672 268.657 0 148.137 120.535 268.654 268.672 268.654 148.14 0 268.648-120.517 268.648-268.654 0-148.14-120.508-268.657-268.648-268.657z" />
<glyph unicode="&#xe919;" d="M818.442 378.936c66.071-89.041-33.573-188.684-122.614-122.614-0.888 0.657-1.691 1.46-2.349 2.346-66.068 89.044 33.576 188.684 122.617 122.617 0.886-0.657 1.688-1.463 2.346-2.349z" />
<glyph unicode="&#xe91a;" d="M755.961-12.767c77.825 0 146.961 36.629 191.56 93.442-29.267 77.434-103.876 132.606-191.56 132.606-87.682 0-162.287-55.172-191.557-132.606 44.599-56.813 113.732-93.442 191.557-93.442z" />
<glyph unicode="&#xe91b;" d="M755.952 449.375c-120.511 0-218.537-98.035-218.537-218.54s98.026-218.543 218.537-218.543c120.511 0 218.558 98.038 218.558 218.543s-98.047 218.54-218.558 218.54zM755.952-37.823c-148.137 0-268.648 120.517-268.648 268.657 0 148.137 120.511 268.654 268.648 268.654s268.672-120.517 268.672-268.654c0-148.14-120.535-268.657-268.672-268.657z" />
<glyph unicode="&#xe91c;" d="M574.843 813.057c66.068-89.044-33.576-188.684-122.617-122.617-0.886 0.657-1.691 1.463-2.346 2.349-66.071 89.041 33.573 188.684 122.614 122.614 0.886-0.657 1.691-1.46 2.349-2.346z" />
<glyph unicode="&#xe91d;" d="M512.362 421.354c77.825 0 146.961 36.626 191.557 93.439-29.267 77.437-103.876 132.606-191.557 132.606-87.684 0-162.29-55.169-191.557-132.606 44.596-56.813 113.732-93.439 191.557-93.439z" />
<glyph unicode="&#xe91e;" d="M512.359 883.493c-120.511 0-218.534-98.035-218.534-218.54s98.023-218.54 218.534-218.54c120.511 0 218.537 98.035 218.537 218.54s-98.026 218.54-218.537 218.54zM512.359 396.299c-148.137 0-268.648 120.517-268.648 268.654s120.511 268.654 268.648 268.654c148.137 0 268.648-120.517 268.648-268.654s-120.511-268.654-268.648-268.654z" />
<glyph unicode="&#xe91f;" d="M654.911 15.637c-25.796 1.449-52.241-3.287-77.849 1.077-12.207 2.088-16.437 12.852-25.431 19.723-7.226 5.522-15.415 6.986-24.092 4.202-3.146-1.001-6.067-2.879-8.904-4.531-6.986-4.063-13.156-5.271-21.251-5.547-14.736-0.509-28.907 0.773-43.646-0.91-12.902-1.481-25.448-5.476-38.189-7.923-14.682-2.808-27.338 0.42-41.613 3.352-19.289 3.955-41.093-4.448-45.739-25.447-2.455-11.119 4.254-20.589 13.141-27.825 46.448-14.671 95.887-22.608 147.198-22.608 75.159 0 146.338 17.004 209.93 47.343-0.035 16.876-33.073 18.496-43.555 19.095z" />
<glyph unicode="&#xe920;" d="M316.421 768.026c5.767 0.075 8.963 4.069 9.623 8.499 6.495 7.205 7.726 15.626 7.645 25.625-0.1 12.94 13.858 19.984 24.154 24.77 11.802 5.484 1.532 22.885-10.182 17.428-6.436-2.994-12.923-6.695-18.535-11.314-2.258 0.036-4.581-0.646-6.717-2.372-11.383-9.224-23.018-15.015-37.769-15.726-14.084-0.683-26.496 7.801-39.461 11.924-14.532 4.633-31.418 2.253-45.727-3.569-65.949-45.908-120.036-107.659-156.732-179.747-5.742-18.595-7.547-35.829-2.212-48.302 4.874-11.442 9.587-20.122 7.814-33.023-1.069-7.718-1.578-14.503 0.003-22.187 4.286-20.873 32.369-22.506 35.358-43.111 0.888-6.11 5.759-8.026 10.425-7.033-0.532-1.332-0.959-2.732-1.157-4.241-1.549-11.895 5.323-19.408 11.934-28.473 2.187-3 5.207-4.289 8.201-4.366-0.624-1.052-1.231-2.106-1.785-3.167-6.377-12.102-9.439-22.401-13.424-34.598-2.545-3.792-4.711-7.685-6.326-11.622-1.021-1.393-1.667-2.861-1.932-4.337-0.487-0.637-0.953-1.351-1.342-2.223-10.735-24.318-3.291-47.832 12.805-69.089 9.146-12.060 20.237-22.665 30.599-33.667 12.107-12.837 17.137-26.184 24.146-41.611 4.294-9.453 17.152-8.822 18.116-20.313 1.481-17.506 1.19-32.468 6.009-49.765 9.772-35.23 28.519-64.87 30.189-102.467 0.121-2.941 1.278-5.173 2.951-6.778 3.638-5.018 12.793-6.976 17.854-0.337 7.86 10.289 16.443 18.688 19.686 31.583 1.214 4.825 1.209 11.894-0.493 16.559-1.682 4.6-10.391 17.829-8.363 19.471 6.61 5.353 10.721 15.512 9.137 23.894-0.773 4.181-2.34 7.71-4.397 11.409-5.159 9.26 8.758 20.802 14.3 27.444 19.725 23.604 34.098 65.007 35.374 95.464 0.436 10.545-1.276 18.657 4.599 28.416 4.068 6.752 8.054 12.643 10.578 20.166 3.203 9.528-2.3 19.207-8.501 25.876-16.737 18.008-48.858 14.649-61.853 36.149-4.771 7.895-9.834 21.984-20.131 24.517-5.295 1.299-15.722-0.463-19.191 4.315-4.556 6.288-6.249 14.324-11.3 20.446-5.075 6.149-10.873 7.826-18.466 9.198-9.058 1.648-21.501 12.522-31.088 9.223-6.597-2.284-12.522-6.256-17.574-11.183-0.268 0.528-0.569 1.052-0.953 1.583-2.456 3.374-11.059 13.271-7.297 17.328 3.188 3.452 4.617 6.667 5.281 11.219 0.722 4.901-0.456 11.862-4.767 15.227 0.029 0.009 0.069 0.009 0.089 0.026 2.888 1.976 5.009 4.040 6.425 7.24 3.283 7.425-0.765 12.967-5.35 18.609-3.709 4.585-10.359 3.181-14.267 0-7.571-6.156-12.39-10.934-13.212 0.595-0.63 8.773 1.824 17.602 4.683 25.803 4.090 11.702 14.375 20.8 24.615 27.044 16.328 9.951 20.196-22.843 21.686-30.967 2.016-11.025 16.089-8.091 19.456 0 7.192 17.237 5.468 31.698 18.713 46.903 9.126 10.481 18.954 19.756 26.69 31.42 6.506 9.786 10.097 14.366 20.9 19.398 9.492 4.418 18.76 9.392 25.957 17.126 8.077 8.685 8.255 16.791 20.112 9.331 4.734-2.973 12.020-4.388 17.060-1.351 15.248 9.187 17.85 30.858 19.49 46.878 1.243 12.025-3.796 37.36-21.487 32.497-11.405-3.132-38.408-51.751-48.672-25.914-10.13 25.503 63.602 32.079 78.005 32.251z" />
<glyph unicode="&#xe921;" d="M368.149 806.452c-8.99-10.673-13.518-22.444-12.958-36.403 0.514-12.978 20.697-13.026 20.18 0-0.010 0.211 0.017 0.417 0.008 0.621 15.484 11.834 29.43 23.701 47.745 31.35 10.641 4.432 17.596 11.076 23.506 20.718 10.57 17.257 15.485 45.049-4.965 56.798-22.232 12.74-53.316-10.701-51.806-34.267 1.069-16.776-11.849-27.113-21.71-38.817z" />
<glyph unicode="&#xe922;" d="M651.519 239.876c24.596-11.594 31.989 50.424 31.448 61.734 0 0-0.008 0.057-0.027 0.085 0.889 1.277 1.774 2.545 2.602 3.78 7.029 10.51-9.908 20.291-16.871 9.86-5.186-7.752-9.845-15.326-12.831-24.204-2.317-6.87 2.758-16.448-2.722-21.534-7.125-6.62-13.928-23.911-1.598-29.722z" />
<glyph unicode="&#xe923;" d="M683.927 552.576c-4.975 2.589-11.687 2.655-16.573-0.254-4.628-2.757-7.763-0.833-8.039-0.824-2.139 2.546-4.309 5.034-6.641 7.506-14.98 15.938-27.714 30.447-51.331 31.558-30.227 1.419-61.756-12.175-90.719 1.349-17.681 8.233-24.641 32.796-46.241 35.135-8.578 0.932-14.496-5.301-22.249-8.215-10.568-3.979-22.349-3.984-31.553-11.214-15.95-12.533-20.981-35.695-34.546-51.016-14.766-16.668-25.904-31.83-28.603-54.467-3.83-31.998 30.149-57.833 55.607-68.537 13.206-5.566 29.016-5.402 43.094-6.115 21.715-1.095 32.817-13.672 43.609-31.682 11.467-19.16 19.143-40.845 19.447-63.264 0.233-17.408-11.051-31.009-8.1-48.989 4.769-28.937 37.961-64.054 20.614-92.616-1.276-2.101-1.717-4.147-1.584-6.063-5.091-6.626 0.725-19.468 11.545-17.215 34.067 7.071 68.854 46.206 69.1 81.273 0.078 11.024-3.222 12.276 5.415 21.296 6.48 6.795 12.495 14.877 15.904 23.664 9.294 23.981 3.962 49.968 15.545 73.647 5.539 11.346 13.771 21.19 20.667 31.682 7.154 10.876 9.721 22.846 14.949 34.498 4.283 9.577 8.87 34.574-6.479 37.853-17.164 3.677 4.367 19.688 9.976 24.519 9.489 8.184 20.578 16.565 23.949 29.237 3.334 12.522-6.808 22.083-16.762 27.255z" />
<glyph unicode="&#xe924;" d="M806.62 516.385c4.932 20.832 19.515 13.167 29.076 1.631 5.229-6.313 13.191-9.472 20.709-11.979 22.259-7.417 30.176-25.636 32.709-45.601-0.036-0.94 0.072-1.798 0.285-2.607 0.901-8.672 0.888-17.592 0.643-26.059-0.659-21.983 4.997-40.293 15.868-59.205 5.534-9.655 43.976-52.029 47.857-18.649 0.604 5.139-0.544 11.838-3.298 16.262-2.078 3.358-4.214 6.045-6.762 9.096-5.11 6.128 5.753 10.627 8.257 13.243 12.711 13.332 14.798 31.203 8.797 48.155-2.391 6.751-11.714 10.795-17.176 4.539-16.906-19.403-25.645 3.617-30.93 22.471 3.839 11.43 7.336 23.867 1.601 34.859-7.086 13.594-19.192 22.782-28.341 34.62-0.176 1.164-0.534 2.363-1.209 3.586-3.252 4.366-4.323 9.182-3.187 14.466 2.053-0.513 4.132-0.884 6.251-1.099 6.303-0.083 13.268 0.647 18.796 4.081 10.618 6.568 17.132 16.867 15.050 29.8-3.029 18.789-14.261 32.101-26.722 45.838-3.473 3.835-7.922 8.566-12.297 13.737 8.34-5.092 18.704 6.279 13.423 14.419-19.813 30.488-33.727 64.887-54.843 94.457-8.004 11.215-18.905 18.304-30.708 24.972-7.979 4.508-15.84 8.704-23.037 14.459-9.048 7.262-12.181 19.33-18.833 28.463-19.016 26.145-48.854 43.128-81.357 40.764-15.359-1.125-29.959-7.795-44.31-12.792-10.272-3.574-19.956-5.668-30.734-3-8.768 2.157-16.354 6.212-25.44 7.487-5.056 0.715-11.646-1.152-12.634-7.174-3.548-21.55-15.809-34.462-35.992-42.141-1.876-0.715-3.302-1.83-4.398-3.129-0.876-0.052-1.742-0.142-2.618-0.19-9.427-0.452-13.661 5.442-21.682 7.814-8.913 2.648-14.274-0.355-21.033-6.108-0.666-0.57-3.231-3.524-3.604-4.119-4.687-7.671-5.256-12.833-5.287-12.938-1.651-7.563-2.779-19.993-2.844-20.856 0-0.038-2.178-1.912-2.797-3.206-2.096-4.414-5.751-5.755-10.768-7.239-8.496-2.497-9.23-13.165-2.342-17.858 3.998-2.724 8.655-4.126 13.426-4.779 0.044-0.040 0.075-0.1 0.104-0.147 0.323-0.325 1.653-2.074 0.562-0.367 0.491-0.772 1.091-1.42 1.734-2.024 0.177-1.071 0.315-2.133 0.532-3.22 2.783-13.73-16.296-21.87-24.905-29.806-7.25-6.678-9.794-15.063-9.311-24.566 0.694-13.678-12.684-12.56-17.758-24.057-2.239-5.061-1.593-11.075 3.684-14.054 14.308-8.104 25.905-1.831 35.696 9.828 7.754 9.216 12.594 22.821 27.169 15.396 11.3-5.755 19.659-19.233 27.527-28.753 6.842-8.28 19.64 0.64 17.172 9.989-1.066 4.053-2.679 7.792-4.316 11.644-6.831 16.095 10.093 2.258 15.805-3.094 5.691-5.319 10.132-12.651 16.585-17.069 9.636-6.615 19.786-9.202 30.228-14.27 7.718-3.755 13.916-11.378 21.639-15.562 6.775-3.688 14.938-4.449 22.445-5.411 22.738-2.874 35.393-22.876 54.476-33.314 7.646-4.178 16.289-4.719 24.702-6.134 13.251-2.218 9.853-10.679 14.669-18.891 5.752-9.823 16.8-12.876 26.637-8.029 4.668 2.295 5.864 10.712 5.916 3.317s0.62-13.899 2.402-21.128c4.258-17.207 14.707-33.927 27.017-46.452 5.806-5.902 14.55-2.478 17.173 4.529 6.197 16.554-8.741 27.946-5.146 43.154z" />
<glyph unicode="&#xe925;" d="M929.863 302.95c-14.656-0.626-25.457-13.247-33.692-24.101-14.786-19.485-22.144 8.406-38.024-0.898-19.549-11.452-20.465-46.221-34.455-62.453-10.43-12.108-25.097-23.415-22.039-41.121 3.17-18.323 28.596-13.804 47.712-7.335-2.297-18.251-20.326-39.596-6.952-56.043 4.721-5.812 10.699-7.129 16.85-6.132 39.224 45.751 70.111 98.836 90.357 156.919-0.557 0.419-1.118 0.804-1.738 1.105 0.751 17.877-0.009 40.808-18.021 40.058z" />
<glyph unicode="&#xe926;" d="M654.911 5.359c-25.796 1.45-52.241-3.284-77.849 1.078-12.207 2.089-16.437 12.852-25.431 19.725-7.226 5.522-15.415 6.986-24.092 4.199-3.146-0.997-6.067-2.878-8.904-4.527-6.986-4.065-13.156-5.272-21.251-5.549-14.736-0.51-28.907 0.775-43.646-0.909-12.902-1.483-25.448-5.478-38.189-7.923-14.682-2.809-27.338 0.418-41.613 3.351-19.289 3.956-41.093-4.448-45.739-25.447-2.455-11.119 4.254-20.588 13.141-27.825 46.448-14.67 95.887-22.607 147.198-22.607 75.159 0 146.338 17.004 209.93 47.34-0.035 16.879-33.073 18.497-43.555 19.095z" />
<glyph unicode="&#xe927;" d="M310.685 779.455c5.765 0.075 8.963 4.069 9.623 8.5 6.494 7.204 7.726 15.624 7.644 25.625-0.098 12.94 13.859 19.984 24.156 24.769 11.802 5.484 1.532 22.885-10.183 17.428-6.434-2.994-12.921-6.693-18.534-11.314-2.258 0.036-4.581-0.646-6.717-2.372-11.383-9.224-23.018-15.015-37.77-15.726-14.083-0.685-26.495 7.801-39.458 11.924-14.533 4.634-31.419 2.253-45.73-3.571-65.948-45.907-120.034-107.658-156.731-179.747-5.743-18.592-7.546-35.827-2.212-48.301 4.872-11.442 9.587-20.122 7.813-33.023-1.069-7.718-1.578-14.503 0.004-22.187 4.286-20.874 32.369-22.506 35.358-43.111 0.886-6.111 5.759-8.028 10.425-7.033-0.532-1.332-0.959-2.732-1.157-4.24-1.549-11.896 5.323-19.41 11.934-28.475 2.186-3 5.207-4.289 8.201-4.366-0.622-1.052-1.233-2.106-1.785-3.166-6.376-12.102-9.439-22.402-13.424-34.599-2.545-3.792-4.711-7.684-6.328-11.622-1.019-1.393-1.666-2.861-1.932-4.337-0.487-0.638-0.953-1.35-1.341-2.222-10.734-24.318-3.293-47.835 12.803-69.090 9.146-12.062 20.239-22.665 30.599-33.666 12.108-12.839 17.137-26.185 24.148-41.613 4.294-9.454 17.151-8.82 18.116-20.312 1.48-17.508 1.188-32.469 6.009-49.769 9.772-35.228 28.519-64.869 30.188-102.466 0.122-2.937 1.281-5.17 2.952-6.775 3.638-5.017 12.793-6.976 17.854-0.336 7.86 10.286 16.443 18.687 19.684 31.579 1.216 4.823 1.211 11.895-0.493 16.558-1.682 4.599-10.39 17.833-8.361 19.475 6.609 5.351 10.718 15.51 9.135 23.891-0.775 4.181-2.34 7.71-4.397 11.412-5.159 9.262 8.758 20.8 14.3 27.44 19.725 23.608 34.098 65.008 35.374 95.466 0.436 10.544-1.276 18.658 4.599 28.416 4.068 6.752 8.054 12.642 10.578 20.166 3.203 9.528-2.3 19.205-8.501 25.876-16.737 18.008-48.859 14.651-61.853 36.149-4.771 7.895-9.834 21.984-20.131 24.517-5.295 1.299-15.721-0.463-19.191 4.316-4.556 6.287-6.249 14.323-11.303 20.443-5.071 6.151-10.87 7.827-18.465 9.2-9.057 1.647-21.5 12.521-31.087 9.221-6.597-2.284-12.522-6.255-17.574-11.183-0.267 0.53-0.569 1.052-0.952 1.582-2.458 3.377-11.059 13.272-7.299 17.328 3.188 3.453 4.617 6.667 5.281 11.221 0.722 4.902-0.456 11.862-4.767 15.227 0.029 0.012 0.068 0.012 0.090 0.027 2.886 1.976 5.008 4.040 6.423 7.24 3.284 7.424-0.765 12.967-5.349 18.608-3.71 4.586-10.36 3.181-14.268 0-7.571-6.154-12.388-10.934-13.211 0.596-0.63 8.772 1.822 17.6 4.685 25.801 4.087 11.705 14.373 20.801 24.615 27.047 16.327 9.951 20.194-22.846 21.685-30.969 2.016-11.025 16.088-8.093 19.455 0 7.194 17.238 5.47 31.698 18.713 46.903 9.127 10.483 18.957 19.756 26.691 31.42 6.506 9.787 10.097 14.366 20.899 19.398 9.493 4.419 18.761 9.392 25.957 17.128 8.078 8.684 8.255 16.791 20.114 9.329 4.733-2.974 12.020-4.387 17.060-1.351 15.248 9.187 17.85 30.858 19.49 46.879 1.243 12.024-3.797 37.359-21.487 32.496-11.405-3.132-38.407-51.751-48.673-25.914-10.13 25.503 63.603 32.079 78.007 32.251z" />
<glyph unicode="&#xe928;" d="M368.149 817.88c-8.99-10.669-13.518-22.443-12.958-36.401 0.514-12.979 20.697-13.026 20.18 0-0.010 0.21 0.017 0.415 0.008 0.621 15.484 11.832 29.43 23.7 47.745 31.349 10.641 4.431 17.596 11.076 23.506 20.718 10.57 17.257 15.485 45.049-4.965 56.798-22.232 12.74-53.316-10.703-51.806-34.267 1.069-16.775-11.849-27.113-21.71-38.818z" />
<glyph unicode="&#xe929;" d="M651.519 251.308c24.596-11.597 31.989 50.42 31.448 61.732 0 0-0.008 0.057-0.027 0.086 0.889 1.276 1.774 2.544 2.602 3.779 7.029 10.509-9.908 20.291-16.871 9.862-5.186-7.752-9.845-15.329-12.831-24.204-2.317-6.872 2.758-16.45-2.722-21.531-7.125-6.623-13.928-23.917-1.598-29.723z" />
<glyph unicode="&#xe92a;" d="M683.927 564.005c-4.975 2.589-11.687 2.655-16.573-0.254-4.628-2.757-7.763-0.833-8.039-0.824-2.139 2.546-4.309 5.035-6.641 7.507-14.98 15.938-27.714 30.445-51.331 31.557-30.227 1.419-61.756-12.175-90.719 1.349-17.681 8.233-24.641 32.796-46.241 35.135-8.578 0.932-14.496-5.301-22.249-8.215-10.568-3.979-22.349-3.984-31.553-11.214-15.95-12.533-20.981-35.695-34.546-51.016-14.766-16.668-25.904-31.83-28.603-54.466-3.83-31.998 30.149-57.836 55.607-68.538 13.206-5.566 29.016-5.402 43.094-6.114 21.715-1.095 32.817-13.673 43.609-31.683 11.467-19.16 19.143-40.846 19.447-63.262 0.233-17.408-11.051-31.010-8.1-48.991 4.769-28.937 37.961-64.051 20.614-92.617-1.276-2.098-1.717-4.149-1.584-6.063-5.091-6.626 0.725-19.463 11.545-17.216 34.067 7.072 68.854 46.21 69.1 81.275 0.078 11.024-3.222 12.276 5.415 21.294 6.48 6.796 12.495 14.88 15.904 23.666 9.294 23.981 3.962 49.967 15.545 73.646 5.539 11.347 13.771 21.192 20.667 31.683 7.154 10.876 9.721 22.846 14.949 34.496 4.283 9.577 8.87 34.576-6.479 37.852-17.164 3.679 4.367 19.689 9.976 24.521 9.489 8.182 20.578 16.564 23.949 29.236 3.334 12.522-6.808 22.083-16.762 27.255z" />
<glyph unicode="&#xe92b;" d="M806.62 527.814c4.932 20.832 19.515 13.165 29.076 1.63 5.229-6.312 13.191-9.471 20.709-11.978 22.259-7.417 30.176-25.637 32.709-45.601-0.036-0.94 0.072-1.796 0.285-2.607 0.901-8.672 0.888-17.592 0.643-26.059-0.659-21.983 4.997-40.293 15.868-59.205 5.534-9.655 43.976-52.029 47.857-18.649 0.604 5.14-0.544 11.838-3.298 16.263-2.078 3.358-4.214 6.045-6.762 9.094-5.11 6.13 5.753 10.628 8.257 13.246 12.711 13.332 14.798 31.202 8.797 48.155-2.391 6.749-11.714 10.795-17.176 4.539-16.906-19.403-25.645 3.616-30.93 22.47 3.839 11.431 7.336 23.868 1.601 34.859-7.086 13.595-19.192 22.784-28.341 34.62-0.176 1.164-0.534 2.363-1.209 3.586-3.252 4.366-4.323 9.182-3.187 14.466 2.053-0.513 4.132-0.884 6.251-1.099 6.303-0.083 13.268 0.647 18.796 4.081 10.618 6.567 17.132 16.869 15.050 29.801-3.029 18.787-14.261 32.101-26.722 45.838-3.473 3.835-7.922 8.566-12.297 13.737 8.34-5.092 18.704 6.278 13.423 14.418-19.813 30.49-33.727 64.887-54.843 94.457-8.004 11.215-18.905 18.303-30.708 24.97-7.979 4.509-15.84 8.706-23.037 14.461-9.048 7.262-12.181 19.33-18.833 28.463-19.016 26.145-48.854 43.128-81.357 40.764-15.359-1.126-29.959-7.795-44.31-12.792-10.272-3.573-19.956-5.666-30.734-3-8.768 2.157-16.354 6.213-25.44 7.487-5.056 0.715-11.646-1.152-12.634-7.174-3.548-21.548-15.809-34.462-35.992-42.14-1.876-0.715-3.302-1.831-4.398-3.131-0.876-0.052-1.742-0.141-2.618-0.19-9.427-0.452-13.661 5.444-21.682 7.815-8.913 2.648-14.274-0.358-21.033-6.109-0.666-0.569-3.231-3.522-3.604-4.119-4.687-7.671-5.256-12.832-5.287-12.938-1.651-7.563-2.779-19.993-2.844-20.856 0-0.038-2.178-1.913-2.797-3.206-2.096-4.413-5.751-5.753-10.768-7.239-8.496-2.497-9.23-13.165-2.342-17.858 3.998-2.724 8.655-4.126 13.426-4.78 0.044-0.039 0.075-0.099 0.104-0.144 0.323-0.327 1.653-2.075 0.562-0.368 0.491-0.771 1.091-1.42 1.734-2.024 0.177-1.071 0.315-2.132 0.532-3.219 2.783-13.732-16.296-21.87-24.905-29.808-7.25-6.678-9.794-15.063-9.311-24.564 0.694-13.678-12.684-12.561-17.758-24.057-2.239-5.062-1.593-11.076 3.684-14.056 14.308-8.104 25.905-1.831 35.696 9.828 7.754 9.216 12.594 22.821 27.169 15.396 11.3-5.755 19.659-19.233 27.527-28.753 6.842-8.28 19.64 0.64 17.172 9.989-1.066 4.053-2.679 7.792-4.316 11.644-6.831 16.097 10.093 2.258 15.805-3.094 5.691-5.319 10.132-12.651 16.585-17.068 9.636-6.617 19.786-9.203 30.228-14.272 7.718-3.755 13.916-11.377 21.639-15.562 6.775-3.688 14.938-4.45 22.445-5.41 22.738-2.875 35.393-22.876 54.476-33.316 7.646-4.178 16.289-4.719 24.702-6.132 13.251-2.218 9.853-10.68 14.669-18.893 5.752-9.823 16.8-12.875 26.637-8.029 4.668 2.296 5.864 10.714 5.916 3.317s0.62-13.901 2.402-21.128c4.258-17.207 14.707-33.927 27.017-46.451 5.806-5.903 14.55-2.48 17.173 4.527 6.197 16.554-8.741 27.946-5.146 43.154z" />
<glyph unicode="&#xe92c;" d="M940.413 303.83c-14.656-0.626-25.456-13.247-33.693-24.101-14.783-19.482-22.146 8.406-38.025-0.897-19.546-11.45-20.463-46.218-34.453-62.451-10.429-12.112-25.097-23.414-22.039-41.122 3.17-18.324 28.592-13.806 47.711-7.336-2.295-18.251-20.323-39.595-6.95-56.044 4.721-5.812 10.7-7.127 16.852-6.13 39.223 45.748 70.109 98.836 90.351 156.919-0.552 0.417-1.112 0.803-1.731 1.105 0.751 17.876-0.009 40.808-18.022 40.057z" />
<glyph unicode="&#xe92d;" d="M881.501 380.608c0 20.968-16.971 37.96-37.961 37.96-20.959 0-37.933-16.992-37.933-37.96 0-17.436 11.749-32.106 27.76-36.552l28.346-24.115-1.716 26.463c12.732 6.128 21.504 19.138 21.504 34.203z" />
<glyph unicode="&#xe92e;" d="M846.608 370.63h-6.155v-10.103h-11.126v28.444h11.126v-10.060h6.155v10.060h11.164v-28.444h-11.164v10.103z" />
<glyph unicode="&#xe92f;" d="M846.59 364.129h28.444v19.383h-28.444v-19.383zM846.59 388.556c0 0.552 0.378 1.074 1.12 1.561 0.756 0.485 1.769 0.913 3.055 1.278 1.292 0.365 2.803 0.653 4.533 0.861 1.723 0.212 3.552 0.316 5.514 0.316s3.804-0.105 5.527-0.316c1.723-0.208 3.241-0.496 4.526-0.861s2.3-0.794 3.055-1.278c0.749-0.487 1.113-1.009 1.113-1.561s-0.365-1.072-1.113-1.559c-0.756-0.487-1.769-0.912-3.055-1.278s-2.803-0.651-4.526-0.863c-1.723-0.21-3.565-0.314-5.527-0.314s-3.791 0.105-5.514 0.314c-1.73 0.212-3.241 0.498-4.533 0.863-1.286 0.367-2.3 0.792-3.055 1.278-0.742 0.487-1.12 1.007-1.12 1.559z" />
<glyph unicode="&#xe930;" d="M857.627 364.679c0-0.604 0.278-1.16 0.869-1.673 0.571-0.513 1.342-0.961 2.314-1.336 0.972-0.377 2.108-0.67 3.373-0.88 1.28-0.216 2.648-0.32 4.108-0.32s2.833 0.104 4.108 0.32c1.26 0.21 2.401 0.503 3.368 0.88 0.977 0.375 1.733 0.823 2.283 1.336 0.54 0.513 0.818 1.069 0.818 1.673 0 0.602-0.278 1.158-0.818 1.675-0.55 0.511-1.306 0.956-2.283 1.334-0.967 0.375-2.108 0.676-3.368 0.899-1.275 0.229-2.648 0.339-4.108 0.339s-2.828-0.11-4.108-0.339c-1.265-0.223-2.401-0.524-3.373-0.899-0.972-0.377-1.743-0.823-2.314-1.334-0.591-0.517-0.869-1.073-0.869-1.675zM876.863 370.284l-15.96 0.452-6.458 13.761c-0.195 0.452-0.283 0.829-0.283 1.128 0 0.5 0.329 0.965 0.998 1.393 0.663 0.424 1.522 0.736 2.555 0.937 1.095 0.227 6.438 0.539 16.037 0.942 2.802 0.074 4.838-0.089 6.119-0.488 1.825-0.655 2.735-1.442 2.735-2.371 0-0.352-0.087-0.776-0.283-1.279l-5.461-14.475z" />
<glyph unicode="&#xe931;" d="M949.244 349.486c0.888 6.028-2.835 9.931-7.624 11.17-1.592 13.651-13.294 9.393-17.371 5.67 0.225 6.446-2.782 9.647-6.337 10.609v-46.625l16.619-0.147c0 0-1.33-8.423 1.062-10.814 7.276-7.276 12.054 6.205 10.637 7.978 5.674 1.241 8.685 6.205 9.219 11.346 0.532 5.142-2.659 10.283-6.205 10.814z" />
<glyph unicode="&#xe932;" d="M907.052 370.759c-4.611 3.369-12.589-0.354-12.766-4.786-12.233-0.709-12.233-12.408-9.573-16.31-4.788-0.354-4.965-10.992-1.597-14.713 3.369-3.724 11.347-4.434 11.347-4.434l23.449-0.207v46.625c-4.864 1.315-10.757-1.566-10.86-6.175z" />
<glyph unicode="&#xe933;" d="M499.421 497.673c0-16.202 15.231-29.334 34.020-29.334h22.66c18.791 0 34.024 13.131 34.024 29.334 0 16.198-15.232 29.331-34.024 29.331h-22.66c-18.789 0-34.020-13.133-34.020-29.331z" />
<glyph unicode="&#xe934;" d="M538.687 504.341v-8.139c-1.287 0.183-2.925 0.354-4.906 0.509-1.99 0.157-3.699 0.234-5.117 0.234-1.822 0-3.127-0.154-3.919-0.468-0.593-0.21-0.893-0.629-0.893-1.253 0-1.094 1.012-1.641 3.023-1.641h1.489c3.907 0 6.548-0.354 7.942-1.056 2.216-1.017 3.329-3.145 3.329-6.382 0-3.418-1.143-5.816-3.427-7.199-2.121-1.251-5.444-1.875-9.978-1.875-3.739 0-8.339 0.337-13.793 1.015v6.888c2.977-0.419 6.202-0.627 9.678-0.627 2.112 0 3.473 0.116 4.066 0.352 0.529 0.236 0.795 0.668 0.795 1.292 0 0.571-0.232 0.976-0.694 1.212-0.394 0.287-1.211 0.417-2.43 0.39-3.448-0.077-5.921 0.065-7.447 0.431-2.085 0.494-3.555 1.747-4.42 3.755-0.526 1.227-0.795 2.743-0.795 4.543 0 3.883 1.476 6.454 4.417 7.705 2.323 0.991 5.811 1.487 10.476 1.487 3.702 0 7.908-0.393 12.604-1.174z" />
<glyph unicode="&#xe935;" d="M537.026 493.721c-2.274 0-3.41-1.523-3.41-4.577 0-3.499 1.12-5.248 3.367-5.248 1.106 0 1.903 0.343 2.401 1.034 0.611 0.777 0.923 2.183 0.923 4.215 0 1.796-0.296 3.024-0.88 3.684-0.525 0.594-1.327 0.893-2.401 0.893zM552.929 502.607v-26.877h-10.921c-0.732 1.318-1.44 1.617-2.14 0.901-1.112-1.020-2.885-1.526-5.334-1.526-3.553 0-6.042 1.028-7.471 3.093-1.72 2.606-2.578 6.672-2.578 12.205 0 2.603 0.242 4.776 0.724 6.528 0.479 1.752 1.211 3.178 2.207 4.287 1.421 1.556 3.676 2.333 6.769 2.333 2.855 0 5.638-0.481 8.343-1.434 3.356-0.837 6.822-0.674 10.402 0.492z" />
<glyph unicode="&#xe936;" d="M575.919 503.126v-16.268c0-1.512-0.114-2.984-0.33-4.406-0.257-1.545-0.828-2.835-1.711-3.863-0.889-1.033-2.173-1.881-3.849-2.544-2.185-0.91-4.969-1.363-8.358-1.363-5.884 0-9.985 1.377-12.295 4.131-1.269 1.486-1.901 4.168-1.901 8.045v16.268h11.821l0.053-13.724c0-0.938 0.091-1.699 0.284-2.27 0.287-0.848 0.977-1.271 2.088-1.271 1.138 0 1.851 0.423 2.138 1.271 0.155 0.571 0.243 1.332 0.243 2.27l-0.058 13.724h11.877z" />
<glyph unicode="&#xe937;" d="M589.739 500.663v-7.851h-10v-7.139c0-0.712 0.039-1.171 0.116-1.38 0.419-0.87 1.755-1.305 3.996-1.305 0.953 0 1.998 0.080 3.137 0.238 0.763 0.078 1.358 0.143 1.776 0.197l-0.397-5.8c-4.115-0.549-7.808-0.826-11.076-0.826-4.608 0-7.766 0.566-9.49 1.696-1.171 0.79-1.878 1.839-2.107 3.156-0.039 0.262-0.056 0.814-0.056 1.655v9.508h-4.344v4.853c5.104 0 7.685 1.256 7.742 3.766 0.053 2.51 1.055 3.781 2.997 3.81h7.706v-4.578h10z" />
<glyph unicode="&#xe938;" d="M576.488 480.955c0-0.6 0.281-1.16 0.871-1.672 0.567-0.516 1.348-0.959 2.326-1.336 0.966-0.375 2.096-0.669 3.371-0.882s2.646-0.322 4.101-0.322c1.466 0 2.826 0.109 4.101 0.322 1.287 0.213 2.41 0.507 3.382 0.882 0.972 0.378 1.73 0.82 2.275 1.336 0.545 0.512 0.831 1.072 0.831 1.672 0 0.602-0.287 1.158-0.831 1.672-0.545 0.516-1.303 0.959-2.275 1.336-0.972 0.375-2.096 0.679-3.382 0.903-1.275 0.225-2.635 0.338-4.101 0.338-1.455 0-2.826-0.113-4.101-0.338s-2.405-0.528-3.371-0.903c-0.978-0.378-1.758-0.82-2.326-1.336-0.59-0.514-0.871-1.070-0.871-1.672zM595.73 486.557l-15.961 0.452-6.472 13.761c-0.185 0.449-0.27 0.829-0.27 1.126 0 0.503 0.326 0.968 0.994 1.392 0.669 0.428 1.517 0.741 2.556 0.94 1.090 0.227 6.444 0.54 16.051 0.94 2.787 0.076 4.832-0.086 6.107-0.491 1.831-0.648 2.736-1.438 2.736-2.367 0-0.35-0.090-0.778-0.27-1.276l-5.472-14.477z" />
<glyph unicode="&#xe939;" d="M561.91 375.285v70.174c0 0-15.462-0.462-21.237-5.773-5.767-5.307-10.614-5.54-14.54-25.621-0.502-2.58-2.778-5.393-2.076-12.694 1.153-12.003 9.695-11.309 10.155-12.233 0.463-0.924-9.232-15.467 27.699-13.853z" />
<glyph unicode="&#xe93a;" d="M561.91 375.285v70.174c0 0 15.468-0.462 21.235-5.773 5.772-5.307 10.622-5.54 14.544-25.621 0.504-2.58 2.78-5.393 2.078-12.694-1.155-12.003-9.692-11.309-10.156-12.233-0.461-0.924 9.232-15.467-27.7-13.853z" />
<glyph unicode="&#xe93b;" d="M562.283 436.515c-0.102 0.002-0.202 0.002-0.306 0.002-18.515 0-27.347-23.886-27.738-24.785-0.628-1.455-0.579-2.841 0.691-3.563 0.367-0.206 1.5-0.234 2.379 1.523 0.091 0.184 9.376 18.474 24.68 18.474 0.090 0 0.177 0 0.263-0.003 0 0 0.021 0 0.029 0h0.009v8.352h-0.007z" />
<glyph unicode="&#xe93c;" d="M561.926 436.515c0.103 0.002 0.204 0.002 0.305 0.002 18.517 0 27.351-23.886 27.736-24.785 0.629-1.455 0.584-2.841-0.69-3.563-0.365-0.206-1.499-0.234-2.379 1.523-0.091 0.184-9.377 18.474-24.68 18.474-0.083 0-0.174 0-0.26-0.003-0.009 0-0.024 0-0.032 0h-0.008v8.352h0.008z" />
<glyph unicode="&#xe93d;" d="M483.741 917.873c0 21.395-15.942 38.737-35.605 38.737h-37.236c-19.666 0-35.607-17.342-35.607-38.737 0-21.396 15.941-38.74 35.607-38.74h29.295l28.803-17.284-7.431 20.144c13.007 5.769 22.176 19.656 22.176 35.88z" />
<glyph unicode="&#xe93e;" d="M399.167 900.397h3.431c1.262 0 2.12 0.192 2.576 0.572 0.573 0.447 0.858 1.255 0.858 2.429 0 1.79-0.775 2.688-2.316 2.688h-4.549v-5.689zM399.167 910.704h3.691c1.225 0 2.031 0.19 2.398 0.563 0.459 0.512 0.692 1.299 0.692 2.36 0 1.844-0.876 2.766-2.619 2.766h-4.163v-5.689zM388.314 923.615h19.779c1.060 0 2.111-0.093 3.152-0.284 1.045-0.188 1.838-0.42 2.383-0.689 1.914-1.054 2.876-3.056 2.876-6.005 0-2.543-0.747-4.409-2.233-5.597-0.806-0.678-2.276-1.182-4.417-1.506v-0.2c1.74-0.136 3.045-0.406 3.899-0.811 2.003-0.921 3.005-2.772 3.005-5.559 0-2.3-0.643-4.195-1.93-5.681-1.176-1.408-3.149-2.112-5.921-2.112h-20.594v28.444z" />
<glyph unicode="&#xe93f;" d="M415.595 912.54c-1.196 0-2.044-0.238-2.555-0.72-0.745-0.72-1.119-1.996-1.119-3.828 0-2.012 0.211-3.48 0.63-4.409 0.237-0.54 0.64-0.977 1.206-1.305 0.569-0.334 1.18-0.495 1.839-0.495 2.421 0 3.627 1.8 3.627 5.399 0 2.012-0.297 3.435-0.892 4.277-0.48 0.72-1.391 1.080-2.734 1.080zM415.95 921.992c3.256 0 5.795-0.402 7.618-1.212 2.654-1.173 4.449-3.079 5.373-5.72 0.569-1.616 0.854-3.763 0.854-6.434 0-3.962-0.566-6.993-1.701-9.095-1.254-2.43-3.093-4.11-5.51-5.042-1.762-0.627-4.017-0.942-6.764-0.942-4.334 0-7.586 0.81-9.764 2.43-3.134 2.311-4.704 6.376-4.704 12.199 0 5.82 1.57 9.738 4.704 11.749 1.372 0.864 2.91 1.437 4.615 1.71 1.637 0.241 3.4 0.357 5.28 0.357z" />
<glyph unicode="&#xe940;" d="M417.509 921.097c4.686-0.434 8.974-0.295 12.87 0.414 4.437 1.117 7.997 0.328 10.688-2.364 1.112-1.117 1.672-3.129 1.672-6.040v-19.549h-11.273l0.039 13.095c-0.029 1.024-0.058 1.674-0.091 1.953-0.058 0.898-0.453 1.565-1.171 1.999-0.398 0.212-0.905 0.318-1.543 0.318-1.148 0-1.979-0.338-2.493-1.018-0.54-0.713-0.815-1.578-0.815-2.599l-0.049-13.748h-11.050v27.953l3.214-0.414z" />
<glyph unicode="&#xe941;" d="M432.461 922.982c0 0.48 0.296 0.929 0.88 1.352 0.578 0.423 1.373 0.792 2.385 1.108 1.018 0.316 2.195 0.564 3.548 0.745 1.354 0.183 2.799 0.273 4.33 0.273 1.524 0 2.977-0.090 4.324-0.273 1.347-0.181 2.53-0.429 3.542-0.745s1.8-0.685 2.392-1.108c0.585-0.423 0.874-0.872 0.874-1.352 0-0.478-0.289-0.927-0.874-1.35-0.591-0.421-1.38-0.79-2.392-1.106s-2.195-0.566-3.542-0.745c-1.347-0.185-2.799-0.275-4.324-0.275-1.531 0-2.977 0.090-4.33 0.275-1.354 0.178-2.53 0.429-3.548 0.745-1.012 0.316-1.807 0.685-2.385 1.106-0.585 0.423-0.88 0.872-0.88 1.35zM454.735 918.617v-14.483c0-1.571-0.401-2.749-1.189-3.532-1.36-1.381-4.882-2.193-10.585-2.443-2.457-0.094-5.224-0.144-8.292-0.144s-5.848 0.027-8.378 0.084v4.025c0.867-0.039 1.544-0.057 2.024-0.057 1.846 0 3.049 0.17 3.594 0.517 0.25 0.133 0.401 0.505 0.467 1.12v14.914h22.36z" />
<glyph unicode="&#xe942;" d="M447.516 912.54c-1.193 0-2.040-0.238-2.549-0.72-0.748-0.72-1.123-1.996-1.123-3.828 0-2.012 0.211-3.48 0.627-4.409 0.24-0.54 0.643-0.977 1.209-1.305 0.569-0.334 1.18-0.495 1.836-0.495 2.424 0 3.63 1.8 3.63 5.399 0 2.012-0.297 3.435-0.895 4.277-0.477 0.72-1.391 1.080-2.734 1.080zM447.874 921.992c3.256 0 5.795-0.402 7.618-1.212 2.658-1.173 4.449-3.079 5.376-5.72 0.566-1.616 0.851-3.763 0.851-6.434 0-3.962-0.566-6.993-1.701-9.095-1.254-2.43-3.093-4.11-5.51-5.042-1.762-0.627-4.017-0.942-6.764-0.942-4.334 0-7.586 0.81-9.767 2.43-3.134 2.311-4.701 6.376-4.701 12.199 0 5.82 1.567 9.738 4.701 11.749 1.375 0.864 2.914 1.437 4.615 1.71 1.641 0.241 3.406 0.357 5.283 0.357z" />
<glyph unicode="&#xe943;" d="M474.684 921.791v-16.263c0-1.515-0.115-2.985-0.339-4.412-0.251-1.544-0.82-2.832-1.705-3.861-0.885-1.032-2.166-1.878-3.848-2.547-2.187-0.905-4.97-1.363-8.36-1.363-5.882 0-9.991 1.379-12.3 4.133-1.265 1.489-1.892 4.165-1.892 8.049v16.263h11.819l0.051-13.723c0-0.938 0.095-1.693 0.281-2.271 0.281-0.847 0.987-1.275 2.092-1.275 1.136 0 1.851 0.428 2.132 1.275 0.163 0.577 0.244 1.333 0.244 2.271l-0.051 13.723h11.876z" />
<glyph unicode="&#xe944;" d="M461.897 920.832c5.065-0.624 9.15-0.484 12.242 0.42 3.269 0.901 7.667 0.901 13.178 0v-12.761c-1.474 0.154-2.712 0.234-3.697 0.234-3.375 0-5.713-0.674-7.062-2.012-0.451-0.464-0.778-1.432-1.008-2.9-0.13-0.994-0.202-1.695-0.202-2.102v-8.226h-16.476v27.672l3.024-0.324z" />
<glyph unicode="&#xe945;" d="M470.778 899.334c0-0.599 0.286-1.16 0.866-1.672 0.573-0.513 1.354-0.961 2.317-1.334 0.976-0.373 2.096-0.671 3.385-0.883 1.276-0.215 2.643-0.319 4.101-0.319 1.452 0 2.825 0.105 4.101 0.319 1.276 0.212 2.395 0.51 3.372 0.883s1.738 0.821 2.278 1.334c0.56 0.513 0.827 1.074 0.827 1.672 0 0.604-0.267 1.16-0.827 1.675-0.54 0.513-1.302 0.958-2.278 1.337-0.976 0.376-2.096 0.677-3.372 0.899-1.276 0.228-2.649 0.338-4.101 0.338-1.458 0-2.825-0.11-4.101-0.338-1.289-0.223-2.408-0.523-3.385-0.899-0.963-0.379-1.744-0.824-2.317-1.337-0.579-0.515-0.866-1.071-0.866-1.675zM490.018 904.939l-15.967 0.451-6.463 13.764c-0.176 0.451-0.273 0.827-0.273 1.128 0 0.499 0.325 0.964 0.996 1.391s1.517 0.738 2.552 0.94c1.094 0.228 6.444 0.537 16.051 0.94 2.799 0.075 4.843-0.086 6.105-0.486 1.823-0.655 2.74-1.444 2.74-2.373 0-0.346-0.091-0.776-0.267-1.278l-5.474-14.475z" />
<glyph unicode="&#xe946;" d="M483.817 849.477h23.528v46.886c0 0-6.652 0-8.182-2.046-4.944-0.169-13.811 1.024-16.197-10.74-3.75 0.169-8.184-3.751-4.773-18.411 1.772-7.621 5.625-15.688 5.625-15.688z" />
<glyph unicode="&#xe947;" d="M530.874 849.477h-23.529v46.886c0 0 6.652 0 8.185-2.046 4.946-0.169 13.81 1.024 16.198-10.74 3.75 0.169 8.181-3.751 4.772-18.411-1.773-7.621-5.626-15.688-5.626-15.688z" />
<glyph unicode="&#xe948;" d="M482.965 880.338l4.874-29.239c0 0 3.879 4.562 5.072 4.221 1.539-0.443-1.147-5.031 2.237-5.372 3.607-0.364 2.676 5.311 5.672 5.242 2.006-0.046-0.348-5.369 3.431-5.882 2.746-0.37 5.149 0.886 7.159 2.886v28.057l-28.444 0.087z" />
<glyph unicode="&#xe949;" d="M514.355 867.21c3.005-0.171 17.025 0.51 17.025 0.51l1.2-16.538 3.205 28.984-28.444 0.085v-28.057c4.719 4.654 7.293 13.348 7.013 15.016z" />
<glyph unicode="&#xe94a;" d="M265.186 889.479h-22.663c-18.793 0-34.030-15.236-34.030-34.029 0-11.67 5.876-21.963 14.829-28.094l-3.438-21.27 20.357 15.416c0.754-0.049 1.513-0.083 2.282-0.083h22.663c18.795 0 34.032 15.235 34.032 34.032 0 18.793-15.236 34.029-34.032 34.029z" />
<glyph unicode="&#xe94b;" d="M248.062 862.188v-8.137c-1.29 0.183-2.929 0.352-4.917 0.509-1.984 0.157-3.69 0.236-5.112 0.236-1.822 0-3.131-0.157-3.923-0.47-0.593-0.21-0.893-0.629-0.893-1.253 0-1.094 1.009-1.644 3.027-1.644h1.492c3.901 0 6.549-0.349 7.94-1.056 2.217-1.017 3.327-3.145 3.327-6.38 0-3.415-1.144-5.816-3.428-7.197-2.116-1.253-5.446-1.88-9.977-1.88-3.736 0-8.335 0.337-13.799 1.017v6.886c2.978-0.417 6.204-0.624 9.68-0.624 2.116 0 3.476 0.118 4.070 0.352 0.532 0.234 0.795 0.665 0.795 1.292 0 0.571-0.232 0.976-0.697 1.212-0.394 0.284-1.205 0.417-2.431 0.39-3.44-0.077-5.922 0.065-7.445 0.431-2.082 0.492-3.559 1.747-4.415 3.755-0.532 1.224-0.798 2.74-0.798 4.541 0 3.888 1.474 6.457 4.418 7.708 2.318 0.991 5.806 1.485 10.475 1.485 3.703 0 7.907-0.39 12.609-1.174z" />
<glyph unicode="&#xe94c;" d="M246.39 851.571c-2.269 0-3.41-1.523-3.41-4.574 0-3.501 1.125-5.251 3.367-5.251 1.109 0 1.908 0.345 2.406 1.034 0.608 0.777 0.915 2.183 0.915 4.217 0 1.791-0.293 3.018-0.875 3.678-0.522 0.597-1.327 0.895-2.403 0.895zM262.298 860.458v-26.878h-10.927c-0.727 1.318-1.44 1.619-2.14 0.898-1.109-1.014-2.885-1.525-5.331-1.525-3.553 0-6.045 1.031-7.471 3.098-1.72 2.603-2.576 6.668-2.576 12.201 0 2.603 0.24 4.778 0.719 6.53 0.479 1.749 1.216 3.175 2.207 4.283 1.426 1.553 3.684 2.332 6.771 2.332 2.858 0 5.638-0.478 8.346-1.434 3.353-0.84 6.817-0.674 10.402 0.495z" />
<glyph unicode="&#xe94d;" d="M285.288 860.975v-16.268c0-1.514-0.114-2.987-0.333-4.406-0.254-1.548-0.825-2.833-1.711-3.863-0.883-1.033-2.17-1.881-3.849-2.547-2.179-0.907-4.966-1.36-8.359-1.36-5.885 0-9.986 1.374-12.293 4.134-1.266 1.484-1.898 4.165-1.898 8.042v16.268h11.819l0.053-13.724c0-0.938 0.091-1.696 0.284-2.273 0.284-0.848 0.98-1.271 2.088-1.271 1.141 0 1.851 0.423 2.138 1.271 0.155 0.577 0.237 1.335 0.237 2.273l-0.050 13.724h11.875z" />
<glyph unicode="&#xe94e;" d="M299.108 858.513v-7.851h-9.995v-7.141c0-0.71 0.035-1.169 0.113-1.378 0.422-0.87 1.752-1.305 4-1.305 0.953 0 2.002 0.078 3.142 0.241 0.76 0.075 1.351 0.141 1.766 0.194l-0.398-5.8c-4.113-0.552-7.807-0.829-11.075-0.829-4.612 0-7.768 0.569-9.489 1.699-1.179 0.79-1.882 1.839-2.111 3.156-0.039 0.262-0.056 0.812-0.056 1.655v9.508h-4.341v4.853c5.101 0 7.684 1.256 7.74 3.766 0.053 2.513 1.055 3.781 2.997 3.808h7.712v-4.576h9.995z" />
<glyph unicode="&#xe94f;" d="M285.859 838.801c0-0.6 0.286-1.158 0.865-1.672 0.579-0.512 1.354-0.956 2.325-1.334 0.972-0.375 2.095-0.669 3.376-0.882 1.275-0.213 2.646-0.322 4.1-0.322 1.46 0 2.831 0.109 4.1 0.322 1.281 0.213 2.404 0.507 3.381 0.882 0.972 0.378 1.73 0.822 2.275 1.334 0.55 0.514 0.826 1.072 0.826 1.672 0 0.604-0.275 1.16-0.826 1.674-0.545 0.514-1.303 0.959-2.275 1.334-0.977 0.378-2.101 0.679-3.381 0.906-1.269 0.227-2.64 0.338-4.1 0.338-1.455 0-2.825-0.111-4.1-0.338-1.281-0.227-2.404-0.528-3.376-0.906-0.972-0.375-1.747-0.82-2.325-1.334s-0.865-1.070-0.865-1.674zM305.092 844.406l-15.952 0.452-6.471 13.762c-0.191 0.449-0.275 0.827-0.275 1.126 0 0.503 0.326 0.968 1 1.392 0.674 0.428 1.517 0.739 2.556 0.94 1.095 0.225 6.443 0.54 16.053 0.94 2.792 0.076 4.831-0.088 6.106-0.489 1.82-0.653 2.73-1.441 2.73-2.367 0-0.354-0.084-0.778-0.27-1.278l-5.477-14.477z" />
<glyph unicode="&#xe950;" d="M182.732 727.158v90.315c0 0-31.327 0.73-31.692-7.697-0.366-8.426 7.511-42.318 6.596-47.445-0.916-5.13-6.046-23.451-6.413-27.114-0.366-3.664 3.666-8.245 8.428-7.693 4.76 0.549 23.082-0.366 23.082-0.366z" />
<glyph unicode="&#xe951;" d="M182.736 727.158v90.315c0 0 31.325 0.73 31.691-7.697 0.37-8.426-7.511-42.318-6.594-47.445 0.916-5.13 6.045-23.451 6.413-27.114 0.364-3.664-3.667-8.245-8.428-7.693-4.764 0.549-23.082-0.366-23.082-0.366z" />
<glyph unicode="&#xe952;" d="M235.208 544.752h-24.429c-20.257 0-36.679-16.422-36.679-36.68 0-15.114 9.143-28.088 22.194-33.706l-6.026-24.26 35.083 21.284h9.856c20.257 0 36.68 16.422 36.68 36.682 0 20.258-16.423 36.68-36.68 36.68z" />
<glyph unicode="&#xe953;" d="M207.926 498.229h-6.154v-10.103h-11.123v28.444h11.123v-10.064h6.154v10.064h11.167v-28.444h-11.167v10.103z" />
<glyph unicode="&#xe954;" d="M222.462 504.959c-1.192 0-2.045-0.241-2.552-0.719-0.75-0.722-1.122-1.999-1.122-3.826 0-2.013 0.209-3.483 0.63-4.413 0.24-0.538 0.642-0.975 1.211-1.301 0.565-0.333 1.177-0.5 1.833-0.5 2.424 0 3.628 1.801 3.628 5.403 0 2.011-0.298 3.435-0.894 4.275-0.478 0.722-1.391 1.081-2.734 1.081zM222.822 514.41c3.256 0 5.793-0.406 7.614-1.217 2.655-1.171 4.45-3.075 5.377-5.716 0.565-1.617 0.848-3.763 0.848-6.436 0-3.959-0.565-6.989-1.701-9.089-1.254-2.431-3.090-4.111-5.512-5.040-1.761-0.632-4.015-0.946-6.764-0.946-4.33 0-7.583 0.809-9.763 2.431-3.133 2.31-4.705 6.375-4.705 12.196s1.571 9.736 4.705 11.747c1.372 0.869 2.91 1.439 4.616 1.712 1.639 0.239 3.405 0.36 5.284 0.36z" />
<glyph unicode="&#xe955;" d="M245.899 504.804c-2.275 0-3.407-1.526-3.407-4.577 0-3.501 1.118-5.248 3.363-5.248 1.108 0 1.905 0.342 2.402 1.030 0.612 0.777 0.919 2.185 0.919 4.218 0 1.793-0.293 3.020-0.874 3.677-0.525 0.602-1.326 0.9-2.402 0.9zM261.802 513.686v-26.871h-10.923c-0.729 1.314-1.441 1.615-2.142 0.898-1.106-1.015-2.882-1.528-5.327-1.528-3.557 0-6.046 1.032-7.471 3.097-1.72 2.601-2.582 6.67-2.582 12.202 0 2.604 0.241 4.776 0.726 6.526 0.478 1.749 1.214 3.176 2.2 4.286 1.432 1.554 3.686 2.334 6.777 2.334 2.85 0 5.631-0.481 8.34-1.439 3.351-0.835 6.815-0.671 10.4 0.496z" />
<glyph unicode="&#xe956;" d="M254.666 492.273c0-0.599 0.284-1.16 0.866-1.672 0.572-0.512 1.35-0.958 2.323-1.335 0.973-0.373 2.093-0.67 3.369-0.883 1.281-0.212 2.65-0.319 4.103-0.319 1.462 0 2.826 0.107 4.108 0.319 1.276 0.214 2.396 0.51 3.369 0.883 0.973 0.377 1.736 0.823 2.279 1.335 0.553 0.512 0.822 1.073 0.822 1.672 0 0.603-0.269 1.162-0.822 1.674-0.543 0.512-1.306 0.96-2.279 1.335s-2.093 0.678-3.369 0.904c-1.281 0.226-2.645 0.337-4.108 0.337-1.452 0-2.821-0.111-4.103-0.337-1.276-0.226-2.396-0.528-3.369-0.904s-1.751-0.823-2.323-1.335c-0.582-0.512-0.866-1.071-0.866-1.674zM273.898 497.876l-15.951 0.454-6.469 13.76c-0.186 0.452-0.284 0.829-0.284 1.129 0 0.5 0.337 0.966 1.017 1.39 0.655 0.428 1.506 0.74 2.543 0.942 1.095 0.226 6.445 0.539 16.049 0.94 2.787 0.075 4.831-0.087 6.103-0.488 1.824-0.653 2.733-1.442 2.733-2.37 0-0.351-0.088-0.777-0.269-1.277l-5.472-14.48z" />
<glyph unicode="&#xe957;" d="M314.656 413.211c-22.091 0-40.008-14.578-40.008-32.583 0-3.754 0.79-7.36 2.226-10.717l-7.187-28.039 25.263 10.399c5.82-2.689 12.541-4.231 19.705-4.231 22.111 0 40.014 14.582 40.014 32.587s-17.904 32.583-40.014 32.583z" />
<glyph unicode="&#xe958;" d="M303.831 380.25c-1.059 0-1.912-0.229-2.562-0.692-1.004-0.694-1.506-2.069-1.506-4.121 0-2.618 0.447-4.414 1.345-5.386 0.622-0.694 1.545-1.040 2.765-1.040 1.654 0 2.796 0.63 3.418 1.885 0.437 0.923 0.653 2.246 0.653 3.964 0 2.364-0.452 3.902-1.345 4.618-0.598 0.514-1.519 0.772-2.768 0.772zM304.237 389.449c4.911 0 8.464-1.105 10.662-3.311 2.117-2.106 3.176-5.489 3.176-10.159 0-2.748-0.408-5.205-1.222-7.37-0.812-2.172-1.969-3.869-3.46-5.101-2.034-1.668-5.286-2.502-9.765-2.502-4.012 0-7.039 0.809-9.073 2.426-1.737 1.334-2.984 3.171-3.745 5.506-0.784 2.31-1.179 4.734-1.179 7.273 0 4.926 1.248 8.402 3.743 10.428 2.359 1.877 5.983 2.812 10.863 2.812z" />
<glyph unicode="&#xe959;" d="M328.717 377.244c-2.271 0-3.408-1.526-3.408-4.58 0-3.499 1.123-5.244 3.363-5.244 1.111 0 1.908 0.339 2.405 1.028 0.614 0.78 0.916 2.185 0.916 4.216 0 1.795-0.291 3.025-0.872 3.679-0.523 0.602-1.324 0.9-2.405 0.9zM344.624 386.129v-26.875h-10.921c-0.731 1.314-1.446 1.615-2.142 0.898-1.111-1.018-2.887-1.523-5.332-1.523-3.558 0-6.047 1.032-7.471 3.092-1.72 2.601-2.578 6.671-2.578 12.203 0 2.601 0.239 4.779 0.724 6.529 0.478 1.75 1.216 3.177 2.203 4.286 1.427 1.555 3.684 2.334 6.775 2.334 2.85 0 5.634-0.479 8.343-1.441 3.351-0.835 6.815-0.669 10.399 0.498z" />
<glyph unicode="&#xe95a;" d="M337.485 364.714c0-0.599 0.279-1.158 0.865-1.672 0.572-0.512 1.349-0.958 2.317-1.333 0.978-0.377 2.097-0.67 3.378-0.883 1.276-0.216 2.64-0.319 4.097-0.319 1.467 0 2.826 0.103 4.107 0.319 1.276 0.214 2.401 0.506 3.369 0.883 0.973 0.375 1.736 0.821 2.278 1.333 0.552 0.514 0.821 1.073 0.821 1.672 0 0.601-0.269 1.164-0.821 1.676-0.543 0.514-1.305 0.958-2.278 1.335-0.968 0.377-2.093 0.678-3.369 0.902-1.281 0.224-2.64 0.337-4.107 0.337-1.457 0-2.821-0.113-4.097-0.337-1.281-0.224-2.401-0.524-3.378-0.902-0.968-0.377-1.745-0.821-2.317-1.335-0.587-0.512-0.865-1.075-0.865-1.676zM356.713 370.319l-15.953 0.452-6.463 13.76c-0.186 0.454-0.284 0.829-0.284 1.13 0 0.5 0.337 0.966 1.012 1.392 0.665 0.426 1.511 0.738 2.547 0.938 1.095 0.228 6.444 0.543 16.041 0.942 2.797 0.077 4.835-0.089 6.106-0.488 1.824-0.654 2.738-1.444 2.738-2.37 0-0.353-0.093-0.777-0.274-1.279l-5.471-14.476z" />
<glyph unicode="&#xe95b;" d="M331.065 368.423c-1.587 0-3.198 0.341-4.651 1.070-4.19 2.088-5.497 6.537-2.918 9.941l10.627 14.002c2.579 3.394 8.071 4.45 12.255 2.357 4.19-2.088 5.497-6.532 2.912-9.936l-10.621-14.002c-1.687-2.215-4.604-3.432-7.604-3.432z" />
<glyph unicode="&#xe95c;" d="M227.061 362.307c-5.271-0.804-9.525-3.015-10.867-4.565-6.419 1.54-18.226 1.796-24.642-10.782-6.419-12.577 0.513-69.304 4.107-73.927-0.772-11.037 1.541-15.658 6.416-21.305 4.877-5.647 22.591-4.363 22.591-4.363s0.775-0.070 2.395-0.125v115.068z" />
<glyph unicode="&#xe95d;" d="M255.508 239.531l-19.664 1.497-8.781 9.363v-23.589l17.574-4.856-3.358 10.294 14.229 7.29z" />
<glyph unicode="&#xe95e;" d="M240.893 241.029l-19.644-1.497 14.213-7.291-3.362-10.295 17.594 4.856v23.588l-8.8-9.361z" />
<glyph unicode="&#xe95f;" d="M207.967 272.941c-2.066 0-3.739-1.652-3.739-3.68v-21.087c0-2.027 1.673-3.678 3.739-3.678h24.705v28.444h-24.705z" />
<glyph unicode="&#xe960;" d="M251.794 272.941c2.063 0 3.739-1.652 3.739-3.68v-21.087c0-2.027-1.676-3.678-3.739-3.678h-24.706v28.444h24.706z" />
<glyph unicode="&#xe961;" d="M64.418 824.956c0 24.502 19.834 44.359 44.358 44.359 24.49 0 44.325-19.857 44.325-44.359 0-20.375-13.729-37.517-32.44-42.711l-33.123-28.182 2.003 30.924c-14.876 7.159-25.124 22.363-25.124 39.969z" />
<glyph unicode="&#xe962;" d="M91.506 815.513h-6.149v-10.103h-11.128v28.444h11.128v-10.062h6.149v10.062h11.168v-28.444h-11.168v10.103z" />
<glyph unicode="&#xe963;" d="M110.125 818.307c0 1.423-0.080 2.427-0.239 3.009-0.438 1.786-1.705 2.68-3.805 2.68-1.755 0-2.949-0.744-3.572-2.208-0.318-0.804-0.488-1.967-0.52-3.481h8.135zM118.637 811.812l-1.461-7.088c-4.794-1.082-8.867-1.622-12.224-1.622-5.359 0-9.119 1.406-11.283 4.214-1.819 2.349-2.729 5.917-2.729 10.703 0 5.28 1.252 8.94 3.763 10.978 1.379 1.116 3.102 1.837 5.171 2.179 1.628 0.248 3.386 0.371 5.269 0.371 3.413 0 6.062-0.34 7.944-1.019 2.76-0.99 4.593-2.824 5.502-5.515 0.533-1.604 0.796-3.953 0.796-7.041 0-1.298-0.074-2.61-0.231-3.937h-16.695c0-1.082 0.252-1.871 0.753-2.362 0.973-0.927 2.805-1.392 5.502-1.392 2.662 0 5.972 0.512 9.923 1.531z" />
<glyph unicode="&#xe964;" d="M136.205 822.348c-1.195 0-2.044-0.241-2.551-0.721-0.75-0.721-1.122-1.995-1.122-3.825 0-2.010 0.212-3.48 0.629-4.411 0.237-0.538 0.639-0.975 1.207-1.305 0.568-0.332 1.18-0.495 1.837-0.495 2.42 0 3.63 1.8 3.63 5.401 0 2.010-0.296 3.437-0.894 4.274-0.482 0.723-1.389 1.081-2.736 1.081zM136.566 831.8c3.254 0 5.792-0.404 7.611-1.216 2.66-1.17 4.451-3.074 5.381-5.716 0.563-1.619 0.849-3.767 0.849-6.434 0-3.962-0.571-6.992-1.703-9.091-1.253-2.431-3.089-4.114-5.512-5.041-1.761-0.632-4.017-0.947-6.763-0.947-4.332 0-7.586 0.81-9.764 2.431-3.137 2.31-4.704 6.373-4.704 12.196 0 5.82 1.566 9.736 4.704 11.746 1.372 0.871 2.91 1.442 4.61 1.708 1.645 0.241 3.405 0.363 5.29 0.363z" />
<glyph unicode="&#xe965;" d="M141.603 809.565c0-0.604 0.293-1.162 0.869-1.673 0.576-0.515 1.352-0.963 2.324-1.336 0.972-0.377 2.103-0.67 3.378-0.884 1.275-0.212 2.643-0.32 4.103-0.32 1.45 0 2.823 0.108 4.103 0.32 1.27 0.214 2.396 0.507 3.373 0.884 0.972 0.373 1.733 0.821 2.278 1.336 0.54 0.511 0.823 1.069 0.823 1.673 0 0.6-0.283 1.158-0.823 1.673-0.545 0.513-1.306 0.956-2.278 1.332-0.977 0.377-2.103 0.679-3.373 0.903-1.28 0.227-2.653 0.337-4.103 0.337-1.46 0-2.828-0.11-4.103-0.337-1.275-0.225-2.406-0.526-3.378-0.903-0.972-0.375-1.748-0.818-2.324-1.332-0.576-0.515-0.869-1.073-0.869-1.673zM160.843 815.165l-15.955 0.454-6.468 13.759c-0.19 0.452-0.278 0.829-0.278 1.128 0 0.5 0.339 0.965 1.003 1.393 0.663 0.424 1.522 0.738 2.55 0.939 1.1 0.225 6.438 0.536 16.048 0.939 2.792 0.076 4.828-0.089 6.114-0.488 1.82-0.653 2.73-1.442 2.73-2.371 0-0.352-0.087-0.776-0.273-1.279l-5.471-14.476z" />
<glyph unicode="&#xe966;" d="M108.387 723.852c0.026 17.801-14.786 23.208-29.235 23.384v-81.152h20.774c0 0 2.804 8.133 3.926 9.534 1.123 1.402 2.944 10.237 2.944 19.071 0 0 1.963 0.391 1.963 13.18 0 7.152-0.389 4.48-0.372 15.984z" />
<glyph unicode="&#xe967;" d="M104.141 735.912l-24.989-0.778v-27.588c0.841-3.8 2.090-6.751 3.947-7.388 6.125-2.105 17.744 0.139 17.744 0.139l3.769 10.515 2.984-1.962-3.456 27.062z" />
<glyph unicode="&#xe968;" d="M54.075 742.082c-10.237-6.311-6.59-36.878-5.047-50.618 1.54-13.742 2.804-15.287 2.804-15.287s0 0 2.381-1.119c-0.42-3.085 3.227-8.974 3.227-8.974h21.712v81.152c-10.483 0.126-20.775-2.502-25.077-5.153z" />
<glyph unicode="&#xe969;" d="M53.234 734.201l4.207-20.636 1.64 12.974 4.617 2.025 16.31 0.705c0 0-0.221-13.593 1.67-22.579v28.444l-28.444-0.933z" />
<glyph unicode="&#xe96a;" d="M86.028 646.715h-21.733l17.585-6.718-6.716-10.871 17.575 6.714v21.731l-6.711-10.855z" />
<glyph unicode="&#xe96b;" d="M96.725 629.142l-6.71 10.865 17.576 6.714h-21.725l-6.715 10.865-0.005-0.016v-21.719l0.005 0.003 17.573-6.713z" />
<glyph unicode="&#xe96c;" d="M388.074 626.465c0 16.624-13.478 30.1-30.102 30.1h-20.047c-16.623 0-30.099-13.476-30.099-30.1s13.476-30.102 30.099-30.102h20.047c0.679 0 1.352 0.030 2.019 0.074l18.006-13.635-3.039 18.812c7.918 5.423 13.116 14.528 13.116 24.851z" />
<glyph unicode="&#xe96d;" d="M347.015 616.729h-6.156v-10.105h-11.124v28.444h11.124v-10.063h6.156v10.063h11.165v-28.444h-11.165v10.105z" />
<glyph unicode="&#xe96e;" d="M349.538 610.754h28.444v19.384h-28.444v-19.384zM349.538 635.184c0 0.552 0.376 1.072 1.121 1.558 0.74 0.488 1.768 0.912 3.051 1.279 1.295 0.364 2.803 0.651 4.531 0.862s3.56 0.315 5.519 0.315c1.959 0 3.808-0.104 5.525-0.315 1.728-0.211 3.236-0.498 4.531-0.862 1.295-0.367 2.306-0.791 3.051-1.279 0.745-0.486 1.115-1.007 1.115-1.558 0-0.553-0.37-1.074-1.115-1.56-0.745-0.49-1.757-0.912-3.051-1.278-1.295-0.367-2.803-0.653-4.531-0.865-1.716-0.209-3.566-0.313-5.525-0.313s-3.791 0.104-5.519 0.313c-1.728 0.212-3.236 0.498-4.531 0.865-1.283 0.366-2.312 0.788-3.051 1.278-0.745 0.486-1.121 1.007-1.121 1.56z" />
<glyph unicode="&#xe96f;" d="M361.683 610.769c0-0.599 0.291-1.159 0.865-1.675 0.578-0.512 1.358-0.958 2.327-1.331 0.973-0.377 2.094-0.673 3.376-0.886 1.278-0.213 2.64-0.32 4.102-0.32s2.824 0.107 4.106 0.32c1.273 0.213 2.394 0.508 3.371 0.886 0.968 0.373 1.73 0.819 2.273 1.331 0.556 0.516 0.829 1.076 0.829 1.675 0 0.603-0.273 1.159-0.829 1.675-0.542 0.512-1.305 0.958-2.273 1.333-0.977 0.377-2.098 0.677-3.371 0.902-1.282 0.227-2.645 0.338-4.106 0.338s-2.824-0.111-4.102-0.338c-1.282-0.226-2.403-0.525-3.376-0.902-0.968-0.375-1.748-0.821-2.327-1.333-0.574-0.516-0.865-1.072-0.865-1.675zM380.924 616.373l-15.955 0.451-6.478 13.76c-0.179 0.455-0.269 0.828-0.269 1.13 0 0.501 0.332 0.965 1 1.39 0.672 0.425 1.52 0.741 2.56 0.941 1.085 0.226 6.438 0.54 16.040 0.941 2.793 0.074 4.837-0.089 6.115-0.488 1.816-0.653 2.73-1.444 2.73-2.37 0-0.351-0.085-0.778-0.269-1.277l-5.474-14.477z" />
<glyph unicode="&#xe970;" d="M419.285 623.447c-5.569 0.31-17.635-0.31-19.8-12.067-3.715-0.62-14.234-4.024-7.116-16.399-4.333-2.477-7.427-7.737-2.787-14.545-3.405-4.332 0-14.544 8.357-13.924-0.557-4.439 12.077-9.868 33.877-9.607v69.199c-3.155 1.726-10.552 3.276-12.53-2.658z" />
<glyph unicode="&#xe971;" d="M461.37 563.108c7.425-0.309 12.994 2.475 10.367 11.603 2.166 2.011 6.498 5.107 5.88 10.212-0.621 5.105-3.714 8.356-8.047 8.199 3.245 1.238 4.697 4.807 3.715 9.129-1.556 6.808-6.964 6.653-7.426 6.807-0.466 0.155-1.552 0.311-0.466 0.155 2.007 5.881-7.278 14.389-15.011 12.689-1.394 6.497-7.576 6.807-10.98 6.807s-6.808-3.094-6.808-3.094c-0.215 0.16-0.48 0.325-0.778 0.491v-69.199c2.512 0.030 5.143 0.13 7.897 0.324 7.715 0.539 19.184 2.784 21.658 5.878z" />
<glyph unicode="&#xe972;" d="M409.694 609.368c-14.543-9.437-14.697-30.324-1.237-30.633l0.62 10.52c2.165-2.166 7.89-4.643 14.388-4.332 3.039 0.146 5.906 1.109 8.357 2.467v25.621c-7.718 1.108-15.822 0.446-22.128-3.643z" />
<glyph unicode="&#xe973;" d="M438.165 592.969c1.39 1.237 10.209 0.928 11.599-2.476 1.395-3.404 1.854-7.194 1.543-9.67-0.309-2.473 5.494-4.641 7.662-0.465 2.163 4.18 3.020 16.323-3.787 22.978-3.857 3.768-13.275 8.232-23.36 9.675v-25.621c2.782 1.545 5.025 3.602 6.343 5.579z" />
<glyph unicode="&#xe974;" d="M408.59 802.22c0 16.624-13.478 30.1-30.1 30.1h-20.047c-16.624 0-30.1-13.476-30.1-30.1s13.476-30.1 30.1-30.1h20.047c0.679 0 1.35 0.029 2.019 0.074l18.005-13.637-3.039 18.813c7.918 5.422 13.116 14.527 13.116 24.849z" />
<glyph unicode="&#xe975;" d="M358.284 790.874h-6.157v-10.104h-11.122v28.444h11.122v-10.064h6.157v10.064h11.166v-28.444h-11.166v10.104z" />
<glyph unicode="&#xe976;" d="M366.801 797.931c-2.271 0-3.406-1.525-3.406-4.577 0-3.498 1.117-5.25 3.366-5.25 1.107 0 1.906 0.346 2.402 1.031 0.608 0.775 0.917 2.185 0.917 4.219 0 1.794-0.293 3.017-0.877 3.677-0.521 0.599-1.329 0.9-2.402 0.9zM382.703 806.813v-26.875h-10.917c-0.73 1.317-1.444 1.614-2.146 0.897-1.104-1.015-2.879-1.525-5.331-1.525-3.553 0-6.045 1.031-7.467 3.091-1.722 2.607-2.583 6.672-2.583 12.207 0 2.601 0.243 4.779 0.724 6.528s1.217 3.174 2.205 4.283c1.425 1.557 3.684 2.335 6.772 2.335 2.851 0 5.636-0.477 8.347-1.435 3.35-0.839 6.816-0.673 10.396 0.493z" />
<glyph unicode="&#xe977;" d="M394.21 798.142c-1.193 0-2.040-0.241-2.549-0.723-0.748-0.72-1.123-1.995-1.123-3.823 0-2.011 0.208-3.48 0.627-4.408 0.24-0.54 0.643-0.98 1.209-1.308 0.569-0.331 1.183-0.495 1.836-0.495 2.424 0 3.63 1.802 3.63 5.401 0 2.008-0.297 3.431-0.895 4.276-0.477 0.716-1.391 1.080-2.734 1.080zM394.568 807.591c3.256 0 5.798-0.405 7.618-1.215 2.658-1.173 4.449-3.078 5.376-5.716 0.566-1.619 0.851-3.766 0.851-6.432 0-3.965-0.569-6.991-1.701-9.096-1.254-2.429-3.089-4.109-5.51-5.038-1.762-0.63-4.017-0.948-6.764-0.948-4.33 0-7.586 0.813-9.767 2.429-3.134 2.313-4.701 6.378-4.701 12.2s1.567 9.735 4.701 11.747c1.375 0.868 2.914 1.439 4.615 1.709 1.644 0.241 3.403 0.36 5.283 0.36z" />
<glyph unicode="&#xe978;" d="M396.195 784.935c0-0.601 0.293-1.16 0.879-1.672 0.573-0.515 1.348-0.958 2.331-1.337 0.964-0.373 2.090-0.668 3.366-0.883 1.276-0.212 2.643-0.319 4.115-0.319 1.439 0 2.819 0.107 4.089 0.319 1.283 0.215 2.409 0.51 3.385 0.883 0.97 0.378 1.725 0.821 2.272 1.337 0.553 0.513 0.82 1.071 0.82 1.672 0 0.604-0.267 1.16-0.82 1.675-0.547 0.513-1.302 0.958-2.272 1.334-0.977 0.376-2.103 0.676-3.385 0.899-1.27 0.228-2.65 0.341-4.089 0.341-1.471 0-2.839-0.113-4.115-0.341-1.276-0.223-2.402-0.523-3.366-0.899-0.983-0.376-1.758-0.821-2.331-1.334-0.586-0.515-0.879-1.071-0.879-1.675zM415.447 790.54l-15.957 0.451-6.471 13.757c-0.182 0.454-0.267 0.829-0.267 1.13 0 0.502 0.326 0.966 0.99 1.391 0.677 0.43 1.523 0.741 2.559 0.942 1.094 0.225 6.439 0.537 16.042 0.94 2.806 0.072 4.844-0.089 6.113-0.489 1.829-0.652 2.741-1.444 2.741-2.37 0-0.352-0.098-0.776-0.28-1.278l-5.469-14.474z" />
<glyph unicode="&#xe979;" d="M428.81 791.265c-5.502 7.502-4.168-10.337-4.168-10.337s-5.837-4.171-10.337-2.337c0 0 2.832-27.342 8.336-34.345 5.013-6.382 18.196-8.469 26.173-3.485v43.745c-8.126 1.807-16.151 1.502-20.004 6.758z" />
<glyph unicode="&#xe97a;" d="M464.948 752.416c0 0 3.694 1 3.694-3.668s-0.388-7.5-0.388-7.5h5.636c0 0 5.399 15.626 2.528 24.008-1.669 4.871-3.304 8.002-15.744 15.171-3.724 2.148-7.803 3.304-11.859 4.080v-43.745c0.906 0.483 1.756 1.032 2.528 1.651 8.943 7.159 13.606 10.004 13.606 10.004z" />
<glyph unicode="&#xe97b;" d="M646.784 865.571c-23.539 0-42.62-19.080-42.62-42.619 0-12.042 5.004-22.91 13.035-30.66l-2.114-18.54 16.729 9.293c4.659-1.749 9.702-2.711 14.969-2.711 23.537 0 42.619 19.080 42.619 42.619s-19.082 42.619-42.619 42.619z" />
<glyph unicode="&#xe97c;" d="M643.244 829.837v-9.283c-2.552 0.607-5.211 0.915-7.992 0.915-2.452 0-4.251-0.308-5.398-0.915-1.205-0.637-1.812-1.913-1.812-3.825 0-1.594 0.439-2.765 1.323-3.507 1.113-0.93 3.041-1.391 5.787-1.391 1.965 0 4.659 0.276 8.092 0.836v-7.971c-1.762-0.609-3.367-1.009-4.803-1.195-1.639-0.212-3.843-0.318-6.624-0.318-4.119 0-7.208 0.372-9.27 1.115-5.164 1.859-7.747 6.283-7.747 13.268 0 5.15 1.305 8.776 3.925 10.875 2.586 2.122 6.69 3.186 12.308 3.186 2.712 0 5.248-0.212 7.602-0.637 1.176-0.214 2.712-0.598 4.609-1.154z" />
<glyph unicode="&#xe97d;" d="M630.719 806.97h28.444v19.385h-28.444v-19.385zM630.719 831.399c0 0.552 0.366 1.073 1.109 1.559 0.756 0.486 1.771 0.911 3.063 1.278 1.305 0.365 2.798 0.652 4.525 0.863 1.727 0.208 3.561 0.315 5.515 0.315 1.973 0 3.813-0.107 5.521-0.315 1.733-0.212 3.24-0.498 4.538-0.863 1.292-0.367 2.301-0.792 3.063-1.278 0.725-0.486 1.109-1.008 1.109-1.559 0-0.554-0.384-1.073-1.109-1.559-0.763-0.49-1.771-0.913-3.063-1.28-1.298-0.365-2.805-0.652-4.538-0.862-1.708-0.212-3.548-0.317-5.521-0.317-1.954 0-3.788 0.105-5.515 0.317-1.727 0.21-3.221 0.497-4.525 0.862-1.292 0.367-2.307 0.79-3.063 1.28-0.744 0.486-1.109 1.006-1.109 1.559z" />
<glyph unicode="&#xe97e;" d="M651.024 819.862c-2.268 0-3.407-1.523-3.407-4.577 0-3.499 1.122-5.246 3.363-5.246 1.108 0 1.912 0.339 2.404 1.030 0.614 0.777 0.914 2.183 0.914 4.216 0 1.795-0.288 3.023-0.867 3.679-0.527 0.599-1.329 0.898-2.407 0.898zM666.928 828.746v-26.873h-10.925c-0.726 1.314-1.437 1.612-2.137 0.895-1.111-1.016-2.887-1.526-5.331-1.526-3.555 0-6.046 1.035-7.471 3.097-1.718 2.601-2.58 6.668-2.58 12.201 0 2.604 0.241 4.782 0.724 6.529 0.478 1.75 1.216 3.177 2.205 4.284 1.427 1.555 3.684 2.334 6.772 2.334 2.854 0 5.631-0.479 8.347-1.439 3.346-0.835 6.808-0.669 10.395 0.498z" />
<glyph unicode="&#xe97f;" d="M670.297 820.017c-1.192 0-2.043-0.241-2.55-0.719-0.752-0.722-1.125-1.997-1.125-3.827 0-2.011 0.216-3.481 0.632-4.411 0.238-0.538 0.639-0.975 1.209-1.304 0.567-0.333 1.177-0.497 1.833-0.497 2.422 0 3.629 1.801 3.629 5.401 0 2.011-0.296 3.438-0.892 4.276-0.476 0.724-1.389 1.082-2.737 1.082zM670.662 829.469c3.249 0 5.791-0.406 7.61-1.217 2.658-1.171 4.45-3.076 5.376-5.714 0.57-1.622 0.851-3.764 0.851-6.436 0-3.964-0.56-6.989-1.699-9.092-1.257-2.431-3.090-4.111-5.51-5.038-1.766-0.633-4.018-0.946-6.767-0.946-4.333 0-7.584 0.809-9.766 2.429-3.134 2.313-4.703 6.376-4.703 12.199 0 5.818 1.569 9.737 4.703 11.748 1.375 0.867 2.912 1.436 4.616 1.709 1.639 0.239 3.405 0.36 5.289 0.36z" />
<glyph unicode="&#xe980;" d="M676.532 807.335c0-0.601 0.279-1.16 0.866-1.674 0.572-0.512 1.345-0.956 2.318-1.333 0.973-0.375 2.103-0.67 3.375-0.885 1.281-0.212 2.641-0.319 4.103-0.319s2.827 0.107 4.108 0.319c1.276 0.216 2.406 0.51 3.375 0.885 0.973 0.377 1.731 0.821 2.274 1.333 0.553 0.514 0.827 1.073 0.827 1.674s-0.274 1.162-0.827 1.674c-0.543 0.512-1.301 0.96-2.274 1.335-0.968 0.375-2.098 0.676-3.375 0.904-1.281 0.224-2.646 0.335-4.108 0.335s-2.822-0.111-4.103-0.335c-1.272-0.228-2.401-0.528-3.375-0.904s-1.746-0.823-2.318-1.335c-0.587-0.512-0.866-1.073-0.866-1.674zM695.763 812.937l-15.944 0.452-6.475 13.761c-0.186 0.45-0.279 0.827-0.279 1.129 0 0.5 0.337 0.964 1.007 1.39 0.655 0.426 1.516 0.738 2.543 0.94 1.096 0.226 6.451 0.538 16.051 0.942 2.797 0.075 4.837-0.089 6.113-0.49 1.829-0.653 2.729-1.442 2.729-2.368 0-0.353-0.093-0.776-0.269-1.279l-5.478-14.477z" />
<glyph unicode="&#xe981;" d="M569.219 685.605c4.026-3.058 4.626-8.597 1.36-12.353l-9.584-10.878c-3.33-3.756-9.241-4.313-13.279-1.245-4.048 3.078-4.648 8.617-1.349 12.373l9.573 10.858c3.298 3.776 9.231 4.313 13.279 1.245z" />
<glyph unicode="&#xe982;" d="M605.176 730.945c3.214 5.049 2.295 10.097 2.295 10.097 4.592 2.295 6.886 5.507 6.426 10.555-0.461 5.051-2.752 8.263-6.426 9.182 1.377 4.588-3.44 15.145-9.867 17.9-6.8 2.916-8.494 1.378-8.494 1.378 2.603 8.259-13.001 10.709-14.686 6.425-0.096 0.069-0.195 0.139-0.295 0.207v-62.658c1.267-0.002 2.586 0.006 3.965 0.028 0 0 23.87 1.835 27.082 6.885z" />
<glyph unicode="&#xe983;" d="M574.129 749.962v18.465h-30.219l0.916-28.444 7.654 0.301c0 0-3.981 7.683-3.749 12.672 0.228 4.995 2.98 6.090 6.809 5.994 3.823-0.104 15.908 3.59 18.588-8.986z" />
<glyph unicode="&#xe984;" d="M556.354 703.712c-2.064 0-3.737-1.648-3.737-3.678v-21.090c0-2.032 1.673-3.676 3.737-3.676h24.708v28.444h-24.708z" />
<glyph unicode="&#xe985;" d="M590.325 687.348c0-7.853-3.532-14.222-7.907-14.222h-12.64c-4.366 0-7.898 6.369-7.898 14.222s3.532 14.222 7.898 14.222h12.64c4.375 0 7.907-6.369 7.907-14.222z" />
<glyph unicode="&#xe986;" d="M595.756 680.79c0-7.846-3.541-14.206-7.889-14.206h-12.658c-4.357 0-7.898 6.36-7.898 14.206 0 7.862 3.541 14.238 7.898 14.238h12.658c4.348 0 7.889-6.377 7.889-14.238z" />
<glyph unicode="&#xe987;" d="M587.495 677.455c0-7.841-3.525-14.198-7.894-14.198h-12.657c-4.36 0-7.894 6.357-7.894 14.198 0 7.857 3.534 14.246 7.894 14.246h12.657c4.368 0 7.894-6.389 7.894-14.246z" />
<glyph unicode="&#xe988;" d="M577.184 684.387c4.026-3.069 4.626-8.599 1.317-12.346l-9.572-10.901c-3.287-3.747-9.23-4.305-13.256-1.226-4.069 3.069-4.636 8.599-1.338 12.366l9.562 10.871c3.309 3.757 9.219 4.295 13.288 1.236z" />
<glyph unicode="&#xe989;" d="M575.296 693.177c4.038-3.068 4.638-8.608 1.339-12.353l-9.564-10.889c-3.299-3.746-9.254-4.294-13.292-1.235-4.027 3.078-4.627 8.598-1.328 12.353l9.575 10.889c3.299 3.756 9.243 4.314 13.27 1.235z" />
<glyph unicode="&#xe98a;" d="M574.124 749.962v18.465h30.218l-0.915-28.444-7.653 0.301c0 0 3.981 7.683 3.75 12.672-0.232 4.995-2.983 6.090-6.808 5.994-3.828-0.104-15.912 3.59-18.592-8.986z" />
<glyph unicode="&#xe98b;" d="M598.83 703.712c2.065 0 3.738-1.648 3.738-3.678v-21.090c0-2.032-1.673-3.676-3.738-3.676h-24.706v28.444h24.706z" />
<glyph unicode="&#xe98c;" d="M582.244 687.348c0-7.853 3.55-14.222 7.907-14.222h12.631c4.366 0 7.907 6.369 7.907 14.222s-3.541 14.222-7.907 14.222h-12.631c-4.357 0-7.907-6.369-7.907-14.222z" />
<glyph unicode="&#xe98d;" d="M576.812 680.79c0-7.846 3.542-14.206 7.882-14.206h12.671c4.376 0 7.891 6.36 7.891 14.206 0 7.862-3.515 14.238-7.891 14.238h-12.671c-4.34 0-7.882-6.377-7.882-14.238z" />
<glyph unicode="&#xe98e;" d="M585.074 677.455c0-7.841 3.521-14.198 7.902-14.198h12.623c4.354 0 7.92 6.357 7.92 14.198 0 7.857-3.566 14.246-7.92 14.246h-12.623c-4.381 0-7.902-6.389-7.902-14.246z" />
<glyph unicode="&#xe98f;" d="M726.036 768.113h-22.415c-18.591 0-33.659-15.068-33.659-33.659 0-11.541 5.812-21.723 14.664-27.787l-3.399-21.035 20.135 15.248c0.747-0.051 1.498-0.085 2.26-0.085h22.415c18.588 0 33.659 15.070 33.659 33.659 0 18.591-15.071 33.659-33.659 33.659z" />
<glyph unicode="&#xe990;" d="M680.298 746.008l3.051 4.219c0 0 0-23.306 2.175-23.855 2.18-0.549 11.189 0 11.189 0s0.18 6.053-1.276 6.423c-1.453 0.367-1.778 3.304 0.111 4.037 1.89 0.735 3.197-3.608 2.908-10.707 4.794 0 13.217 0 13.217 0s-3.761 6.52-8.859 6.117c-2.322-0.184-0.437 4.589 1.887 4.223 2.327-0.37 11.333-10.34 11.333-10.34h2.032v-4.343h-32.542c0 0-2.029 0.737-2.9 4.221-0.871 3.488-0.871 18.72-0.871 18.72l-1.455 1.284z" />
<glyph unicode="&#xe991;" d="M750.226 727.777c-2.776 0.622-4.344 1.614-5.397 3.555-1.051 1.942 1.347 2.751 3.597 1.778 2.252-0.969 1.8-5.333 1.8-5.333zM747.812 737.621c-1.2 0.954-3.487-0.145-4.469-4.346-0.979-4.203-5.446-6.951-6.756-5.333-1.307 1.614-0.107 7.107-2.179 9.050-2.068 1.937-2.396-0.971-2.179-3.717 0.221-2.751 1.854-5.497 2.615-9.052 0.764-3.555-5.773-10.019-9.37-10.342-3.595-0.324-6.1 1.13-6.1 1.13 0.764-2.261 2.943-5.82 8.060-5.493 5.122 0.322 8.935 11.151 9.483 13.249 2.068-1.454 5.556 2.748 6.644 3.883 1.090 1.128 4.575-4.528 6.538-2.912 1.962 1.618-1.091 12.931-2.288 13.883z" />
<glyph unicode="&#xe992;" d="M645.004 635.475c-0.261 0.050-0.528 0.102-0.804 0.157-7.726 1.513-15.311 3.274-20.135 4.44-0.362 0.086-0.664 0.162-0.923 0.227-2.078 0.489-3.84 0.908-5.062 1.204-0.433-3.88-1.217-15.372-1.52-22.797 7.070-3.049 14.773-4.995 22.868-5.613 0.16-0.009 0.332-0.025 0.483-0.033 0.004-0.001 0.012-0.001 0.012-0.001 2.952 0.204 5.081 0.4 5.081 0.4v22.017z" />
<glyph unicode="&#xe993;" d="M649.887 618.053v15.682c-2.21 0.919-4.413 1.875-6.557 2.831-12.542 5.619-19.672 9.851-19.81 9.931l-1.982-14.84c0.060-0.034-0.796 0.148 1.684-1.178 7.464-3.707 18.303-8.942 25.684-12.022 0.325-0.135 0.651-0.269 0.981-0.404z" />
<glyph unicode="&#xe994;" d="M663.845 639.904c-4.052-0.974-9.774-2.302-15.856-3.554-1.554-0.325-3.012-0.625-4.317-0.876v-22.017c0 0 2.126-0.196 5.077-0.4 0 0 0.008 0 0.016 0.001 0.153 0.008 0.325 0.024 0.483 0.033 8.093 0.618 15.796 2.564 22.868 5.613-0.309 7.425-1.092 18.917-1.524 22.797-1.54-0.371-3.936-0.944-6.748-1.598z" />
<glyph unicode="&#xe995;" d="M669.149 629.893c3.845 1.969 2.738 1.73 2.801 1.764l-1.977 14.84c-0.138-0.081-7.269-4.313-19.81-9.931-2.147-0.956-4.343-1.912-6.557-2.831v-15.682c1.79 0.731 3.579 1.488 5.349 2.256 6.144 2.737 13.483 6.265 19.342 9.154 0.29 0.148 0.578 0.296 0.851 0.431z" />
<glyph unicode="&#xe996;" d="M745.263 928.043c0 17.178-15.493 31.101-34.6 31.101h-35.906c-19.114 0-34.603-13.923-34.603-31.101s15.489-31.101 34.603-31.101h11.825l32.657-17.406-5.979 17.503c17.893 1.195 32.003 14.614 32.003 31.005z" />
<glyph unicode="&#xe997;" d="M680.968 906.088h-4.59v25.425h-19.262v-25.425h-4.593v28.444h28.444v-28.444z" />
<glyph unicode="&#xe998;" d="M680.968 906.088h-4.59v25.425h-19.262v-25.425h-4.593v28.444h28.444z" />
<glyph unicode="&#xe999;" d="M672.13 931.549v-11.756h5.368c4.401 0 7.518 0.554 9.36 1.67 1.833 1.113 2.748 2.594 2.748 4.443 0 1.851-0.891 3.251-2.676 4.209-1.793 0.956-4.65 1.434-8.569 1.434h-6.23zM672.13 916.825v-10.738h-5.368v28.444h12c5.601 0 9.741-0.772 12.417-2.311 2.676-1.541 4.028-3.616 4.028-6.218 0-2.707-1.464-4.913-4.405-6.617-2.933-1.704-7.029-2.56-12.288-2.56h-6.383z" />
<glyph unicode="&#xe99a;" d="M672.13 931.549v-11.756h5.368c4.401 0 7.518 0.554 9.36 1.67 1.833 1.113 2.748 2.594 2.748 4.443 0 1.851-0.891 3.251-2.676 4.209-1.793 0.956-4.65 1.434-8.569 1.434h-6.23zM672.13 916.825v-10.738h-5.368v28.444h12c5.601 0 9.741-0.772 12.417-2.311 2.676-1.541 4.028-3.616 4.028-6.218 0-2.707-1.464-4.913-4.405-6.617-2.933-1.704-7.029-2.56-12.288-2.56h-6.383z" />
<glyph unicode="&#xe99b;" d="M706.624 906.088h-4.626v23.479l-19.116-23.479h-4.702v28.444h4.636v-22.893l18.632 22.893h5.176v-28.444z" />
<glyph unicode="&#xe99c;" d="M706.624 906.088h-4.626v23.479l-19.116-23.479h-4.702v28.444h4.636v-22.893l18.632 22.893h5.176z" />
<glyph unicode="&#xe99d;" d="M696.992 919.998v-10.927h6.867c4.841 0 8.040 0.499 9.608 1.499 1.568 0.998 2.336 2.353 2.336 4.052 0 1.106-0.285 2.051-0.856 2.839-0.578 0.785-1.473 1.405-2.695 1.859-1.23 0.452-3.597 0.677-7.131 0.677h-8.128zM696.992 931.549v-8.642h6.807c3.298 0 5.599 0.394 6.92 1.184 1.311 0.796 1.97 2.017 1.97 3.666 0 1.142-0.525 2.061-1.564 2.755-1.053 0.691-3.689 1.037-7.91 1.037h-6.222zM692.278 906.088v28.444h11.25c1.719 0 3.182-0.026 4.387-0.076 1.216-0.050 2.452-0.213 3.728-0.488 1.272-0.276 2.368-0.696 3.277-1.255 0.916-0.562 1.589-1.218 2.033-1.972 0.44-0.756 0.652-1.618 0.652-2.589 0-2.516-1.705-4.454-5.116-5.811v-0.152c2.583-0.402 4.598-1.247 6.057-2.537 1.452-1.292 2.177-2.891 2.177-4.806 0-2.702-1.304-4.84-3.915-6.407-2.614-1.568-6.328-2.35-11.155-2.35h-13.375z" />
<glyph unicode="&#xe99e;" d="M696.992 919.998v-10.927h6.867c4.841 0 8.040 0.499 9.608 1.499 1.568 0.998 2.336 2.353 2.336 4.052 0 1.106-0.285 2.051-0.856 2.839-0.578 0.785-1.473 1.405-2.695 1.859-1.23 0.452-3.597 0.677-7.131 0.677h-8.128zM696.992 931.549v-8.642h6.807c3.298 0 5.599 0.394 6.92 1.184 1.311 0.796 1.97 2.017 1.97 3.666 0 1.142-0.525 2.061-1.564 2.755-1.053 0.691-3.689 1.037-7.91 1.037h-6.222zM692.278 906.088v28.444h11.25c1.719 0 3.182-0.026 4.387-0.076 1.216-0.050 2.452-0.213 3.728-0.488 1.272-0.276 2.368-0.696 3.277-1.255 0.916-0.562 1.589-1.218 2.033-1.972 0.44-0.756 0.652-1.618 0.652-2.589 0-2.516-1.705-4.454-5.116-5.811v-0.152c2.583-0.402 4.598-1.247 6.057-2.537 1.452-1.292 2.177-2.891 2.177-4.806 0-2.702-1.304-4.84-3.915-6.407-2.614-1.568-6.328-2.35-11.155-2.35h-13.375z" />
<glyph unicode="&#xe99f;" d="M733.616 906.088h-28.444v28.444h28.444v-3.057h-23.053v-8.288h22.46v-3.057h-22.46v-10.987h23.053v-3.057z" />
<glyph unicode="&#xe9a0;" d="M733.616 906.088h-28.444v28.444h28.444v-3.057h-23.053v-8.288h22.46v-3.057h-22.46v-10.987h23.053z" />
<glyph unicode="&#xe9a1;" d="M729.050 906.088v25.388h-12.12v3.057h28.444v-3.057h-12.114v-25.388h-4.21z" />
<glyph unicode="&#xe9a2;" d="M729.050 906.088v25.388h-12.12v3.057h28.444v-3.057h-12.114v-25.388z" />
<glyph unicode="&#xe9a3;" d="M732.091 904.38h27.345v5.689h-27.345v-5.689zM759.976 934.532l-3.635-20.706h-20.858l-3.952 20.706h28.444z" />
<glyph unicode="&#xe9a4;" d="M732.091 904.38h27.345v5.689h-27.345v-5.689zM759.976 934.532l-3.635-20.706h-20.858l-3.952 20.706h28.444z" />
<glyph unicode="&#xe9a5;" d="M757.631 805.97v89.679c0 0-12.236 2.24-15.519-5.22-4.625 0-15.968-2.54-16.711-14.772-3.584-1.494-5.074-8.21-3.434-11.641-2.985-2.389-5.967-11.044 1.942-16.861 7.906-5.82 5.968-3.433 5.968-3.433 0.297-2.834 1.191-5.819 3.433-7.163 0.595-3.284-8.029-25.216-2.059-29.843 5.967-4.626 26.38-0.747 26.38-0.747z" />
<glyph unicode="&#xe9a6;" d="M757.631 805.97v89.679c0 0 12.231 2.24 15.516-5.22 4.629 0 15.968-2.54 16.711-14.772 3.584-1.494 5.074-8.21 3.433-11.641 2.982-2.389 5.971-11.044-1.941-16.861-7.906-5.82-5.963-3.433-5.963-3.433-0.301-2.834-1.199-5.819-3.435-7.163-0.596-3.284 8.025-25.216 2.057-29.843-5.966-4.626-26.378-0.747-26.378-0.747z" />
<glyph unicode="&#xe9a7;" d="M757.631 878.126v-21.45c4.737 2.822 8.726 5.442 10.743 7.185 2.342 0.45 5.201-1.351 5.725-3.599 0.517-2.253 1.041-7.881 5.982-10.581 1.824 4.277 5.986 13.28 5.986 13.28s1.339 12.128-28.435 15.164z" />
<glyph unicode="&#xe9a8;" d="M786.027 860.021c-0.039 0.262-1.091 6.486-5.124 12.682-3.686 5.657-10.663 12.405-22.993 12.405-0.095 0-0.19-0.015-0.279-0.033v-5.47c0.089-0.017 0.184-0.037 0.279-0.037 20.303 0 23.911-19.885 24.057-20.736 0.212-1.289 1.076-2.168 2.028-2.168 0.15 0 0.301 0.025 0.448 0.069 1.116 0.333 1.828 1.798 1.583 3.289z" />
<glyph unicode="&#xe9a9;" d="M762.356 885.075c-0.094 0.019-0.187 0.033-0.283 0.033-12.321 0-19.302-6.748-22.988-12.405-4.028-6.195-5.084-12.42-5.126-12.682-0.242-1.491 0.465-2.956 1.584-3.289 0.15-0.044 0.301-0.069 0.451-0.069 0.951 0 1.811 0.879 2.028 2.168 0.147 0.85 3.753 20.736 24.051 20.736 0.095 0 0.189 0.021 0.283 0.037v5.47z" />
<glyph unicode="&#xe9aa;" d="M828.962 745.738h-30.486c-16.226 0-29.379-13.152-29.379-29.381 0-10.278 5.281-19.317 13.276-24.568l-2.516-16.233 18.571 11.422c0.017 0 0.033 0 0.048 0h30.486c16.228 0 29.382 13.155 29.382 29.379 0 16.228-13.154 29.381-29.382 29.381z" />
<glyph unicode="&#xe9ab;" d="M811.194 713.162h-6.868c0.047 2.353 0.083 5.197 0.103 6.55l6.765 0.068v-6.617zM804.988 709.446c-0.038-0.746-0.162-3.016-0.949-3.728-0.105-0.091-0.402-0.361-1.315-0.31-2.187 0.132-3.359 2.378-3.359 3.95 0 0.941 1.403 1.548 1.897 1.733h3.792c-0.024-0.672-0.045-1.23-0.067-1.644zM787.281 708.324c-0.101-0.935-1.44-1.493-2.661-1.54-0.564-0.025-2.429 0.026-2.818 1.653-0.773 3.205 1.72 3.9 2.435 4.032h2.337c0.651-0.875 0.898-2.29 0.707-4.145zM848.298 720.156l-0.020 2.074-3.839-0.039-6.029 7.619-1.325-1.398 4.943-6.246-61.565-0.625 0.016-2.071 11.822 0.119v-5.047h-9.048l-0.151-0.017c-0.16-0.030-1.572-0.353-2.499-1.893-0.704-1.168-0.91-2.674-0.617-4.476 0.375-2.308 1.994-3.306 3.502-3.306 0.070 0 0.135 0.002 0.207 0.006 1.6 0.096 3.293 1.299 3.44 3.408 0.113 1.677 0.012 3.084-0.303 4.204h5.47v-9.857h1.798v16.995l8.534 0.087c-0.018-1.372-0.056-4.21-0.102-6.532h-2.394l-0.118-0.036c-0.906-0.293-2.447-1.273-2.447-3.117 0-2.068 1.351-4.386 3.531-4.533 0.075-0.005 0.151-0.009 0.226-0.009 0.722 0 1.323 0.245 1.791 0.728 0.872 0.896 1.054 2.402 1.117 3.757 0.016 0.284 0.030 0.674 0.043 1.138h6.915v-8.479h1.792v17.186l8.749 0.090v-7.755l-1.956-2.047c-0.867 1.242-1.462 2.14-1.582 2.41 0-0.005 0.033-0.078 0.049-0.197l-1.768-0.345c0.044-0.312 0.138-0.964 7.262-10.589l1.363 1.344c-1.446 1.958-2.955 4.027-4.191 5.769l2.322 2.426-0.144 0.186h7.002v2.072h-6.559v6.743l19.584 0.198v-6.134h-7.677l-0.116-0.036c-1.565-0.488-4.296-2.479-3.42-6.529 1.011-4.677 4.579-5.757 4.73-5.799l0.441 2.006c-0.109 0.036-2.683 0.853-3.429 4.297-0.607 2.793 1.498 3.781 2.046 3.988h7.060l0.363-9.332 1.794 0.045v17.512l3.387 0.033z" />
<glyph unicode="&#xe9ac;" d="M752.604 677.833v-107.886c0 0-23.654-1.27-23.654 1.778 0 3.054 0.846 2.377 1.524 3.902 0.677 1.526-2.886 3.732-3.054 7.123s5.256 6.951 5.256 6.951c-2.035 1.696-11.192 19.843-6.954 25.607 4.242 5.767-5.254 26.624-5.597 32.899-0.335 6.274-5.932 21.876 2.886 24.251s29.593 5.375 29.593 5.375z" />
<glyph unicode="&#xe9ad;" d="M752.604 677.833v-107.886c0 0 23.656-1.27 23.656 1.778 0 3.054-0.849 2.377-1.527 3.902s2.885 3.732 3.055 7.123c0.167 3.391-5.259 6.951-5.259 6.951 2.036 1.696 11.193 19.843 6.955 25.607-4.241 5.767 5.255 26.624 5.593 32.899s5.937 21.876-2.882 24.251-29.591 5.375-29.591 5.375z" />
<glyph unicode="&#xe9ae;" d="M779.090 570.122v0.003c-1.097 5.244-2.568 10.776-4.197 15.162h-22.289v-28.444h28.444c-0.15 3.228-0.875 8.112-1.958 13.279z" />
<glyph unicode="&#xe9af;" d="M734.338 578.366c-0.517-1.872-1.003-3.803-1.441-5.728-0.010-0.040-0.017-0.077-0.025-0.115-0.173-0.769-0.345-1.534-0.502-2.293-0.012-0.050-0.023-0.102-0.035-0.155-0.17-0.803-0.327-1.597-0.477-2.381-0.003-0.014-0.003-0.028-0.008-0.043-0.803-4.227-1.335-8.104-1.465-10.809h28.444v28.444h-22.29c-0.772-2.092-1.515-4.439-2.196-6.895 0-0.011-0.003-0.017-0.005-0.027z" />
<glyph unicode="&#xe9b0;" d="M860.649 739.006c0 20.968 16.971 37.96 37.961 37.96 20.959 0 37.933-16.992 37.933-37.96 0-17.436-11.748-32.106-27.76-36.552l-23.857-13.596-2.773 15.944c-12.731 6.128-21.504 19.138-21.504 34.203z" />
<glyph unicode="&#xe9b1;" d="M897.582 726.778c-1.247 1.779-2.587 3.498-4.599 5.503l1.98 1.399c2.207-1.909 3.609-3.275 5.369-5.25l-2.75-1.651zM897.102 735.809c-1.116 1.751-2.265 2.927-4.344 4.772l1.951 1.527c1.949-1.716 2.846-2.576 4.699-4.454l-2.305-1.846zM891.447 743.731v-7.477c0-1.303-0.541-1.909-4.25-2.194-0.067 0.859-0.289 1.558-0.928 2.641 2.33-0.063 2.683 0.192 2.683 0.763v3.881c0 2.003-0.033 3.021-0.16 3.849 0.958-0.128 2.495-0.19 3.006-0.158 0.609 0.030 0.67-0.223 0.256-0.51-0.417-0.254-0.608-0.509-0.608-0.795zM887.361 727.767c-0.535 1.514-1.223 2.99-2.369 4.574l2.979 1.115c0.957-1.656 2.065-3.419 2.71-4.353l-3.319-1.335zM885.341 739.181c-0.543-0.891-1.118-1.717-2.397-3.402-0.861 0.572-1.278 0.794-2.335 1.145 2.24 2.384 3.133 3.847 3.772 5.535 0.735-0.446 1.629-0.891 2.335-1.114 0.704-0.19 0.704-0.351 0.095-0.574-0.479-0.19-0.8-0.541-1.47-1.59zM882.624 742.49c-0.511 0.572-1.245 1.114-2.24 1.559 3.168 2.481 4.638 4.517 6.108 8.047 1.086-0.54 2.046-0.922 3.101-1.145 0.639-0.127 0.639-0.286-0.033-0.477-0.415-0.127-1.791-1.432-2.431-2.421h6.841c2.398 0 4.124 0.066 5.305 0.289l-2.077-5.281-2.461 0.924 0.958 2.068h-10.001c-0.897-1.179-1.759-2.132-3.071-3.564zM890.838 723.755c-1.948-0.193-8.115-0.096-9.202 0.158-1.473 0.288-2.014 0.795-2.014 2.735v3.023c0 1.018-0.067 2.036-0.224 2.768 1.118-0.223 2.207-0.319 3.005-0.286 0.574 0.031 0.701-0.127 0.256-0.541-0.353-0.286-0.417-0.477-0.417-0.953v-3.213c0-0.701 0.191-1.21 1.054-1.337 1.279-0.189 5.148-0.189 6.97 0.127 1.021 0.159 1.116 0.447 1.47 3.277 1.181-0.985 1.884-1.368 2.938-1.558-0.891-3.499-1.405-3.914-3.836-4.199zM873.58 740.549c-0.286 1.019-0.766 1.846-1.436 2.514 2.714 2.481 5.625 7.030 6.006 8.779 1.086-0.571 2.046-0.921 3.099-1.143 0.639-0.127 0.639-0.319-0.034-0.478-0.316-0.063-1.18-0.924-2.262-2.481v-13.456h-2.718c0.126 0.987 0.224 2.449 0.224 4.452v5.537c-0.929-1.242-1.794-2.387-2.879-3.724zM875.049 724.995l-3.162 1.176c1.374 2.163 2.33 4.39 2.75 6.618l2.939-0.924c-0.992-2.257-1.856-4.582-2.527-6.87z" />
<glyph unicode="&#xe9b2;" d="M927.897 739.394v-2.9c-1.637 0.183-3.675 0.276-6.547 0.307v-9.728c0-2.346-1.172-2.932-5.251-3.428 0 0.865-0.524 2.316-1.421 3.491 3.549-0.494 4.106-0.216 4.106 1.081v8.584c-2.685-0.030-4.632-0.123-6.143-0.307v2.9c1.543-0.182 3.485-0.275 6.143-0.305v4.293c1.669 1.326 3.367 3.055 4.109 3.952h-6.61c-1.236 0-2.221-0.032-3.151-0.092v2.592c1.946-0.153 3.277-0.185 6.889-0.185 4.414 0 5.991 0.063 6.915 0.185v-2.592c-1.355-0.557-2.439-1.206-5.587-4.387v-3.766c2.872 0.030 4.91 0.123 6.547 0.305zM910.023 743.165h-3.714c-0.547-2.164-1.228-4.851-1.975-8.249 1.19-0.586 2.35-1.202 3.477-1.852 1.259 2.562 1.873 5.807 2.212 10.101zM900.564 742.916v2.562c0.771-0.122 1.727-0.185 3.583-0.213 0.402 2.687 0.554 4.972 0.586 6.607 1.111-0.368 2.224-0.647 3.337-0.71 0.74-0.030 0.677-0.215 0.092-0.709-0.402-0.341-0.835-1.79-1.575-5.188 3.396 0 4.91 0.092 5.776 0.213-0.802-7.689-1.574-11.056-2.873-13.68 1.326-0.865 2.471-1.669 3.304-2.285-0.897-0.712-1.667-1.547-2.221-2.411-0.65 0.864-1.422 1.699-2.349 2.501-1.604-2.346-4.106-4.848-6.176-6.176-0.556 0.927-1.359 1.73-2.595 2.379 3.214 1.451 5.407 3.057 6.919 5.251-1.361 0.957-2.965 1.915-4.913 2.933 1.083 3.12 1.855 6.301 2.347 9.174-1.388-0.033-2.347-0.125-3.243-0.249z" />
<glyph unicode="&#xe9b3;" d="M876.147 597.628v2.141h-20.323c-4.488 0-8.121-3.177-8.121-7.090v-21.354h28.444v26.304z" />
<glyph unicode="&#xe9b4;" d="M898.467 645.744l-24.491 18.963v9.481l28.444-3.242-3.954-25.202z" />
<glyph unicode="&#xe9b5;" d="M873.976 606.858h22.384c3.35 0 6.061-8.284 6.061-18.484 0-3.672-0.354-7.077-0.964-9.96h-27.481v28.444z" />
<glyph unicode="&#xe9b6;" d="M873.976 597.628v2.141h20.322c4.487 0 8.122-3.177 8.122-7.090v-21.354h-28.444v26.304z" />
<glyph unicode="&#xe9b7;" d="M873.976 563.706h28.444v28.444h-28.444z" />
</font>
</defs>
</svg>
